<?xml version="1.0" encoding="utf-8"?>
<!-- Generator: Adobe Illustrator 22.1.0, SVG Export Plug-In . SVG Version: 6.00 Build 0)  -->
<svg version="1.1" id="Layer_1" xmlns="http://www.w3.org/2000/svg" xmlns:xlink="http://www.w3.org/1999/xlink" x="0px" y="0px"
	 viewBox="0 0 150 150" style="enable-background:new 0 0 150 150;" xml:space="preserve">
<style type="text/css">
	.st0{display:none;fill-rule:evenodd;clip-rule:evenodd;}
	.st1{fill:#FFFFFF;}
	.st2{fill-rule:evenodd;clip-rule:evenodd;fill:#FFFFFF;}
</style>
<rect y="0.5" class="st0" width="149" height="149"/>
<g>
	<path class="st2" d="M88.6,41.1c3.2-4,5.6-9.6,5-15.2c-4.8,0.2-10.5,3.2-13.9,7.3c-3.1,3.5-5.7,9.3-5,14.7
		C79.8,48.3,85.2,45.2,88.6,41.1L88.6,41.1z"/>
	<path class="st2" d="M102.5,85.1H37l0,0L102.5,85.1l-0.1-0.1c-1.5-3-2.2-7.7-1.6-11.5v-0.1h0c0.6-5,3.8-10.1,6.4-12
		c0,0,0.1,0,0.1-0.1v0h0l0,0c0.6-0.6,2.2-1.9,3.3-2.7c-4.1-6-10.7-9.2-17.5-9.3c-6.8-0.6-13.9,4.3-17.7,4.2c-3.7,0.1-9.3-4.3-15.2-4
		l-0.1,0c-0.1,0-1.2,0.1-1.2,0.1c-7.8,0.2-14.7,4.8-18.7,11.8v0h0v0c-1.6,2.5-3.4,8.4-3.7,12.1l0,0v0.2c-0.4,2.4,0,8.6,0.4,11.6l0,0
		c0,0.1,0,0.1,0,0.2l0,0c0.3,3,1.9,8.8,3,11.7v0h0c1.1,3.1,4.2,9,6.1,12v0h0c4,5.7,8.7,12.2,14.9,11.9c6-0.2,8.2-4,15.4-3.9
		c7.2-0.1,9.2,3.7,15.6,3.8c6.5-0.3,10.5-6,14.5-11.8c2-3,5-8.7,6.1-12.1h0c0.1-0.4,0.3-0.9,0.4-1.3
		C108.9,94.4,104.1,88.8,102.5,85.1L102.5,85.1z"/>
</g>
</svg>
