<?xml version="1.0" encoding="utf-8"?>
<!-- Generator: Adobe Illustrator 22.1.0, SVG Export Plug-In . SVG Version: 6.00 Build 0)  -->
<svg version="1.1" id="Layer_1" xmlns="http://www.w3.org/2000/svg" xmlns:xlink="http://www.w3.org/1999/xlink" x="0px" y="0px"
	 viewBox="0 0 150 150" style="enable-background:new 0 0 150 150;" xml:space="preserve">
<style type="text/css">
	.st0{display:none;fill-rule:evenodd;clip-rule:evenodd;}
	.st1{fill:#FFFFFF;}
	.st2{fill-rule:evenodd;clip-rule:evenodd;fill:#FFFFFF;}
</style>
<rect x="0.5" y="0.5" class="st0" width="149" height="149"/>
<g>
	<polygon class="st1" points="141.7,52.6 119.9,52.6 121.2,48.8 141.7,48.8 	"/>
	<path class="st1" d="M83.5,48.8l20.3,0l1.3,3.8c0,0-21.6,0-21.6,0C83.5,52.6,83.4,48.8,83.5,48.8z"/>
	<path class="st1" d="M67.3,48.8c3.3,0.3,6.3,1.5,8.7,3.8c0,0-36.8,0-36.8,0c0,0,0-3.8,0-3.8L67.3,48.8z"/>
	<g>
		<rect x="10.4" y="48.8" class="st1" width="25.6" height="3.8"/>
	</g>
	<path class="st1" d="M141.7,59.7h-24.4c0,0,1.3-3.7,1.3-3.7h23V59.7z"/>
	<polygon class="st1" points="107.6,59.7 83.5,59.7 83.5,55.9 106.3,55.9 	"/>
	<path class="st1" d="M78.9,55.9c0.5,1.2,1.1,2.3,1.1,3.7H39.3v-3.7H78.9z"/>
	<g>
		<rect x="10.4" y="55.9" class="st1" width="25.6" height="3.7"/>
	</g>
	<polygon class="st1" points="114.9,66.8 116.2,63 134.5,63 134.5,66.7 	"/>
	<polygon class="st1" points="108.8,63 110.1,66.8 90.6,66.8 90.6,63 	"/>
	<path class="st1" d="M80.3,63c0,1.3-0.2,2.6-0.5,3.8H68.6V63H80.3z"/>
	<g>
		<rect x="17.5" y="63" class="st1" width="11" height="3.8"/>
	</g>
	<g>
		<rect x="46.7" y="63" class="st1" width="11" height="3.8"/>
	</g>
	<path class="st1" d="M101.4,70.8c0,0,0,2.9,0,2.9H90.6v-3.8h20.6l1.3,3.5c0,0,1.2-3.5,1.2-3.5h20.7v3.8h-10.7c0,0,0-2.9,0-2.9
		l-1,2.9l-20.3,0L101.4,70.8z"/>
	<path class="st1" d="M46.7,69.9h31.5v0c-0.7,1.3-1.9,2.8-3.1,3.8c0,0-28.4,0-28.4,0C46.7,73.7,46.7,69.9,46.7,69.9z"/>
	<g>
		<rect x="17.5" y="69.9" class="st1" width="11" height="3.8"/>
	</g>
	<g>
		<rect x="123.7" y="77" class="st1" width="10.7" height="3.7"/>
	</g>
	<path class="st1" d="M101.4,77H90.6v3.7c0,0,10.8,0,10.8,0C101.4,80.8,101.5,77,101.4,77z"/>
	<path class="st1" d="M121.6,77c0,0-1.3,3.7-1.3,3.7l-15.3,0c0,0-1.3-3.8-1.3-3.8H121.6z"/>
	<path class="st1" d="M46.7,77H75c1.3,1.1,2.5,2.4,3.4,3.8c0.1,0-31.7,0-31.7,0C46.7,80.8,46.7,77,46.7,77z"/>
	<path class="st1" d="M28.5,80.8V77h-11c0,0,0,3.7,0,3.7C17.6,80.8,28.5,80.8,28.5,80.8z"/>
	<g>
		<rect x="123.7" y="84.1" class="st1" width="10.7" height="3.8"/>
	</g>
	<g>
		<rect x="90.6" y="84.1" class="st1" width="10.8" height="3.7"/>
	</g>
	<path class="st1" d="M117.7,87.8c0,0,1.3-3.8,1.3-3.8h-13c0,0,1.3,3.8,1.3,3.8S117.7,87.9,117.7,87.8z"/>
	<path class="st1" d="M46.7,87.8c0,0,0-3.7,0-3.8h11.1c0,0,0,3.8,0,3.8C57.8,87.8,46.7,87.8,46.7,87.8z"/>
	<path class="st1" d="M79.9,84.1c0.5,1.1,0.6,2.5,0.7,3.8H68.8v-3.8H79.9z"/>
	<g>
		<rect x="17.6" y="84.1" class="st1" width="11" height="3.7"/>
	</g>
	<g>
		<rect x="123.7" y="91" class="st1" width="18" height="3.8"/>
	</g>
	<g>
		<rect x="83.5" y="91" class="st1" width="18" height="3.8"/>
	</g>
	<polygon class="st1" points="115.3,94.8 109.8,94.8 108.5,91 116.6,91 	"/>
	<path class="st1" d="M10.4,91v3.8H36c0,0,0-3.7,0-3.7C36,91,10.4,91,10.4,91z"/>
	<path class="st1" d="M80.1,91c-0.3,1.2-0.5,2.7-1.4,3.8l-0.3,0H39.3V91H80.1z"/>
	<polygon class="st1" points="112.8,101.8 112.3,101.8 111,98.1 114.2,98.1 	"/>
	<g>
		<rect x="123.7" y="98.1" class="st1" width="18" height="3.8"/>
	</g>
	<path class="st1" d="M39.3,101.8v-3.8c0,0,36.9,0,37,0c-2.5,2.4-5.9,3.7-9.5,3.8L39.3,101.8"/>
	<g>
		<rect x="83.5" y="98.1" class="st1" width="18" height="3.8"/>
	</g>
	<path class="st1" d="M36,98.1c0,0,0,3.7,0,3.7c0,0-25.5,0-25.5,0c0,0,0-3.8,0-3.8S35.9,98.1,36,98.1z"/>
</g>
</svg>
