<?xml version="1.0" encoding="utf-8"?>
<!-- Generator: Adobe Illustrator 22.1.0, SVG Export Plug-In . SVG Version: 6.00 Build 0)  -->
<svg version="1.1" id="Layer_1" xmlns="http://www.w3.org/2000/svg" xmlns:xlink="http://www.w3.org/1999/xlink" x="0px" y="0px"
	 viewBox="0 0 150 150" style="enable-background:new 0 0 150 150;" xml:space="preserve">
<style type="text/css">
	.st0{display:none;}
	.st1{display:inline;fill:#FFFFFF;}
	.st2{display:inline;}
	.st3{fill:#FFFFFF;}
</style>
<rect x="-0.1" y="-0.2" class="st0" width="150" height="150"/>
<rect x="0.3" class="st0" width="149.3" height="150"/>
<g class="st0">
	<path class="st1" d="M89,42.7c3.3-4.2,5.8-10,5.2-15.8c-5,0.2-10.9,3.3-14.5,7.6c-3.2,3.6-5.9,9.7-5.2,15.3
		C79.9,50.2,85.5,47,89,42.7L89,42.7z"/>
	<path class="st1" d="M103.5,88.5H35.4l0,0H103.5L103.5,88.5c-1.7-3.2-2.4-8.1-1.8-12.1v-0.1l0,0c0.6-5.2,4-10.5,6.7-12.5
		c0,0,0.1,0,0.1-0.1l0,0l0,0l0,0c0.6-0.6,2.3-2,3.4-2.8c-4.3-6.2-11.1-9.6-18.2-9.7c-7.1-0.6-14.5,4.5-18.4,4.4
		c-3.8,0.1-9.7-4.5-15.8-4.2h-0.1c-0.1,0-1.2,0.1-1.2,0.1c-8.1,0.2-15.3,5-19.5,12.3l0,0l0,0l0,0c-1.7,2.6-3.5,8.7-3.8,12.6l0,0v0.2
		c-0.4,2.5,0,8.9,0.4,12.1l0,0c0,0.1,0,0.1,0,0.2l0,0c0.3,3.1,2,9.2,3.1,12.2l0,0l0,0c1.1,3.2,4.4,9.4,6.3,12.5l0,0l0,0
		c4.2,5.9,9.1,12.7,15.5,12.4c6.2-0.2,8.5-4.2,16-4.1c7.5-0.1,9.6,3.8,16.2,4c6.8-0.3,10.9-6.2,15.1-12.3c2.1-3.1,5.2-9.1,6.3-12.6
		l0,0c0.1-0.4,0.3-0.9,0.4-1.4C110.2,98.2,105.2,92.3,103.5,88.5L103.5,88.5z"/>
</g>
<g class="st0">
	<path class="st1" d="M89,42.7c3.3-4.2,5.8-10,5.2-15.8c-5,0.2-10.9,3.3-14.5,7.6c-3.2,3.6-5.9,9.7-5.2,15.3
		C79.9,50.2,85.5,47,89,42.7L89,42.7z"/>
	<path class="st1" d="M103.5,88.5H35.4l0,0H103.5L103.5,88.5c-1.7-3.2-2.4-8.1-1.8-12.1v-0.1l0,0c0.6-5.2,4-10.5,6.7-12.5
		c0,0,0.1,0,0.1-0.1l0,0l0,0l0,0c0.6-0.6,2.3-2,3.4-2.8c-4.3-6.2-11.1-9.6-18.2-9.7c-7.1-0.6-14.5,4.5-18.4,4.4
		c-3.8,0.1-9.7-4.5-15.8-4.2h-0.1c-0.1,0-1.2,0.1-1.2,0.1c-8.1,0.2-15.3,5-19.5,12.3l0,0l0,0l0,0c-1.7,2.6-3.5,8.7-3.8,12.6l0,0v0.2
		c-0.4,2.5,0,8.9,0.4,12.1l0,0c0,0.1,0,0.1,0,0.2l0,0c0.3,3.1,2,9.2,3.1,12.2l0,0l0,0c1.1,3.2,4.4,9.4,6.3,12.5l0,0l0,0
		c4.2,5.9,9.1,12.7,15.5,12.4c6.2-0.2,8.5-4.2,16-4.1c7.5-0.1,9.6,3.8,16.2,4c6.8-0.3,10.9-6.2,15.1-12.3c2.1-3.1,5.2-9.1,6.3-12.6
		l0,0c0.1-0.4,0.3-0.9,0.4-1.4C110.2,98.2,105.2,92.3,103.5,88.5L103.5,88.5z"/>
</g>
<g class="st0">
	<polygon class="st1" points="139.7,54.6 117.9,54.6 119.2,50.8 139.7,50.8 	"/>
	<path class="st1" d="M81.5,50.8h20.3l1.3,3.8H81.5C81.5,54.6,81.4,50.8,81.5,50.8z"/>
	<path class="st1" d="M65.3,50.8c3.3,0.3,6.3,1.5,8.7,3.8H37.2v-3.8H65.3z"/>
	<g class="st2">
		<rect x="8.4" y="50.8" class="st3" width="25.6" height="3.8"/>
	</g>
	<path class="st1" d="M139.7,61.7h-24.4l1.3-3.7h23L139.7,61.7L139.7,61.7z"/>
	<polygon class="st1" points="105.6,61.7 81.5,61.7 81.5,57.9 104.3,57.9 	"/>
	<path class="st1" d="M76.9,57.9c0.5,1.2,1.1,2.3,1.1,3.7H37.3v-3.7H76.9z"/>
	<g class="st2">
		<rect x="8.4" y="57.9" class="st3" width="25.6" height="3.7"/>
	</g>
	<polygon class="st1" points="112.9,68.8 114.2,65 132.5,65 132.5,68.7 	"/>
	<polygon class="st1" points="106.8,65 108.1,68.8 88.6,68.8 88.6,65 	"/>
	<path class="st1" d="M78.3,65c0,1.3-0.2,2.6-0.5,3.8H66.6V65H78.3z"/>
	<g class="st2">
		<rect x="15.5" y="65" class="st3" width="11" height="3.8"/>
	</g>
	<g class="st2">
		<rect x="44.7" y="65" class="st3" width="11" height="3.8"/>
	</g>
	<path class="st1" d="M99.4,72.8v2.9H88.6v-3.8h20.6l1.3,3.5l1.2-3.5h20.7v3.8h-10.7v-2.9l-1,2.9h-20.3L99.4,72.8z"/>
	<path class="st1" d="M44.7,71.9h31.5l0,0c-0.7,1.3-1.9,2.8-3.1,3.8H44.7C44.7,75.7,44.7,71.9,44.7,71.9z"/>
	<g class="st2">
		<rect x="15.5" y="71.9" class="st3" width="11" height="3.8"/>
	</g>
	<g class="st2">
		<rect x="121.7" y="79" class="st3" width="10.7" height="3.7"/>
	</g>
	<path class="st1" d="M99.4,79H88.6v3.7h10.8C99.4,82.8,99.5,79,99.4,79z"/>
	<path class="st1" d="M119.6,79l-1.3,3.7H103l-1.3-3.8h17.9V79z"/>
	<path class="st1" d="M44.7,79H73c1.3,1.1,2.5,2.4,3.4,3.8c0.1,0-31.7,0-31.7,0V79z"/>
	<path class="st1" d="M26.5,82.8V79h-11v3.7C15.6,82.8,26.5,82.8,26.5,82.8z"/>
	<g class="st2">
		<rect x="121.7" y="86.1" class="st3" width="10.7" height="3.8"/>
	</g>
	<g class="st2">
		<rect x="88.6" y="86.1" class="st3" width="10.8" height="3.7"/>
	</g>
	<path class="st1" d="M115.7,89.8L117,86h-13l1.3,3.8C105.3,89.8,115.7,89.9,115.7,89.8z"/>
	<path class="st1" d="M44.7,89.8c0,0,0-3.7,0-3.8h11.1v3.8C55.8,89.8,44.7,89.8,44.7,89.8z"/>
	<path class="st1" d="M77.9,86.1c0.5,1.1,0.6,2.5,0.7,3.8H66.8v-3.8H77.9z"/>
	<g class="st2">
		<rect x="15.6" y="86.1" class="st3" width="11" height="3.7"/>
	</g>
	<g class="st2">
		<rect x="121.7" y="93" class="st3" width="18" height="3.8"/>
	</g>
	<g class="st2">
		<rect x="81.5" y="93" class="st3" width="18" height="3.8"/>
	</g>
	<polygon class="st1" points="113.3,96.8 107.8,96.8 106.5,93 114.6,93 	"/>
	<path class="st1" d="M8.4,93v3.8H34v-3.7C34,93,8.4,93,8.4,93z"/>
	<path class="st1" d="M78.1,93c-0.3,1.2-0.5,2.7-1.4,3.8h-0.3H37.3V93H78.1z"/>
	<polygon class="st1" points="110.8,103.8 110.3,103.8 109,100.1 112.2,100.1 	"/>
	<g class="st2">
		<rect x="121.7" y="100.1" class="st3" width="18" height="3.8"/>
	</g>
	<path class="st1" d="M37.3,103.8V100c0,0,36.9,0,37,0c-2.5,2.4-5.9,3.7-9.5,3.8H37.3"/>
	<g class="st2">
		<rect x="81.5" y="100.1" class="st3" width="18" height="3.8"/>
	</g>
	<path class="st1" d="M34,100.1v3.7H8.5V100C8.5,100,33.9,100.1,34,100.1z"/>
</g>
<g class="st0">
	<path class="st1" d="M119.9,71.9L78.4,30.5c-2.4-2.4-6.3-2.4-8.6,0l-8.6,8.6L72.1,50c2.5-0.9,5.4-0.3,7.5,1.7c2,2,2.6,5,1.7,7.5
		l10.5,10.5c2.5-0.9,5.5-0.3,7.5,1.7c2.8,2.8,2.8,7.4,0,10.3c-2.8,2.8-7.4,2.8-10.3,0c-2.1-2.1-2.7-5.3-1.6-7.9l-9.8-9.8v25.8
		c0.7,0.3,1.3,0.8,1.9,1.4c2.8,2.8,2.8,7.4,0,10.3c-2.8,2.8-7.4,2.8-10.3,0c-2.8-2.8-2.8-7.4,0-10.3c0.7-0.7,1.5-1.2,2.4-1.6V63.6
		c-0.9-0.4-1.7-0.9-2.4-1.6c-2.2-2.2-2.7-5.3-1.6-8L56.9,43.3L28.5,71.7c-2.4,2.4-2.4,6.3,0,8.6L70,121.8c2.4,2.4,6.3,2.4,8.6,0
		l41.3-41.3C122.3,78.2,122.3,74.3,119.9,71.9z"/>
</g>
<g>
	<path class="st3" d="M118.5,77.2L77.1,35.8c-2.4-2.4-6.3-2.4-8.6,0l-8.6,8.6l10.9,10.9c2.5-0.9,5.4-0.3,7.5,1.7c2,2,2.6,5,1.7,7.5
		l10.5,10.5c2.5-0.9,5.5-0.3,7.5,1.7c2.8,2.8,2.8,7.4,0,10.3c-2.8,2.8-7.4,2.8-10.3,0c-2.1-2.1-2.7-5.3-1.6-7.9l-9.8-9.8v25.8
		c0.7,0.3,1.3,0.8,1.9,1.4c2.8,2.8,2.8,7.4,0,10.3c-2.8,2.8-7.4,2.8-10.3,0c-2.8-2.8-2.8-7.4,0-10.3c0.7-0.7,1.5-1.2,2.4-1.6V68.9
		c-0.9-0.4-1.7-0.9-2.4-1.6c-2.2-2.2-2.7-5.3-1.6-8L55.6,48.6L27.2,77c-2.4,2.4-2.4,6.3,0,8.6l41.5,41.4c2.4,2.4,6.3,2.4,8.6,0
		l41.3-41.3C120.9,83.5,120.9,79.6,118.5,77.2z"/>
</g>
</svg>
