<?xml version="1.0" encoding="utf-8"?>
<!-- Generator: Adobe Illustrator 22.1.0, SVG Export Plug-In . SVG Version: 6.00 Build 0)  -->
<svg version="1.1" id="Layer_1" xmlns="http://www.w3.org/2000/svg" xmlns:xlink="http://www.w3.org/1999/xlink" x="0px" y="0px"
	 viewBox="0 0 150 150" style="enable-background:new 0 0 150 150;" xml:space="preserve">
<style type="text/css">
	.st0{display:none;}
	.st1{fill:#FFFFFF;}
</style>
<rect x="0.2" y="0.5" class="st0" width="149.5" height="149"/>
<rect x="0.3" y="0" class="st0" width="149.3" height="150"/>
<g>
	<polygon class="st1" points="80.5,45.6 74.7,45.6 74.7,51.3 80.5,51.3 	"/>
	<path class="st1" d="M82.5,56.9h-7.8v-5.7h-5.8v-5.7h5.8L61.8,26.9h7.4v-5H32.8v5H41l25.1,36.3L48.7,86.8c-1.8,2.6-2.6,3.9-5.4,5.5
		c-2.3,1.3-5.8,2.9-8.6,2.9h-2.4v4.5h27.7v-4.5h-5.5c-1.3,0-2.3-0.6-2.7-1.9c-0.3-1.1,0.1-2.4,0.6-3.3c5.4-7.6,11-15,16.4-22.5
		l18.8,27.3h-7.7v5h36.5v-5h-7.8L82.5,56.9L82.5,56.9z"/>
	<polygon class="st1" points="98,27.6 92.1,27.6 92.1,33.3 98,33.3 	"/>
	<polygon class="st1" points="92.1,21.9 86.3,21.9 86.3,27.6 92.1,27.6 	"/>
	<polygon class="st1" points="98,21.9 109.6,21.9 109.6,27.6 98,27.6 	"/>
	<polygon class="st1" points="92.1,33.3 92.1,44.7 86.3,44.7 86.3,39 80.5,39 80.5,33.3 	"/>
	<path class="st1" d="M70.8,114.9l6.8,11.9h3.9l-5.7-10.1c0.6-0.1,1.3-0.2,1.9-0.5c1.1-0.4,1.5-0.8,2-1.8c0.5-1,0.5-2.1,0.6-3.2
		c0.1-1.3,0-2.4-0.4-3.5c-0.4-1-1.1-1.7-2-2c-1.1-0.4-2.4-0.4-3.4-0.4h-8.1v21.7H70c0-18.4,0-4.1,0-19.9h4.2c0.8,0,1.4-0.1,1.9,0.5
		c0.9,1,1,2,1.1,3.3s-0.1,3-1.3,3.8c-0.8,0.4-1.5,0.4-2.4,0.4L70.8,114.9L70.8,114.9z M91.8,125.5c1.7,0,2.9-0.2,4-1.4
		c0.6-0.6,1.1-1.8,1.3-2.7c0.2-1.7,0.2-3.7,0.2-5.6c0-1.9,0-4-0.2-5.6c-0.1-1-0.5-2-1.3-2.7c-1.1-1.1-2.4-1.4-4-1.4
		c-1.7,0-2.9,0.2-4,1.4c-0.6,0.6-1.1,1.8-1.3,2.7c-0.2,1.7-0.2,3.7-0.2,5.6s0,4,0.2,5.6c0.1,1,0.5,2,1.3,2.7
		C88.9,125.3,90.1,125.5,91.8,125.5L91.8,125.5z M91.8,104.6c1.3,0,2.6,0.1,3.8,0.4s2.4,0.8,3.1,1.6c0.8,0.8,1.4,1.9,1.6,2.9
		c0.6,2,0.6,4.1,0.6,6.3c0,2.3,0,4.3-0.6,6.3c-0.3,1-0.9,2.1-1.6,2.9c-0.9,0.9-2,1.3-3.1,1.6c-1.2,0.3-2.5,0.4-3.8,0.4
		s-2.6-0.1-3.8-0.4c-1.2-0.3-2.4-0.8-3.1-1.6c-0.8-0.8-1.3-1.9-1.6-2.9c-0.5-2-0.6-4.1-0.6-6.3c0-2.3,0.1-4.3,0.6-6.3
		c0.3-1,0.9-2.1,1.6-2.9c0.9-0.9,2-1.3,3.1-1.6C89.3,104.7,90.6,104.6,91.8,104.6L91.8,104.6z M102.1,105.1h3.9l4.2,7.4l4.5-7.4h2.1
		l-5.5,9.3l6.9,12.2h-4l-4.9-8.8l-5.2,8.8h-2.6l6.5-10.8L102.1,105.1L102.1,105.1z M63,107h-9.7v7.9H63v1.8h-9.7v8.4H63v1.8H49.9
		v-21.7H63L63,107L63,107z M32.5,105.1h3.9l4.2,7.4l4.5-7.4h2.1l-5.5,9.3l6.9,12.2h-4l-4.9-8.8l-5.2,8.8H32l6.5-10.8L32.5,105.1
		L32.5,105.1z"/>
</g>
</svg>
