<?xml version="1.0" encoding="utf-8"?>
<!-- Generator: Adobe Illustrator 22.1.0, SVG Export Plug-In . SVG Version: 6.00 Build 0)  -->
<svg version="1.1" id="Layer_1" xmlns="http://www.w3.org/2000/svg" xmlns:xlink="http://www.w3.org/1999/xlink" x="0px" y="0px"
	 viewBox="0 0 150 150" style="enable-background:new 0 0 150 150;" xml:space="preserve">
<style type="text/css">
	.st0{display:none;fill-rule:evenodd;clip-rule:evenodd;}
	.st1{fill:#FFFFFF;}
	.st2{fill-rule:evenodd;clip-rule:evenodd;fill:#FFFFFF;}
</style>
<rect x="-0.5" y="0.5" class="st0" width="149" height="149"/>
<g>
	<polygon class="st2" points="79.4,47.9 74,47.9 74,53.2 79.4,53.2 79.4,47.9 	"/>
	<path class="st2" d="M81.3,58.5H74v-5.3h-5.4v-5.3H74L62,30.5h6.9v-4.7H35v4.7h7.6L66,64.3l-16.2,22c-1.7,2.4-2.4,3.6-5,5.1
		c-2.1,1.2-5.4,2.7-8,2.7h-2.2v4.2h25.8v-4.2h-5.1c-1.2,0-2.1-0.6-2.5-1.8c-0.3-1,0.1-2.2,0.6-3.1c5-7.1,10.2-14,15.3-21l17.5,25.4
		h-7.2v4.7H113v-4.7h-7.3L81.3,58.5L81.3,58.5z"/>
	<polygon class="st2" points="95.7,31.2 90.2,31.2 90.2,36.5 95.7,36.5 95.7,31.2 	"/>
	<polygon class="st2" points="90.2,25.9 84.8,25.9 84.8,31.2 90.2,31.2 90.2,25.9 	"/>
	<polygon class="st2" points="95.7,25.9 106.5,25.9 106.5,31.2 95.7,31.2 95.7,25.9 	"/>
	<polygon class="st2" points="90.2,36.5 90.2,47.1 84.8,47.1 84.8,41.8 79.4,41.8 79.4,36.5 90.2,36.5 	"/>
	<path class="st2" d="M70.4,112.5l6.3,11.1h3.6l-5.3-9.4c0.6-0.1,1.2-0.2,1.8-0.5c1-0.4,1.4-0.7,1.9-1.7c0.5-0.9,0.5-2,0.6-3
		c0.1-1.2,0-2.2-0.4-3.3c-0.4-0.9-1-1.6-1.9-1.9c-1-0.4-2.2-0.4-3.2-0.4h-7.5v20.2h3.3c0-17.1,0-3.8,0-18.5h3.9
		c0.7,0,1.3-0.1,1.8,0.5c0.8,0.9,0.9,1.9,1,3.1c0.1,1.2-0.1,2.8-1.2,3.5c-0.7,0.4-1.4,0.4-2.2,0.4L70.4,112.5L70.4,112.5z
		 M89.9,122.4c1.6,0,2.7-0.2,3.7-1.3c0.6-0.6,1-1.7,1.2-2.5c0.2-1.6,0.2-3.4,0.2-5.2c0-1.8,0-3.7-0.2-5.2c-0.1-0.9-0.5-1.9-1.2-2.5
		c-1-1-2.2-1.3-3.7-1.3c-1.6,0-2.7,0.2-3.7,1.3c-0.6,0.6-1,1.7-1.2,2.5c-0.2,1.6-0.2,3.4-0.2,5.2c0,1.8,0,3.7,0.2,5.2
		c0.1,0.9,0.5,1.9,1.2,2.5C87.2,122.2,88.4,122.4,89.9,122.4L89.9,122.4z M89.9,102.9c1.2,0,2.4,0.1,3.5,0.4
		c1.1,0.3,2.2,0.7,2.9,1.5c0.7,0.7,1.3,1.8,1.5,2.7c0.6,1.9,0.6,3.8,0.6,5.9c0,2.1,0,4-0.6,5.9c-0.3,0.9-0.8,2-1.5,2.7
		c-0.8,0.8-1.9,1.2-2.9,1.5c-1.1,0.3-2.3,0.4-3.5,0.4c-1.2,0-2.4-0.1-3.5-0.4c-1.1-0.3-2.2-0.7-2.9-1.5c-0.7-0.7-1.2-1.8-1.5-2.7
		c-0.5-1.9-0.6-3.8-0.6-5.9c0-2.1,0.1-4,0.6-5.9c0.3-0.9,0.8-2,1.5-2.7c0.8-0.8,1.9-1.2,2.9-1.5C87.6,103,88.8,102.9,89.9,102.9
		L89.9,102.9z M99.5,103.4h3.6l3.9,6.9l4.2-6.9h2l-5.1,8.7l6.4,11.4h-3.7l-4.6-8.2l-4.8,8.2h-2.4l6.1-10.1L99.5,103.4L99.5,103.4z
		 M63.1,105.1h-9v7.4h9v1.7h-9v7.8h9v1.7H50.9v-20.2h12.2V105.1L63.1,105.1z M34.7,103.4h3.6l3.9,6.9l4.2-6.9h2l-5.1,8.7l6.4,11.4
		h-3.7l-4.6-8.2l-4.8,8.2h-2.4l6.1-10.1L34.7,103.4L34.7,103.4z"/>
</g>
</svg>
