<?xml version="1.0" encoding="utf-8"?>
<!-- Generator: Adobe Illustrator 22.1.0, SVG Export Plug-In . SVG Version: 6.00 Build 0)  -->
<svg version="1.1" id="Layer_1" xmlns="http://www.w3.org/2000/svg" xmlns:xlink="http://www.w3.org/1999/xlink" x="0px" y="0px"
	 viewBox="0 0 150 150" style="enable-background:new 0 0 150 150;" xml:space="preserve">
<style type="text/css">
	.st0{display:none;}
	.st1{fill:#FFFFFF;}
</style>
<rect x="-0.2" y="0.2" class="st0" width="150.2" height="149.7"/>
<g>
	<polygon class="st1" points="140.7,52.6 118.9,52.6 120.2,48.8 140.7,48.8 	"/>
	<path class="st1" d="M82.5,48.8h20.3l1.3,3.8H82.5C82.5,52.6,82.4,48.8,82.5,48.8z"/>
	<path class="st1" d="M66.3,48.8c3.3,0.3,6.3,1.5,8.7,3.8H38.2v-3.8H66.3z"/>
	<g>
		<rect x="9.4" y="48.8" class="st1" width="25.6" height="3.8"/>
	</g>
	<path class="st1" d="M140.7,59.7h-24.4l1.3-3.7h23L140.7,59.7L140.7,59.7z"/>
	<polygon class="st1" points="106.6,59.7 82.5,59.7 82.5,55.9 105.3,55.9 	"/>
	<path class="st1" d="M77.9,55.9c0.5,1.2,1.1,2.3,1.1,3.7H38.3v-3.7H77.9z"/>
	<g>
		<rect x="9.4" y="55.9" class="st1" width="25.6" height="3.7"/>
	</g>
	<polygon class="st1" points="113.9,66.8 115.2,63 133.5,63 133.5,66.7 	"/>
	<polygon class="st1" points="107.8,63 109.1,66.8 89.6,66.8 89.6,63 	"/>
	<path class="st1" d="M79.3,63c0,1.3-0.2,2.6-0.5,3.8H67.6V63H79.3z"/>
	<g>
		<rect x="16.5" y="63" class="st1" width="11" height="3.8"/>
	</g>
	<g>
		<rect x="45.7" y="63" class="st1" width="11" height="3.8"/>
	</g>
	<path class="st1" d="M100.4,70.8v2.9H89.6v-3.8h20.6l1.3,3.5l1.2-3.5h20.7v3.8h-10.7v-2.9l-1,2.9h-20.3L100.4,70.8z"/>
	<path class="st1" d="M45.7,69.9h31.5l0,0c-0.7,1.3-1.9,2.8-3.1,3.8H45.7C45.7,73.7,45.7,69.9,45.7,69.9z"/>
	<g>
		<rect x="16.5" y="69.9" class="st1" width="11" height="3.8"/>
	</g>
	<g>
		<rect x="122.7" y="77" class="st1" width="10.7" height="3.7"/>
	</g>
	<path class="st1" d="M100.4,77H89.6v3.7h10.8C100.4,80.8,100.5,77,100.4,77z"/>
	<path class="st1" d="M120.6,77l-1.3,3.7H104l-1.3-3.8h17.9V77z"/>
	<path class="st1" d="M45.7,77H74c1.3,1.1,2.5,2.4,3.4,3.8c0.1,0-31.7,0-31.7,0V77z"/>
	<path class="st1" d="M27.5,80.8V77h-11v3.7C16.6,80.8,27.5,80.8,27.5,80.8z"/>
	<g>
		<rect x="122.7" y="84.1" class="st1" width="10.7" height="3.8"/>
	</g>
	<g>
		<rect x="89.6" y="84.1" class="st1" width="10.8" height="3.7"/>
	</g>
	<path class="st1" d="M116.7,87.8L118,84h-13l1.3,3.8C106.3,87.8,116.7,87.9,116.7,87.8z"/>
	<path class="st1" d="M45.7,87.8c0,0,0-3.7,0-3.8h11.1v3.8C56.8,87.8,45.7,87.8,45.7,87.8z"/>
	<path class="st1" d="M78.9,84.1c0.5,1.1,0.6,2.5,0.7,3.8H67.8v-3.8H78.9z"/>
	<g>
		<rect x="16.6" y="84.1" class="st1" width="11" height="3.7"/>
	</g>
	<g>
		<rect x="122.7" y="91" class="st1" width="18" height="3.8"/>
	</g>
	<g>
		<rect x="82.5" y="91" class="st1" width="18" height="3.8"/>
	</g>
	<polygon class="st1" points="114.3,94.8 108.8,94.8 107.5,91 115.6,91 	"/>
	<path class="st1" d="M9.4,91v3.8H35v-3.7C35,91,9.4,91,9.4,91z"/>
	<path class="st1" d="M79.1,91c-0.3,1.2-0.5,2.7-1.4,3.8h-0.3H38.3V91H79.1z"/>
	<polygon class="st1" points="111.8,101.8 111.3,101.8 110,98.1 113.2,98.1 	"/>
	<g>
		<rect x="122.7" y="98.1" class="st1" width="18" height="3.8"/>
	</g>
	<path class="st1" d="M38.3,101.8V98c0,0,36.9,0,37,0c-2.5,2.4-5.9,3.7-9.5,3.8H38.3"/>
	<g>
		<rect x="82.5" y="98.1" class="st1" width="18" height="3.8"/>
	</g>
	<path class="st1" d="M35,98.1v3.7H9.5V98C9.5,98,34.9,98.1,35,98.1z"/>
</g>
</svg>
