<?xml version="1.0" encoding="utf-8"?>
<!-- Generator: Adobe Illustrator 22.1.0, SVG Export Plug-In . SVG Version: 6.00 Build 0)  -->
<svg version="1.1" id="Layer_1" xmlns="http://www.w3.org/2000/svg" xmlns:xlink="http://www.w3.org/1999/xlink" x="0px" y="0px"
	 viewBox="0 0 150 150" style="enable-background:new 0 0 150 150;" xml:space="preserve">
<style type="text/css">
	.st0{display:none;}
	.st1{fill:#FFFFFF;}
</style>
<rect x="-0.3" y="0.5" class="st0" width="150.3" height="149"/>
<g>
	<path class="st1" d="M88,41.7c3.3-4.2,5.8-10,5.2-15.8c-5,0.2-10.9,3.3-14.5,7.6c-3.2,3.6-5.9,9.7-5.2,15.3
		C78.9,49.2,84.5,46,88,41.7L88,41.7z"/>
	<path class="st1" d="M102.5,87.5H34.4l0,0H102.5l-0.1-0.1c-1.6-3.1-2.3-8-1.7-12v-0.1l0,0c0.6-5.2,4-10.5,6.7-12.5
		c0,0,0.1,0,0.1-0.1l0,0l0,0l0,0c0.6-0.6,2.3-2,3.4-2.8c-4.3-6.2-11.1-9.6-18.2-9.7c-7.1-0.6-14.5,4.5-18.4,4.4
		c-3.8,0.1-9.7-4.5-15.8-4.2h-0.1c-0.1,0-1.2,0.1-1.2,0.1c-8.1,0.2-15.3,5-19.5,12.3l0,0l0,0l0,0c-1.7,2.6-3.5,8.7-3.8,12.6l0,0v0.2
		c-0.4,2.5,0,8.9,0.4,12.1l0,0c0,0.1,0,0.1,0,0.2l0,0c0.3,3.1,2,9.2,3.1,12.2l0,0l0,0c1.1,3.2,4.4,9.4,6.3,12.5l0,0l0,0
		c4.2,5.9,9.1,12.7,15.5,12.4c6.2-0.2,8.5-4.2,16-4.1c7.5-0.1,9.6,3.8,16.2,4c6.8-0.3,10.9-6.2,15.1-12.3c2.1-3.1,5.2-9.1,6.3-12.6
		l0,0c0.1-0.4,0.3-0.9,0.4-1.4C109.2,97.2,104.2,91.3,102.5,87.5L102.5,87.5z"/>
</g>
</svg>
