<svg xmlns:xlink="http://www.w3.org/1999/xlink" xmlns="http://www.w3.org/2000/svg" height="93" width="86"><rect id="backgroundrect" width="100%" height="100%" x="0" y="0" fill="none" stroke="none"/>
    
    
<g class="currentLayer" style=""><title>Layer 1</title><path stroke-linejoin="miter" stroke-linecap="butt" stroke-width="1" stroke="#29ceae" fill="none" opacity="0.93" fill-rule="evenodd" d="M 83.78 39.53 C 83.78 39.53 83.78 39.53 83.78 39.53 C 83.78 39.53 83.78 89.02 83.78 89.02 C 83.78 89.02 82.79 89.02 82.79 89.02 C 82.79 89.02 82.79 39.62 82.79 39.62 C 82.79 39.62 0.01 1.38 0.01 1.38 C 0.01 1.38 0.42 0.48 0.42 0.48 C 0.42 0.48 83.99 39.08 83.99 39.08 C 83.99 39.08 83.78 39.53 83.78 39.53 Z" id="svg_1" class="" stroke-opacity="1"/><path fill="#71c2e4" fill-rule="evenodd" d="M83.5,87.16793098926544 C84.88,87.16793098926544 86,88.27793098926544 86,89.65793098926544 C86,91.02793098926544 84.88,92.13793098926544 83.5,92.13793098926544 C82.12,92.13793098926544 81,91.02793098926544 81,89.65793098926544 C81,88.27793098926544 82.12,87.16793098926544 83.5,87.16793098926544 z" id="svg_2" class="" stroke-opacity="1" stroke="#29ceae" opacity="0.93"/></g></svg>