<svg xmlns:xlink="http://www.w3.org/1999/xlink" xmlns="http://www.w3.org/2000/svg" height="93" width="86" style=""><rect id="backgroundrect" width="100%" height="100%" x="0" y="0" fill="none" stroke="none"/>
    
    
<g class="currentLayer" style=""><title>Layer 1</title><path stroke-linejoin="miter" stroke-linecap="butt" stroke-width="1" stroke="#29ceae" fill="none" opacity="0.57" fill-rule="evenodd" d="M 85.99 92.08 C 85.99 92.08 85.58 92.99 85.58 92.99 C 85.58 92.99 2.01 54.19 2.01 54.19 C 2.01 54.19 2.22 53.74 2.22 53.74 C 2.22 53.74 2.22 4 2.22 4 C 2.22 4 3.21 4 3.21 4 C 3.21 4 3.21 53.65 3.21 53.65 C 3.21 53.65 85.99 92.08 85.99 92.08 Z" id="svg_1" class="" stroke-opacity="1"/><path fill="#71c2e4" fill-rule="evenodd" d="M 2.5 0 C 3.88 0 5 1.12 5 2.5 C 5 3.88 3.88 5 2.5 5 C 1.12 5 0 3.88 0 2.5 C 0 1.12 1.12 0 2.5 0 Z" id="svg_2" class="" stroke-opacity="1" stroke="#29ceae"/></g></svg>