<!--?xml version="1.0" encoding="utf-8"?-->
<!-- Generator: Adobe Illustrator 22.1.0, SVG Export Plug-In . SVG Version: 6.00 Build 0)  -->
<svg version="1.1" id="Layer_4" xmlns="http://www.w3.org/2000/svg" xmlns:xlink="http://www.w3.org/1999/xlink" x="0px" y="0px" viewBox="0 0 3000 1394" style="" xml:space="preserve" class="start">
<style type="text/css">
	.st0{opacity:0.7;fill:none;stroke:#333;stroke-width:3;stroke-linecap:round;stroke-miterlimit:10;}
</style>
<path class="st0 BBWYjGpY_0" d="M252.8,445.8V505c0,21.5-17.5,39-39,39s-39-17.5-39-39v-61.2c0-21.5-17.5-39-39-39H8.7 M8.7,1204.9l240.7,0.3
	c21.5,0.1,38.9,17.6,38.9,39.1l-0.2,29.2"></path>
<path class="st0 BBWYjGpY_1" d="M7.8,487.4h268.5c21.5,0,39,17.5,39,39V642c0,21.5,17.5,39,39,39H440 M2986,480.9h-173.2c-21.5,0-39-17.5-39-39
	v0V298.8c0.1-21.4-17.2-38.9-38.7-39h-29.9 M306.4,872.2h-91.2c-21.5,0-39,17.5-39,39v120.3c0.1,21.5-17.3,38.9-38.7,39H8.7
	 M2986,104.2h-298.6c-21.5,0-39-17.5-39-39c0,0,0,0,0,0V40.9 M10,220.7h394.9c21.5,0,39-17.5,39-39v-41.2"></path>
<path class="st0 BBWYjGpY_2" d="M2638.3,30.9A10,10 0,1,1 2658.3,30.9A10,10 0,1,1 2638.3,30.9"></path>
<path class="st0 BBWYjGpY_3" d="M433.8,130A10,10 0,1,1 453.8,130A10,10 0,1,1 433.8,130"></path>
<path class="st0 BBWYjGpY_4" d="M281.9,16.2A10,10 0,1,1 301.9,16.2A10,10 0,1,1 281.9,16.2"></path>
<path class="st0 BBWYjGpY_5" d="M8.7,16.2h270.6"></path>
<path class="st0 BBWYjGpY_6" d="M2698.9,700.6A10,10 0,1,1 2718.9,700.6A10,10 0,1,1 2698.9,700.6"></path>
<path class="st0 BBWYjGpY_7" d="M2695.6,862.8A10,10 0,1,1 2715.6,862.8A10,10 0,1,1 2695.6,862.8"></path>
<path class="st0 BBWYjGpY_8" d="M2986,700.6h-264.5"></path>
<path class="st0 BBWYjGpY_9" d="M232.8,766.3A10,10 0,1,1 252.8,766.3A10,10 0,1,1 232.8,766.3"></path>
<path class="st0 BBWYjGpY_10" d="M2685.2,259.8A10,10 0,1,1 2705.2,259.8A10,10 0,1,1 2685.2,259.8"></path>
<path class="st0 BBWYjGpY_11" d="M2485.2,330.1A10,10 0,1,1 2505.2,330.1A10,10 0,1,1 2485.2,330.1"></path>
<path class="st0 BBWYjGpY_12" d="M8.7,766.3h224.1"></path>
<path class="st0 BBWYjGpY_13" d="M225.6,357.1A10,10 0,1,1 245.6,357.1A10,10 0,1,1 225.6,357.1"></path>
<path class="st0 BBWYjGpY_14" d="M440,680.9A10,10 0,1,1 460,680.9A10,10 0,1,1 440,680.9"></path>
<path class="st0 BBWYjGpY_15" d="M309.4,872.2A10,10 0,1,1 329.4,872.2A10,10 0,1,1 309.4,872.2"></path>
<path class="st0 BBWYjGpY_16" d="M2654.2,1153.9h70.6c21.5,0,39,17.5,39,39v0v120.2c-0.1,21.5,17.3,38.9,38.7,39h185.6"></path>
<path class="st0 BBWYjGpY_17" d="M2631.3,1153.9A10,10 0,1,1 2651.3,1153.9A10,10 0,1,1 2631.3,1153.9"></path>
<path class="st0 BBWYjGpY_18" d="M278.3,1283.5A10,10 0,1,1 298.3,1283.5A10,10 0,1,1 278.3,1283.5"></path>
<path class="st0 BBWYjGpY_19" d="M242.8,434.8A10,10 0,1,1 262.8,434.8A10,10 0,1,1 242.8,434.8"></path>
<path class="st0 BBWYjGpY_20" d="M11.5,357.1h214.1"></path>
<path class="st0 BBWYjGpY_21" d="M225.6,1000.1A10,10 0,1,1 245.6,1000.1A10,10 0,1,1 225.6,1000.1"></path>
<path class="st0 BBWYjGpY_22" d="M8.7,1000.1h216.9 M2988.1,1006.5h-243.5c-21.5,0-39-17.5-39-39v0v-94.7"></path>
<path class="st0 BBWYjGpY_23" d="M2986,952h-447.4c-21.5,0-39,17.5-39,39v0v41.3"></path>
<path class="st0 BBWYjGpY_24" d="M2489.7,1042.8A10,10 0,1,1 2509.7,1042.8A10,10 0,1,1 2489.7,1042.8"></path>
<path class="st0 BBWYjGpY_25" d="M2789.6,190.1A10,10 0,1,1 2809.6,190.1A10,10 0,1,1 2789.6,190.1"></path>
<path class="st0 BBWYjGpY_26" d="M2987.4,190.1h-177.8 M2495.2,340.1V378c0,21.5,17.5,39,39,39l0,0H2986"></path>
<style data-made-with="vivus-instant">.BBWYjGpY_0{stroke-dasharray:763 765;stroke-dashoffset:764;}.start .BBWYjGpY_0{animation:BBWYjGpY_draw_0 6400ms linear 0ms infinite,BBWYjGpY_fade 6400ms linear 0ms infinite;}.BBWYjGpY_1{stroke-dasharray:2405 2407;stroke-dashoffset:2406;}.start .BBWYjGpY_1{animation:BBWYjGpY_draw_1 6400ms linear 0ms infinite,BBWYjGpY_fade 6400ms linear 0ms infinite;}.BBWYjGpY_2{stroke-dasharray:63 65;stroke-dashoffset:64;}.start .BBWYjGpY_2{animation:BBWYjGpY_draw_2 6400ms linear 0ms infinite,BBWYjGpY_fade 6400ms linear 0ms infinite;}.BBWYjGpY_3{stroke-dasharray:63 65;stroke-dashoffset:64;}.start .BBWYjGpY_3{animation:BBWYjGpY_draw_3 6400ms linear 0ms infinite,BBWYjGpY_fade 6400ms linear 0ms infinite;}.BBWYjGpY_4{stroke-dasharray:63 65;stroke-dashoffset:64;}.start .BBWYjGpY_4{animation:BBWYjGpY_draw_4 6400ms linear 0ms infinite,BBWYjGpY_fade 6400ms linear 0ms infinite;}.BBWYjGpY_5{stroke-dasharray:271 273;stroke-dashoffset:272;}.start .BBWYjGpY_5{animation:BBWYjGpY_draw_5 6400ms linear 0ms infinite,BBWYjGpY_fade 6400ms linear 0ms infinite;}.BBWYjGpY_6{stroke-dasharray:63 65;stroke-dashoffset:64;}.start .BBWYjGpY_6{animation:BBWYjGpY_draw_6 6400ms linear 0ms infinite,BBWYjGpY_fade 6400ms linear 0ms infinite;}.BBWYjGpY_7{stroke-dasharray:63 65;stroke-dashoffset:64;}.start .BBWYjGpY_7{animation:BBWYjGpY_draw_7 6400ms linear 0ms infinite,BBWYjGpY_fade 6400ms linear 0ms infinite;}.BBWYjGpY_8{stroke-dasharray:265 267;stroke-dashoffset:266;}.start .BBWYjGpY_8{animation:BBWYjGpY_draw_8 6400ms linear 0ms infinite,BBWYjGpY_fade 6400ms linear 0ms infinite;}.BBWYjGpY_9{stroke-dasharray:63 65;stroke-dashoffset:64;}.start .BBWYjGpY_9{animation:BBWYjGpY_draw_9 6400ms linear 0ms infinite,BBWYjGpY_fade 6400ms linear 0ms infinite;}.BBWYjGpY_10{stroke-dasharray:63 65;stroke-dashoffset:64;}.start .BBWYjGpY_10{animation:BBWYjGpY_draw_10 6400ms linear 0ms infinite,BBWYjGpY_fade 6400ms linear 0ms infinite;}.BBWYjGpY_11{stroke-dasharray:63 65;stroke-dashoffset:64;}.start .BBWYjGpY_11{animation:BBWYjGpY_draw_11 6400ms linear 0ms infinite,BBWYjGpY_fade 6400ms linear 0ms infinite;}.BBWYjGpY_12{stroke-dasharray:225 227;stroke-dashoffset:226;}.start .BBWYjGpY_12{animation:BBWYjGpY_draw_12 6400ms linear 0ms infinite,BBWYjGpY_fade 6400ms linear 0ms infinite;}.BBWYjGpY_13{stroke-dasharray:63 65;stroke-dashoffset:64;}.start .BBWYjGpY_13{animation:BBWYjGpY_draw_13 6400ms linear 0ms infinite,BBWYjGpY_fade 6400ms linear 0ms infinite;}.BBWYjGpY_14{stroke-dasharray:63 65;stroke-dashoffset:64;}.start .BBWYjGpY_14{animation:BBWYjGpY_draw_14 6400ms linear 0ms infinite,BBWYjGpY_fade 6400ms linear 0ms infinite;}.BBWYjGpY_15{stroke-dasharray:63 65;stroke-dashoffset:64;}.start .BBWYjGpY_15{animation:BBWYjGpY_draw_15 6400ms linear 0ms infinite,BBWYjGpY_fade 6400ms linear 0ms infinite;}.BBWYjGpY_16{stroke-dasharray:499 501;stroke-dashoffset:500;}.start .BBWYjGpY_16{animation:BBWYjGpY_draw_16 6400ms linear 0ms infinite,BBWYjGpY_fade 6400ms linear 0ms infinite;}.BBWYjGpY_17{stroke-dasharray:63 65;stroke-dashoffset:64;}.start .BBWYjGpY_17{animation:BBWYjGpY_draw_17 6400ms linear 0ms infinite,BBWYjGpY_fade 6400ms linear 0ms infinite;}.BBWYjGpY_18{stroke-dasharray:63 65;stroke-dashoffset:64;}.start .BBWYjGpY_18{animation:BBWYjGpY_draw_18 6400ms linear 0ms infinite,BBWYjGpY_fade 6400ms linear 0ms infinite;}.BBWYjGpY_19{stroke-dasharray:63 65;stroke-dashoffset:64;}.start .BBWYjGpY_19{animation:BBWYjGpY_draw_19 6400ms linear 0ms infinite,BBWYjGpY_fade 6400ms linear 0ms infinite;}.BBWYjGpY_20{stroke-dasharray:215 217;stroke-dashoffset:216;}.start .BBWYjGpY_20{animation:BBWYjGpY_draw_20 6400ms linear 0ms infinite,BBWYjGpY_fade 6400ms linear 0ms infinite;}.BBWYjGpY_21{stroke-dasharray:63 65;stroke-dashoffset:64;}.start .BBWYjGpY_21{animation:BBWYjGpY_draw_21 6400ms linear 0ms infinite,BBWYjGpY_fade 6400ms linear 0ms infinite;}.BBWYjGpY_22{stroke-dasharray:617 619;stroke-dashoffset:618;}.start .BBWYjGpY_22{animation:BBWYjGpY_draw_22 6400ms linear 0ms infinite,BBWYjGpY_fade 6400ms linear 0ms infinite;}.BBWYjGpY_23{stroke-dasharray:550 552;stroke-dashoffset:551;}.start .BBWYjGpY_23{animation:BBWYjGpY_draw_23 6400ms linear 0ms infinite,BBWYjGpY_fade 6400ms linear 0ms infinite;}.BBWYjGpY_24{stroke-dasharray:63 65;stroke-dashoffset:64;}.start .BBWYjGpY_24{animation:BBWYjGpY_draw_24 6400ms linear 0ms infinite,BBWYjGpY_fade 6400ms linear 0ms infinite;}.BBWYjGpY_25{stroke-dasharray:63 65;stroke-dashoffset:64;}.start .BBWYjGpY_25{animation:BBWYjGpY_draw_25 6400ms linear 0ms infinite,BBWYjGpY_fade 6400ms linear 0ms infinite;}.BBWYjGpY_26{stroke-dasharray:729 731;stroke-dashoffset:730;}.start .BBWYjGpY_26{animation:BBWYjGpY_draw_26 6400ms linear 0ms infinite,BBWYjGpY_fade 6400ms linear 0ms infinite;}@keyframes BBWYjGpY_draw{100%{stroke-dashoffset:0;}}@keyframes BBWYjGpY_fade{0%{stroke-opacity:1;}92.1875%{stroke-opacity:1;}100%{stroke-opacity:0;}}@keyframes BBWYjGpY_draw_0{6.25%{stroke-dashoffset: 764}53.125%{ stroke-dashoffset: 0;}100%{ stroke-dashoffset: 0;}}@keyframes BBWYjGpY_draw_1{7.1514423076923075%{stroke-dashoffset: 2406}54.0264423076923%{ stroke-dashoffset: 0;}100%{ stroke-dashoffset: 0;}}@keyframes BBWYjGpY_draw_2{8.052884615384615%{stroke-dashoffset: 64}54.92788461538461%{ stroke-dashoffset: 0;}100%{ stroke-dashoffset: 0;}}@keyframes BBWYjGpY_draw_3{8.954326923076923%{stroke-dashoffset: 64}55.82932692307692%{ stroke-dashoffset: 0;}100%{ stroke-dashoffset: 0;}}@keyframes BBWYjGpY_draw_4{9.85576923076923%{stroke-dashoffset: 64}56.730769230769226%{ stroke-dashoffset: 0;}100%{ stroke-dashoffset: 0;}}@keyframes BBWYjGpY_draw_5{10.757211538461538%{stroke-dashoffset: 272}57.63221153846154%{ stroke-dashoffset: 0;}100%{ stroke-dashoffset: 0;}}@keyframes BBWYjGpY_draw_6{11.658653846153847%{stroke-dashoffset: 64}58.53365384615385%{ stroke-dashoffset: 0;}100%{ stroke-dashoffset: 0;}}@keyframes BBWYjGpY_draw_7{12.560096153846153%{stroke-dashoffset: 64}59.43509615384615%{ stroke-dashoffset: 0;}100%{ stroke-dashoffset: 0;}}@keyframes BBWYjGpY_draw_8{13.461538461538462%{stroke-dashoffset: 266}60.33653846153846%{ stroke-dashoffset: 0;}100%{ stroke-dashoffset: 0;}}@keyframes BBWYjGpY_draw_9{14.36298076923077%{stroke-dashoffset: 64}61.237980769230774%{ stroke-dashoffset: 0;}100%{ stroke-dashoffset: 0;}}@keyframes BBWYjGpY_draw_10{15.264423076923075%{stroke-dashoffset: 64}62.13942307692308%{ stroke-dashoffset: 0;}100%{ stroke-dashoffset: 0;}}@keyframes BBWYjGpY_draw_11{16.165865384615387%{stroke-dashoffset: 64}63.04086538461539%{ stroke-dashoffset: 0;}100%{ stroke-dashoffset: 0;}}@keyframes BBWYjGpY_draw_12{17.067307692307693%{stroke-dashoffset: 226}63.9423076923077%{ stroke-dashoffset: 0;}100%{ stroke-dashoffset: 0;}}@keyframes BBWYjGpY_draw_13{17.96875%{stroke-dashoffset: 64}64.84375%{ stroke-dashoffset: 0;}100%{ stroke-dashoffset: 0;}}@keyframes BBWYjGpY_draw_14{18.870192307692307%{stroke-dashoffset: 64}65.7451923076923%{ stroke-dashoffset: 0;}100%{ stroke-dashoffset: 0;}}@keyframes BBWYjGpY_draw_15{19.771634615384613%{stroke-dashoffset: 64}66.64663461538461%{ stroke-dashoffset: 0;}100%{ stroke-dashoffset: 0;}}@keyframes BBWYjGpY_draw_16{20.673076923076923%{stroke-dashoffset: 500}67.54807692307692%{ stroke-dashoffset: 0;}100%{ stroke-dashoffset: 0;}}@keyframes BBWYjGpY_draw_17{21.574519230769234%{stroke-dashoffset: 64}68.44951923076923%{ stroke-dashoffset: 0;}100%{ stroke-dashoffset: 0;}}@keyframes BBWYjGpY_draw_18{22.47596153846154%{stroke-dashoffset: 64}69.35096153846155%{ stroke-dashoffset: 0;}100%{ stroke-dashoffset: 0;}}@keyframes BBWYjGpY_draw_19{23.377403846153847%{stroke-dashoffset: 64}70.25240384615384%{ stroke-dashoffset: 0;}100%{ stroke-dashoffset: 0;}}@keyframes BBWYjGpY_draw_20{24.278846153846153%{stroke-dashoffset: 216}71.15384615384616%{ stroke-dashoffset: 0;}100%{ stroke-dashoffset: 0;}}@keyframes BBWYjGpY_draw_21{25.180288461538463%{stroke-dashoffset: 64}72.05528846153847%{ stroke-dashoffset: 0;}100%{ stroke-dashoffset: 0;}}@keyframes BBWYjGpY_draw_22{26.08173076923077%{stroke-dashoffset: 618}72.95673076923077%{ stroke-dashoffset: 0;}100%{ stroke-dashoffset: 0;}}@keyframes BBWYjGpY_draw_23{26.983173076923077%{stroke-dashoffset: 551}73.85817307692308%{ stroke-dashoffset: 0;}100%{ stroke-dashoffset: 0;}}@keyframes BBWYjGpY_draw_24{27.884615384615387%{stroke-dashoffset: 64}74.75961538461539%{ stroke-dashoffset: 0;}100%{ stroke-dashoffset: 0;}}@keyframes BBWYjGpY_draw_25{28.786057692307693%{stroke-dashoffset: 64}75.6610576923077%{ stroke-dashoffset: 0;}100%{ stroke-dashoffset: 0;}}@keyframes BBWYjGpY_draw_26{29.6875%{stroke-dashoffset: 730}76.5625%{ stroke-dashoffset: 0;}100%{ stroke-dashoffset: 0;}}</style></svg>
