<?xml version="1.0" encoding="utf-8"?>
<!-- Generator: Adobe Illustrator 23.0.1, SVG Export Plug-In . SVG Version: 6.00 Build 0)  -->
<svg version="1.1" id="Layer_1" xmlns="http://www.w3.org/2000/svg" xmlns:xlink="http://www.w3.org/1999/xlink" x="0px" y="0px"
	 viewBox="0 0 185 183" style="enable-background:new 0 0 185 183;" xml:space="preserve">
<style type="text/css">
	.st0{fill:#1FBDA2;}
	.st1{fill:#FFFFFF;}
	.st2{fill:#253143;}
</style>
<g>
	<g>
		<g>
			<path class="st0" d="M155.8,88.3c0-0.3,0-0.5,0-0.8c0-7.3,0-14.6,0-22c0-0.5-0.2-0.8-0.6-1c-6.6-3.5-13.3-7-19.9-10.5
				c-0.5-0.2-0.6-0.5-0.6-1c0-4.8,0-9.7,0-14.5c0-0.2,0-0.4,0-0.7c0.3,0.2,0.5,0.3,0.8,0.4c11.3,5.9,22.5,11.9,33.8,17.8
				c0.5,0.3,0.6,0.6,0.6,1.1c0,12.7,0,25.4,0,38.1c0,0.7,0.2,1,0.8,1.3c4.2,2.3,8.5,4.7,12.7,7c0.4,0.2,0.6,0.5,0.6,1
				c0,12.1,0,24.1,0,36.2c0,0.5-0.1,0.7-0.6,1c-11.4,6.3-22.7,12.6-34.1,18.9c-0.4,0.2-0.7,0.2-1.1,0c-11.3-6.3-22.7-12.6-34.1-18.9
				c-0.4-0.2-0.6-0.5-0.6-1c0-12.1,0-24.1,0-36.2c0-0.5,0.2-0.7,0.6-1c11.4-6.3,22.7-12.6,34.1-18.9c0.4-0.2,0.7-0.2,1.1,0
				c1.9,1.1,3.8,2.1,5.8,3.2C155.3,88,155.6,88.1,155.8,88.3z M162.2,108.1c-0.2-0.1-0.2-0.2-0.3-0.2c-4.3-2.4-8.5-4.7-12.8-7.1
				c-0.2-0.1-0.6-0.1-0.8,0c-4.2,2.3-8.3,4.6-12.5,6.9c-0.2,0.1-0.3,0.2-0.5,0.3c3.7,2,7.4,4,11,6c0.8,0.4,1.6,1.2,2.4,1.2
				c0.8,0,1.6-0.7,2.4-1.2C154.9,112.1,158.5,110.1,162.2,108.1z M141.7,140.9c0-0.2,0-0.2,0-0.3c0-4.2,0-8.4,0-12.5
				c0-0.5-0.2-0.6-0.6-0.8c-4.3-2.3-8.6-4.6-12.9-7c-0.2-0.1-0.4-0.2-0.7-0.3c0,4.3,0,8.5,0,12.7c0,0.2,0.3,0.5,0.5,0.6
				c2.5,1.4,5,2.8,7.5,4.2C137.7,138.6,139.7,139.7,141.7,140.9z M169.9,120c-0.2,0.1-0.3,0.1-0.4,0.2c-4.4,2.4-8.8,4.8-13.2,7.2
				c-0.4,0.2-0.4,0.5-0.4,0.8c0,4,0,8.1,0,12.1c0,0.2,0,0.3,0,0.5c0.1,0,0.2,0,0.2,0c4.5-2.5,9-5,13.5-7.5c0.2-0.1,0.3-0.4,0.3-0.6
				C169.9,128.5,169.9,124.3,169.9,120z"/>
		</g>
		<g>
			<path class="st1" d="M50.3,37.8c0,0.3,0,0.6,0,0.8c0,4.8,0,9.6,0,14.4c0,0.5-0.1,0.8-0.6,1.1c-6.6,3.5-13.2,7-19.8,10.4
				c-0.5,0.3-0.7,0.6-0.7,1.1c0,7.3,0,14.5,0,21.8c0,0.2,0,0.5,0,0.9c1-0.6,2-1.1,2.9-1.6c1.2-0.7,2.4-1.4,3.7-2
				c0.2-0.1,0.6-0.1,0.9,0c11.4,6.3,22.9,12.7,34.3,19.1c0.2,0.1,0.4,0.5,0.4,0.7c0,12.2,0,24.3,0,36.5c0,0.3-0.2,0.6-0.4,0.7
				c-11.4,6.4-22.9,12.7-34.3,19.1c-0.2,0.1-0.6,0.1-0.9,0c-11.4-6.3-22.8-12.7-34.3-19c-0.4-0.2-0.5-0.5-0.5-0.9
				c0-12.1,0-24.2,0-36.3c0-0.4,0.2-0.7,0.5-0.9c4.3-2.4,8.6-4.8,12.9-7.1c0.5-0.3,0.7-0.6,0.7-1.1c0-12.8,0-25.5,0-38.3
				c0-0.4,0-0.8,0.5-1c11.4-6,22.8-12,34.1-18C49.9,38,50,37.9,50.3,37.8z M22.7,108.1c4.4,2.4,8.7,4.7,12.9,7
				c0.4,0.2,0.7,0.2,1.1,0c4.1-2.2,8.2-4.4,12.3-6.7c0.2-0.1,0.3-0.2,0.6-0.3c-0.2-0.1-0.2-0.2-0.3-0.2c-4.2-2.4-8.5-4.7-12.7-7
				c-0.2-0.1-0.6-0.1-0.9,0.1c-3.3,1.8-6.6,3.6-9.9,5.5C24.8,106.9,23.8,107.4,22.7,108.1z M29.2,140.9c0-4.4,0-8.7,0-12.9
				c0-0.2-0.3-0.5-0.5-0.6c-4.3-2.4-8.6-4.7-13-7c-0.2-0.1-0.4-0.2-0.6-0.3c0,4.3,0,8.5,0,12.7c0,0.2,0.3,0.6,0.5,0.7
				c3.3,1.9,6.7,3.7,10,5.6C26.8,139.6,27.9,140.2,29.2,140.9z M57.3,120c-0.1,0-0.2,0.1-0.3,0.1c-4.5,2.4-8.9,4.8-13.4,7.3
				c-0.2,0.1-0.4,0.5-0.4,0.8c0,4.1,0,8.1,0,12.2c0,0.2,0,0.3,0,0.4c0.1,0,0.1,0,0.1,0c4.5-2.5,9.1-5,13.6-7.6
				c0.2-0.1,0.3-0.4,0.3-0.6C57.3,128.5,57.3,124.3,57.3,120z"/>
		</g>
		<g>
			<path class="st1" d="M57.3,38.9c0-6,0-12,0-18c0-0.5,0.1-0.8,0.6-1C69.3,13.6,80.6,7.3,91.9,1c0.4-0.2,0.7-0.2,1.1,0
				c11.4,6.3,22.8,12.7,34.2,19c0.4,0.2,0.5,0.4,0.5,0.9c0,12.1,0,24.2,0,36.2c0,0.4-0.1,0.7-0.5,0.9c-11.4,6.3-22.8,12.6-34.2,19
				c-0.4,0.2-0.7,0.2-1.1,0c-11.3-6.3-22.7-12.6-34-18.9c-0.5-0.3-0.6-0.5-0.6-1C57.3,50.9,57.3,44.9,57.3,38.9z M79.1,24.2
				c0.1,0.1,0.1,0.1,0.2,0.2c4.3,2.3,8.6,4.7,12.9,7c0.2,0.1,0.5,0.1,0.8-0.1c4.2-2.3,8.4-4.5,12.6-6.8c0.1-0.1,0.2-0.2,0.4-0.3
				c-0.1-0.1-0.2-0.1-0.3-0.2c-4.2-2.3-8.4-4.7-12.7-7c-0.4-0.2-0.7-0.1-1,0.1c-4.1,2.3-8.2,4.6-12.3,6.8
				C79.5,24,79.3,24.1,79.1,24.2z M85.5,57.1c0-4.4,0-8.7,0-12.9c0-0.2-0.3-0.6-0.5-0.7c-4.3-2.3-8.6-4.7-12.9-7
				c-0.2-0.1-0.4-0.2-0.6-0.3c0,0.2,0,0.3,0,0.4c0,4.1,0,8.2,0,12.2c0,0.5,0.2,0.6,0.5,0.8c4.3,2.4,8.6,4.8,12.9,7.2
				C85,56.9,85.2,57,85.5,57.1z M99.5,57.1c0.2-0.1,0.3-0.1,0.4-0.2c4.4-2.5,8.9-4.9,13.3-7.4c0.4-0.2,0.4-0.5,0.4-0.9
				c0-3.9,0-7.9,0-11.8c0-0.2,0-0.4,0-0.7c-0.2,0.1-0.3,0.1-0.3,0.1c-4.4,2.4-8.9,4.8-13.3,7.2c-0.2,0.1-0.4,0.5-0.4,0.7
				c-0.1,0.7,0,1.5,0,2.2C99.5,50,99.5,53.5,99.5,57.1z"/>
		</g>
		<g>
			<path class="st1" d="M133.2,160.4c-0.3,0.2-0.4,0.3-0.6,0.4c-13.2,7.3-26.3,14.6-39.5,22c-0.4,0.2-0.7,0.3-1.1,0
				c-13.2-7.3-26.4-14.7-39.6-22c-0.2-0.1-0.4-0.2-0.6-0.4c0.2-0.1,0.4-0.3,0.5-0.4c4.4-2.5,8.9-4.9,13.3-7.4c0.4-0.2,0.7-0.2,1.1,0
				c8.3,4.6,16.6,9.2,24.9,13.9c0.6,0.3,1,0.3,1.6,0c8.3-4.6,16.5-9.2,24.8-13.8c0.5-0.3,0.9-0.3,1.4,0c4.3,2.4,8.7,4.8,13,7.2
				C132.7,160.1,132.9,160.2,133.2,160.4z"/>
		</g>
		<g>
			<path d="M162.2,108.1c-3.7,2-7.4,4-11,6c-0.8,0.4-1.6,1.2-2.4,1.2c-0.8,0-1.6-0.7-2.4-1.2c-3.6-2-7.3-3.9-11-6
				c0.2-0.1,0.4-0.3,0.5-0.3c4.1-2.3,8.3-4.6,12.5-6.9c0.2-0.1,0.6-0.2,0.8,0c4.3,2.3,8.5,4.7,12.8,7.1
				C162,107.9,162.1,108,162.2,108.1z"/>
		</g>
		<g>
			<path d="M141.7,140.9c-2.1-1.1-4-2.2-6-3.3c-2.5-1.4-5-2.8-7.5-4.2c-0.2-0.1-0.5-0.4-0.5-0.6c0-4.2,0-8.4,0-12.7
				c0.3,0.1,0.5,0.2,0.7,0.3c4.3,2.3,8.6,4.6,12.9,7c0.3,0.2,0.6,0.3,0.6,0.8c0,4.2,0,8.4,0,12.5
				C141.8,140.6,141.7,140.7,141.7,140.9z"/>
		</g>
		<g>
			<path d="M169.9,120c0,4.3,0,8.5,0,12.7c0,0.2-0.2,0.5-0.3,0.6c-4.5,2.5-9,5-13.5,7.5c0,0-0.1,0-0.2,0c0-0.2,0-0.4,0-0.5
				c0-4,0-8.1,0-12.1c0-0.4,0-0.6,0.4-0.8c4.4-2.4,8.8-4.8,13.2-7.2C169.6,120.1,169.7,120.1,169.9,120z"/>
		</g>
		<g>
			<path d="M22.7,108.1c1.1-0.6,2.1-1.2,3.1-1.7c3.3-1.8,6.6-3.7,9.9-5.5c0.2-0.1,0.6-0.2,0.9-0.1c4.2,2.3,8.5,4.7,12.7,7
				c0.1,0.1,0.2,0.1,0.3,0.2c-0.2,0.1-0.4,0.2-0.6,0.3c-4.1,2.2-8.2,4.4-12.3,6.7c-0.4,0.2-0.7,0.2-1.1,0
				C31.4,112.7,27.1,110.4,22.7,108.1z"/>
		</g>
		<g>
			<path d="M29.2,140.9c-1.3-0.7-2.4-1.3-3.5-2c-3.3-1.9-6.7-3.7-10-5.6c-0.2-0.1-0.5-0.5-0.5-0.7c0-4.2,0-8.4,0-12.7
				c0.2,0.1,0.4,0.2,0.6,0.3c4.3,2.3,8.7,4.7,13,7c0.2,0.1,0.5,0.4,0.5,0.6C29.2,132.2,29.2,136.5,29.2,140.9z"/>
		</g>
		<g>
			<path d="M57.3,120c0,4.3,0,8.5,0,12.7c0,0.2-0.1,0.5-0.3,0.6c-4.5,2.5-9.1,5-13.6,7.6c0,0,0,0-0.1,0c0-0.1,0-0.3,0-0.4
				c0-4.1,0-8.1,0-12.2c0-0.3,0.2-0.7,0.4-0.8c4.5-2.4,8.9-4.9,13.4-7.3C57.1,120.1,57.2,120.1,57.3,120z"/>
		</g>
		<g>
			<path d="M79.1,24.2c0.2-0.1,0.4-0.2,0.6-0.3c4.1-2.3,8.2-4.5,12.3-6.8c0.3-0.2,0.6-0.3,1-0.1c4.2,2.4,8.4,4.7,12.7,7
				c0.1,0,0.2,0.1,0.3,0.2c-0.1,0.1-0.2,0.2-0.4,0.3c-4.2,2.3-8.4,4.6-12.6,6.8c-0.2,0.1-0.6,0.2-0.8,0.1c-4.3-2.3-8.6-4.7-12.9-7
				C79.2,24.4,79.2,24.3,79.1,24.2z"/>
		</g>
		<g>
			<path d="M85.5,57.1c-0.3-0.1-0.5-0.2-0.7-0.3c-4.3-2.4-8.6-4.8-12.9-7.2c-0.3-0.2-0.5-0.3-0.5-0.8c0-4.1,0-8.2,0-12.2
				c0-0.1,0-0.2,0-0.4c0.2,0.1,0.4,0.2,0.6,0.3c4.3,2.3,8.6,4.7,12.9,7c0.2,0.1,0.5,0.5,0.5,0.7C85.5,48.5,85.5,52.7,85.5,57.1z"/>
		</g>
		<g>
			<path d="M99.5,57.1c0-3.6,0-7.1,0-10.6c0-0.8,0-1.5,0-2.2c0-0.2,0.2-0.6,0.4-0.7c4.4-2.4,8.9-4.8,13.3-7.2c0.1,0,0.2-0.1,0.3-0.1
				c0,0.3,0,0.5,0,0.7c0,3.9,0,7.9,0,11.8c0,0.4,0,0.6-0.4,0.9c-4.5,2.4-8.9,4.9-13.3,7.4C99.8,57,99.7,57,99.5,57.1z"/>
		</g>
	</g>
</g>
</svg>
