<?xml version="1.0" encoding="utf-8"?>
<!-- Generator: Adobe Illustrator 23.0.4, SVG Export Plug-In . SVG Version: 6.00 Build 0)  -->
<svg version="1.1" id="Layer_1" xmlns="http://www.w3.org/2000/svg" xmlns:xlink="http://www.w3.org/1999/xlink" x="0px" y="0px"
	 viewBox="0 0 459 280" style="enable-background:new 0 0 459 280;" xml:space="preserve">
<style type="text/css">
	.st0{fill:#242B3F;}
	.st1{fill:#1FBDA2;}
	.st2{fill:#FFFFFF;}
</style>
<title>E-LOGO01</title>
<path class="st0" d="M15,220.4h16v10.9H15v7.4h23.7v11.8H1.3V201h37.5v11.8H15V220.4z"/>
<path class="st0" d="M49.8,201h12.9l13,21.2l5.4,9.2l-2.1,1.8c-0.1,0,0.2-9.8,0.2-9.8V201h13.5v49.6H78.9L66.7,231l-5.7-9.6l2.2-2.6
	l0.2,12v19.8H49.8V201z"/>
<path class="st0" d="M111,234.9c5.4,6,17.3,6.3,17.6,1c0.2-2.8-4.8-4.4-9.2-5c-8.7-1.3-16.6-6.3-16.6-15.8c0-9.7,9.6-14.9,19.5-14.9
	c6.5,0,12.9,1.7,18.4,7.9l-8.9,6.3c-5.6-5.5-15.3-5.3-15.5,0.4c0.2,2.4,3,3.8,7.2,4.6c9.6,1.6,19.2,4.7,18.6,16.9
	c-0.5,9.6-11.4,14.9-21.3,14.9c-7.1-0.2-13.8-3.4-18.3-9L111,234.9z"/>
<path class="st0" d="M161.6,250.6H147l18.7-49.6h12.4l19.2,49.6h-14.6v-0.1h-0.2c-1.3-2.9-2.4-5.9-3.4-8.9l-14.1,0.1L161.6,250.6z
	 M167.2,232.4h9.7l-0.9-2.9l-2.1-8.3c-0.5-1.7-1-3.3-1.4-4.8c-1.1,3.6-2.7,8.3-4.2,13L167.2,232.4z"/>
<path class="st0" d="M204.7,201h13.6l11.3,24.2l11.4-24.2h13.6v49.6H241l0.1-14.3l0.1-11.1l0.2,1.1l-7.1,17H225l-7.2-17l0.5,0.1
	l0.1,10v14.3h-13.6V201z"/>
<path class="st0" d="M300.5,224.1c7.4,3.4,8.3,9.8,7.6,13.6c-1.4,8-7.2,12.8-19.2,12.8h-22V201h21.6c10.3,0,17.8,5.7,17.5,15.1
	C305.8,219.6,303.7,222.6,300.5,224.1z M288.6,220.4c6.6,0,6.8-8.8,0-8.8h-7.9v8.8H288.6z M288.6,239.6c8.2,0,8.1-10.1,0-10.1h-7.9
	v10.1H288.6z"/>
<path class="st0" d="M318.3,201H332v37.2h21.9v12.4h-35.6V201z"/>
<path class="st0" d="M376.8,220.4h16v10.9h-16v7.4h23.7v11.8h-37.5V201h37.5v11.8h-23.7V220.4z"/>
<path class="st0" d="M427.8,234.8h-2.4v15.8h-13.8V201h21.5c11.1,0,19.7,4.7,20,16.3c0,9.2-4,14.4-10.6,16.2l14.7,17h-17
	L427.8,234.8z M433.3,224c8.6,0,8.6-11.4,0-11.4h-8V224H433.3z"/>
<path class="st1" d="M125.7,261.6c4.3,0,8.3,1.8,8.3,5.9v5.9c0,4.1-4,5.8-8.3,5.8h-8v-17.7H125.7z M125.8,275.1
	c1.8,0,2.7-0.8,2.7-1.9v-5.5c0-1.1-0.9-1.9-2.7-1.9h-2.7v9.3L125.8,275.1z"/>
<path class="st1" d="M143.8,268.6h6.3v3.9h-6.3v2.6h9.4v4.2h-14.8v-17.7h14.8v4.2h-9.4V268.6z"/>
<path class="st1" d="M170.1,261.6h5.8l-7.7,17.6h-4.9l-7.7-17.6h5.8l4.3,11.7L170.1,261.6z"/>
<path class="st1" d="M184.2,268.6h6.4v3.9h-6.4v2.6h9.4v4.2h-14.8v-17.7h14.8v4.2h-9.4V268.6z"/>
<path class="st1" d="M198,261.6h5.4v13.2h8.7v4.4H198V261.6z"/>
<path class="st1" d="M215.2,267.4c0-4.1,4.4-6.1,8.8-6.1s8.9,2,8.9,6.1v6c0,4-4.4,6.1-8.8,6.1s-8.9-2-8.9-6.1V267.4z M220.6,273.4
	c0,1.3,1.7,1.9,3.5,1.9s3.4-0.6,3.4-1.9v-6c0-1.4-1.8-2-3.5-2s-3.4,0.7-3.4,2V273.4z"/>
<path class="st1" d="M237.2,261.6h8.5c5.2,0,7.8,3.1,7.8,6.2s-2.6,6.2-7.8,6.2h-3.2v5.2h-5.4V261.6z M245.7,270.2
	c1.2,0.1,2.3-0.8,2.4-2c0.1-1.2-0.8-2.3-2-2.4c-0.1,0-0.3,0-0.4,0h-3.1v4.4H245.7z"/>
<path class="st1" d="M257.3,261.6h5.4l4.5,8.6l4.5-8.6h5.4v17.7h-5.4v-5.1l0.1-4l0.1,0.4l-2.8,6.1h-3.7l-2.9-6.1h0.2v3.6v5.1h-5.4
	L257.3,261.6z"/>
<path class="st1" d="M287.4,268.6h6.4v3.9h-6.4v2.6h9.4v4.2H282v-17.7h14.8v4.2h-9.4L287.4,268.6z"/>
<path class="st1" d="M301.2,261.6h5.1l5.1,7.5l2.1,3.3l-0.8,0.7c0,0,0.1-3.5,0.1-3.5v-8h5.4v17.7h-5.4l-4.8-7l-2.2-3.4l0.9-0.9
	l0.1,4.3v7.1h-5.4L301.2,261.6z"/>
<path class="st1" d="M332.9,265.9v13.4h-5.4v-13.4h-5.7v-4.2h16.8v4.2H332.9z"/>
<path class="st1" d="M291.8,88.3v-0.8c0-7.3,0-14.6,0-22c0-0.4-0.2-0.8-0.6-1c-6.7-3.5-13.3-7-19.9-10.5c-0.4-0.2-0.7-0.6-0.6-1
	c0-4.8,0-9.7,0-14.5v-0.7l0.8,0.4c11.3,6,22.6,11.9,33.8,17.8c0.4,0.2,0.7,0.6,0.6,1.1c0,12.7,0,25.4,0,38.1
	c-0.1,0.6,0.3,1.1,0.8,1.3c4.2,2.3,8.5,4.7,12.7,7c0.4,0.2,0.6,0.6,0.6,1c0,12.1,0,24.1,0,36.2c0,0.4-0.2,0.8-0.6,1
	c-11.3,6.3-22.7,12.6-34,18.9c-0.3,0.2-0.8,0.2-1.1,0c-11.3-6.3-22.7-12.6-34.1-18.9c-0.4-0.2-0.6-0.6-0.6-1c0-12.1,0-24.1,0-36.2
	c0-0.4,0.2-0.8,0.6-1c11.3-6.3,22.7-12.6,34-18.9c0.3-0.2,0.8-0.2,1.1,0c1.9,1.1,3.8,2.2,5.8,3.2L291.8,88.3z M298.2,108.1l-0.3-0.2
	c-4.2-2.4-8.5-4.7-12.8-7.1c-0.3-0.1-0.5-0.1-0.8,0c-4.2,2.3-8.3,4.6-12.5,6.9c-0.2,0.1-0.3,0.2-0.5,0.3l11,6
	c0.8,0.4,1.6,1.2,2.4,1.2s1.6-0.8,2.4-1.2L298.2,108.1z M277.7,140.9c0-0.2,0-0.2,0-0.3c0-4.2,0-8.4,0-12.5c0-0.5-0.2-0.6-0.6-0.8
	l-12.9-7c-0.2-0.1-0.4-0.2-0.7-0.3c0,4.3,0,8.5,0,12.7c0,0.2,0.3,0.5,0.5,0.6c2.5,1.4,5,2.8,7.5,4.2L277.7,140.9z M305.9,120
	c-0.2,0.1-0.3,0.1-0.4,0.2c-4.4,2.4-8.8,4.8-13.2,7.2c-0.3,0.2-0.5,0.5-0.4,0.8c0,4,0,8,0,12.1v0.5c0.1,0,0.2,0,0.2,0
	c4.5-2.5,9-5,13.5-7.5c0.2-0.1,0.3-0.4,0.3-0.6C305.9,128.5,305.9,124.3,305.9,120z"/>
<path class="st0" d="M186.3,37.8v0.8c0,4.8,0,9.6,0,14.4c0.1,0.5-0.2,0.9-0.6,1.1c-6.6,3.5-13.2,7-19.8,10.4
	c-0.4,0.2-0.7,0.6-0.7,1.1c0,7.3,0,14.5,0,21.8v0.9l2.9-1.6c1.2-0.7,2.4-1.4,3.7-2c0.3-0.1,0.6-0.1,0.9,0
	c11.4,6.3,22.9,12.7,34.3,19c0.2,0.2,0.4,0.4,0.4,0.8c0,12.2,0,24.3,0,36.5c0,0.3-0.2,0.6-0.4,0.7c-11.4,6.4-22.9,12.7-34.3,19
	c-0.3,0.1-0.6,0.1-0.9,0l-34.3-19c-0.3-0.2-0.5-0.5-0.5-0.9c0-12.1,0-24.2,0-36.3c0-0.4,0.2-0.7,0.5-0.9c4.3-2.4,8.6-4.8,12.9-7.1
	c0.4-0.2,0.7-0.6,0.7-1.1c0-12.8,0-25.5,0-38.3c0-0.4,0-0.8,0.5-1c11.4-6,22.8-12,34.1-18L186.3,37.8z M158.7,108.1
	c4.4,2.4,8.7,4.7,12.9,7c0.3,0.2,0.8,0.2,1.1,0c4.1-2.2,8.2-4.4,12.3-6.7l0.6-0.3l-0.3-0.2c-4.2-2.3-8.5-4.7-12.7-7
	c-0.3-0.1-0.6-0.1-0.9,0.1c-3.3,1.8-6.6,3.7-9.9,5.5L158.7,108.1z M165.2,140.9c0-4.4,0-8.7,0-12.9c-0.1-0.3-0.2-0.5-0.5-0.6
	c-4.3-2.4-8.7-4.7-13-7c-0.2-0.1-0.4-0.2-0.6-0.3c0,4.3,0,8.5,0,12.7c0.1,0.3,0.3,0.6,0.5,0.7c3.3,1.9,6.7,3.7,10,5.6L165.2,140.9z
	 M193.3,120c-0.1,0-0.2,0-0.3,0.1c-4.5,2.4-8.9,4.8-13.4,7.3c-0.2,0.2-0.4,0.5-0.4,0.8c0,4,0,8.1,0,12.2c0,0.1,0,0.3,0,0.4
	s0.1,0,0.1,0c4.6-2.5,9.1-5,13.6-7.6c0.2-0.1,0.3-0.3,0.3-0.6C193.3,128.5,193.3,124.3,193.3,120z"/>
<path class="st0" d="M193.3,38.9c0-6,0-12,0-18c0-0.4,0.2-0.8,0.6-1c11.3-6.3,22.7-12.6,34-18.9c0.3-0.2,0.8-0.2,1.1,0
	c11.4,6.3,22.8,12.7,34.2,19c0.3,0.1,0.6,0.5,0.5,0.9c0,12.1,0,24.2,0,36.2c0,0.4-0.2,0.7-0.5,0.9c-11.4,6.3-22.8,12.7-34.2,19
	c-0.3,0.2-0.8,0.2-1.1,0c-11.3-6.3-22.7-12.6-34-18.9c-0.4-0.2-0.6-0.6-0.6-1C193.3,50.9,193.3,44.9,193.3,38.9z M215.1,24.2
	c0.1,0.1,0.1,0.1,0.2,0.2c4.3,2.3,8.6,4.7,12.9,7c0.2,0.1,0.5,0.1,0.8-0.1c4.2-2.2,8.4-4.5,12.6-6.8c0.1-0.1,0.3-0.2,0.4-0.3
	c-0.1-0.1-0.2-0.1-0.3-0.2c-4.2-2.4-8.4-4.7-12.6-7c-0.3-0.2-0.7-0.1-1,0.1l-12.3,6.8C215.5,24,215.3,24.1,215.1,24.2z M221.5,57.1
	c0-4.4,0-8.7,0-12.9c-0.1-0.3-0.3-0.6-0.5-0.7c-4.3-2.3-8.6-4.7-12.9-7l-0.6-0.3c0,0.2,0,0.3,0,0.4c0,4.1,0,8.2,0,12.2
	c0,0.4,0.2,0.7,0.6,0.8l12.9,7.2L221.5,57.1z M235.5,57.1l0.4-0.2c4.4-2.5,8.9-4.9,13.3-7.4c0.4-0.2,0.4-0.5,0.4-0.9V36.2
	c-0.1,0-0.2,0.1-0.3,0.1c-4.4,2.4-8.9,4.8-13.3,7.2c-0.2,0.2-0.4,0.4-0.4,0.7c-0.1,0.8,0,1.5,0,2.2L235.5,57.1z"/>
<path class="st0" d="M269.2,160.4c-0.3,0.2-0.5,0.3-0.6,0.4c-13.2,7.3-26.3,14.7-39.5,22c-0.3,0.2-0.8,0.2-1.1,0
	c-13.2-7.3-26.4-14.7-39.6-22l-0.6-0.4c0.2-0.1,0.4-0.2,0.5-0.4c4.4-2.5,8.9-4.9,13.3-7.4c0.3-0.2,0.8-0.2,1.1,0
	c8.3,4.6,16.6,9.3,24.9,13.9c0.5,0.3,1.1,0.3,1.6,0c8.3-4.6,16.5-9.2,24.8-13.8c0.4-0.3,1-0.3,1.4,0c4.3,2.4,8.7,4.8,13,7.2
	C268.7,160.1,269,160.2,269.2,160.4z"/>
<path class="st2" d="M298.2,108.1l-11,6c-0.8,0.4-1.6,1.2-2.4,1.2s-1.6-0.7-2.4-1.2l-11-6c0.2-0.1,0.4-0.3,0.5-0.3
	c4.2-2.3,8.3-4.6,12.5-6.9c0.3-0.1,0.5-0.1,0.8,0c4.3,2.3,8.5,4.7,12.8,7.1L298.2,108.1z"/>
<path class="st2" d="M277.7,140.9l-6-3.3c-2.5-1.4-5-2.8-7.5-4.2c-0.2-0.1-0.5-0.4-0.5-0.6c0-4.2,0-8.4,0-12.7
	c0.3,0.1,0.5,0.2,0.7,0.3l12.9,7c0.3,0.2,0.6,0.3,0.6,0.8c0,4.2,0,8.4,0,12.5C277.8,140.6,277.7,140.7,277.7,140.9z"/>
<path class="st2" d="M305.9,120c0,4.3,0,8.5,0,12.7c0,0.2-0.1,0.5-0.3,0.6c-4.5,2.5-9,5-13.5,7.5c-6.8,3.7-0.1,0-0.2,0v-0.5
	c0-4,0-8,0-12.1c-0.1-0.3,0.1-0.7,0.4-0.8c4.4-2.4,8.8-4.8,13.2-7.2C305.6,120.1,305.7,120.1,305.9,120z"/>
<path class="st2" d="M158.7,108.1l3.1-1.7c3.3-1.8,6.6-3.7,9.9-5.5c0.3-0.1,0.6-0.2,0.9-0.1c4.2,2.3,8.5,4.7,12.7,7l0.3,0.2
	l-0.6,0.3c-4.1,2.2-8.2,4.4-12.3,6.7c-0.3,0.2-0.8,0.2-1.1,0C167.4,112.7,163.1,110.4,158.7,108.1z"/>
<path class="st2" d="M165.2,140.9l-3.5-2c-3.3-1.9-6.7-3.7-10-5.6c-0.3-0.1-0.5-0.4-0.5-0.7c0-4.2,0-8.4,0-12.7
	c0.2,0.1,0.4,0.2,0.6,0.3c4.3,2.3,8.7,4.7,13,7c0.2,0.1,0.4,0.4,0.5,0.6C165.2,132.2,165.2,136.5,165.2,140.9z"/>
<path class="st2" d="M193.3,120c0,4.3,0,8.5,0,12.7c0,0.2-0.1,0.4-0.3,0.6c-4.5,2.5-9.1,5-13.6,7.6c-6.8,3.8,0,0-0.1,0s0-0.3,0-0.4
	c0-4.1,0-8.1,0-12.2c0-0.3,0.1-0.6,0.4-0.8c4.5-2.4,8.9-4.9,13.4-7.3C193.1,120.1,193.2,120,193.3,120z"/>
<path class="st2" d="M215.1,24.2c0.2-0.1,0.4-0.2,0.6-0.4l12.3-6.8c0.3-0.2,0.7-0.2,1-0.1c4.2,2.4,8.4,4.7,12.6,7
	c0.1,0,0.1,0.1,0.3,0.2c-0.1,0.1-0.2,0.2-0.4,0.3c-4.2,2.3-8.4,4.6-12.6,6.8c-0.2,0.1-0.5,0.2-0.8,0.1c-4.3-2.3-8.6-4.7-12.9-7
	C208.8,20.9,215.2,24.4,215.1,24.2z"/>
<path class="st2" d="M221.5,57.1l-0.6-0.3l-12.9-7.2c-0.3-0.1-0.6-0.4-0.6-0.8c0-4.1,0-8.2,0-12.2c0-0.1,0-0.2,0-0.4l0.6,0.3
	c4.3,2.3,8.6,4.7,12.9,7c0.3,0.1,0.5,0.4,0.5,0.7C221.5,48.5,221.5,52.7,221.5,57.1z"/>
<path class="st2" d="M235.5,57.1V46.5c0-0.8,0-1.5,0-2.2c0-0.3,0.2-0.5,0.4-0.7c4.4-2.4,8.9-4.8,13.3-7.2c0.1-0.1,0.2-0.1,0.3-0.1
	v12.5c0,0.3,0,0.6-0.4,0.9c-4.4,2.5-8.9,4.9-13.3,7.4L235.5,57.1z"/>
</svg>
