<svg id="Layer_1" data-name="Layer 1" xmlns="http://www.w3.org/2000/svg" viewBox="0 0 459 280"><defs><style>.cls-1{fill:#fff;}.cls-2{fill:#1fbda2;}</style></defs><title>E-LOGO01</title><path class="cls-1" d="M15,220.44h16V231.3H15v7.42H38.74v11.84H1.26V201H38.74v11.77H15Z"/><path class="cls-1" d="M49.77,201H62.7l13,21.16,5.4,9.25L79,233.26c-.08,0,.23-9.81.15-9.81V201H92.66v49.6H78.89L66.73,231,61,221.35l2.2-2.59.15,12v19.82H49.77Z"/><path class="cls-1" d="M111,234.87c5.4,6,17.26,6.3,17.64,1,.16-2.8-4.79-4.41-9.2-5-8.66-1.26-16.57-6.31-16.57-15.77,0-9.73,9.58-14.85,19.46-14.85,6.54,0,12.85,1.68,18.4,7.92l-8.89,6.3c-5.63-5.53-15.28-5.32-15.51.42.15,2.39,3,3.79,7.15,4.63,9.58,1.61,19.16,4.69,18.55,16.88-.46,9.6-11.41,14.85-21.29,14.85a24.25,24.25,0,0,1-18.33-9Z"/><path class="cls-1" d="M161.55,250.56H147L165.73,201h12.4l19.23,49.6H182.77v-.07h-.16a90.18,90.18,0,0,1-3.42-8.9l-14.14.08Zm5.7-18.21h9.66l-.91-2.87-2.13-8.27c-.53-1.68-1-3.29-1.45-4.76-1.14,3.57-2.66,8.26-4.18,13Z"/><path class="cls-1" d="M204.74,201h13.61l11.33,24.24L241.09,201H254.7v49.6H241l.08-14.29.15-11.14.23,1.05-7.07,17H225l-7.22-17,.46.07.07,10v14.29H204.74Z"/><path class="cls-1" d="M300.55,224.15c7.38,3.43,8.29,9.81,7.61,13.59-1.37,8-7.23,12.82-19.16,12.82H267V201h21.6c10.26,0,17.79,5.68,17.48,15.14A9.91,9.91,0,0,1,300.55,224.15Zm-11.93-3.78c6.61,0,6.84-8.83,0-8.83h-7.91v8.83Zm0,19.19c8.21,0,8.06-10.15,0-10.15h-7.91v10.15Z"/><path class="cls-1" d="M318.27,201H332v37.2h21.9v12.4H318.27Z"/><path class="cls-1" d="M376.82,220.44h16.05V231.3H376.82v7.42h23.72v11.84H363.06V201h37.48v11.77H376.82Z"/><path class="cls-1" d="M427.77,234.8h-2.43v15.76H411.57V201h21.52c11.1,0,19.7,4.7,20,16.33,0,9.17-4,14.36-10.57,16.25l14.68,17h-17ZM433.32,224c8.59,0,8.59-11.35,0-11.35h-8V224Z"/><path class="cls-2" d="M125.66,261.63c4.27,0,8.27,1.8,8.27,5.91v5.94c0,4.06-4,5.83-8.27,5.81h-8V261.63Zm.18,13.47c1.83,0,2.68-.78,2.68-1.92v-5.51c0-1.15-.88-1.87-2.68-1.87H123.1v9.3Z"/><path class="cls-2" d="M143.78,268.57h6.34v3.86h-6.34v2.64h9.38v4.22H138.33V261.63h14.83v4.19h-9.38Z"/><path class="cls-2" d="M170.08,261.61h5.78l-7.68,17.65h-4.93l-7.68-17.65h5.78l4.33,11.74Z"/><path class="cls-2" d="M184.22,268.57h6.35v3.86h-6.35v2.64h9.39v4.22H178.78V261.63h14.83v4.19h-9.39Z"/><path class="cls-2" d="M198,261.63h5.41v13.24h8.67v4.42H198Z"/><path class="cls-2" d="M215.19,267.44c0-4.06,4.4-6.06,8.82-6.06s8.85,2,8.85,6.06v6c0,4-4.4,6.06-8.82,6.06s-8.85-2-8.85-6.06Zm5.39,6c0,1.29,1.74,1.92,3.46,1.92s3.43-.65,3.43-1.92v-6c0-1.37-1.78-2-3.52-2s-3.37.7-3.37,2Z"/><path class="cls-2" d="M237.22,261.63h8.52c5.2,0,7.79,3.12,7.79,6.24s-2.62,6.25-7.76,6.25h-3.16v5.17h-5.39Zm8.52,8.53a2.19,2.19,0,1,0,0-4.36h-3.13v4.36Z"/><path class="cls-2" d="M257.32,261.63h5.39l4.48,8.63,4.52-8.63h5.38v17.66h-5.41l0-5.09.06-4,.09.37-2.8,6.06h-3.7l-2.86-6.06.18,0,0,3.57v5.09h-5.39Z"/><path class="cls-2" d="M287.42,268.57h6.35v3.86h-6.35v2.64h9.39v4.22H282V261.63h14.84v4.19h-9.39Z"/><path class="cls-2" d="M301.17,261.63h5.12l5.14,7.53,2.14,3.29-.84.68s.09-3.49.06-3.49v-8h5.35v17.66H312.7l-4.82-7-2.25-3.44.87-.92.06,4.26v7.06h-5.39Z"/><path class="cls-2" d="M332.86,265.85v13.44h-5.44V265.85h-5.66v-4.24h16.76v4.24Z"/><path class="cls-2" d="M291.84,88.28V87.5c0-7.32,0-14.64,0-22a1,1,0,0,0-.61-1q-10-5.23-19.9-10.49a1,1,0,0,1-.63-1q0-7.24,0-14.5v-.72l.75.38Q288.39,47.12,305.3,56a1,1,0,0,1,.62,1.08q0,19.08,0,38.14a1.32,1.32,0,0,0,.81,1.34c4.25,2.33,8.47,4.7,12.72,7a.94.94,0,0,1,.58,1q0,18.09,0,36.17a1,1,0,0,1-.58,1q-17,9.44-34.05,18.92a1,1,0,0,1-1.14,0q-17-9.48-34.06-18.92a1,1,0,0,1-.57-1q0-18.09,0-36.17a1,1,0,0,1,.59-1q17-9.45,34.05-18.92a1,1,0,0,1,1.15,0c1.91,1.09,3.84,2.15,5.76,3.21Zm6.41,19.8-.32-.23c-4.25-2.36-8.5-4.73-12.77-7.07a1,1,0,0,0-.8,0q-6.24,3.44-12.46,6.91c-.16.09-.32.21-.54.35l11,6c.8.43,1.61,1.17,2.42,1.17s1.62-.75,2.42-1.18Zm-20.53,32.79c0-.18,0-.25,0-.32,0-4.17,0-8.35,0-12.52,0-.46-.25-.6-.57-.77l-12.85-7c-.2-.11-.41-.2-.67-.32,0,4.3,0,8.52,0,12.74,0,.22.28.51.51.64,2.48,1.4,5,2.78,7.48,4.17ZM305.91,120c-.21.1-.31.14-.41.2-4.41,2.38-8.81,4.78-13.23,7.15a.8.8,0,0,0-.44.85q0,6,0,12.1v.53c.14,0,.19,0,.22,0q6.76-3.75,13.5-7.51a.84.84,0,0,0,.34-.6C305.92,128.46,305.91,124.27,305.91,120Z"/><path class="cls-1" d="M186.27,37.82v.79c0,4.79,0,9.58,0,14.36a1,1,0,0,1-.64,1.08c-6.62,3.47-13.22,7-19.84,10.45a1.08,1.08,0,0,0-.66,1.13c0,7.27,0,14.54,0,21.81v.87l2.91-1.62c1.23-.68,2.45-1.38,3.69-2a1.06,1.06,0,0,1,.87,0q17.16,9.5,34.3,19a1.05,1.05,0,0,1,.44.75q0,18.23,0,36.45a1,1,0,0,1-.45.74q-17.13,9.56-34.3,19a1,1,0,0,1-.86,0l-34.26-19a.87.87,0,0,1-.5-.88q0-18.15,0-36.31a.85.85,0,0,1,.53-.86q6.45-3.57,12.9-7.14a1.11,1.11,0,0,0,.67-1.13q0-19.14,0-38.28c0-.44,0-.76.51-1q17.07-9,34.12-18Zm-27.56,70.23c4.4,2.39,8.66,4.69,12.91,7a1,1,0,0,0,1.15,0q6.14-3.34,12.29-6.66l.56-.35-.34-.23c-4.24-2.35-8.47-4.71-12.71-7a1.09,1.09,0,0,0-.86.07c-3.31,1.81-6.59,3.65-9.89,5.48Zm6.45,32.84c0-4.41,0-8.68,0-12.95a1,1,0,0,0-.49-.64q-6.48-3.54-13-7c-.18-.1-.36-.17-.59-.27,0,4.28,0,8.48,0,12.68a1,1,0,0,0,.52.69c3.32,1.87,6.66,3.72,10,5.57ZM193.31,120a1.31,1.31,0,0,0-.27.08c-4.48,2.42-8.95,4.83-13.41,7.28a1,1,0,0,0-.38.78c0,4,0,8.11,0,12.17,0,.15,0,.31,0,.44s.11,0,.12,0q6.83-3.78,13.63-7.56a.77.77,0,0,0,.29-.56C193.32,128.48,193.31,124.28,193.31,120Z"/><path class="cls-1" d="M193.31,38.91c0-6,0-12,0-18a1,1,0,0,1,.6-1q17-9.44,34-18.91a1,1,0,0,1,1.09,0q17.07,9.51,34.16,19a.85.85,0,0,1,.51.88q0,18.12,0,36.24a.87.87,0,0,1-.51.87q-17.1,9.48-34.16,19a1,1,0,0,1-1.09,0q-17-9.47-34-18.91a1,1,0,0,1-.6-1C193.32,50.92,193.31,44.92,193.31,38.91Zm21.78-14.67c.1.11.12.15.16.17q6.45,3.49,12.92,7a.9.9,0,0,0,.75-.06q6.32-3.37,12.62-6.81a3.84,3.84,0,0,0,.37-.29c-.14-.09-.21-.15-.29-.19-4.22-2.35-8.44-4.68-12.65-7a.92.92,0,0,0-1,.07l-12.28,6.82C215.48,24,215.3,24.11,215.09,24.24Zm6.37,32.89c0-4.39,0-8.66,0-12.92a1,1,0,0,0-.52-.69q-6.43-3.52-12.9-7l-.6-.29c0,.18,0,.29,0,.39,0,4.08,0,8.16,0,12.24a.8.8,0,0,0,.55.78l12.89,7.16Zm14.08,0,.35-.15q6.66-3.7,13.33-7.39c.41-.23.39-.52.39-.87V36.22a2.76,2.76,0,0,0-.34.14q-6.66,3.6-13.33,7.23a1,1,0,0,0-.38.7c-.05.75,0,1.5,0,2.25Z"/><path class="cls-1" d="M269.23,160.36c-.26.16-.45.29-.65.4q-19.74,11-39.49,22a1,1,0,0,1-1.15,0q-19.77-11-39.55-22l-.61-.37c.21-.14.37-.25.54-.35,4.44-2.47,8.89-4.92,13.33-7.41a1,1,0,0,1,1.14,0q12.47,6.94,24.93,13.88a1.4,1.4,0,0,0,1.58,0c8.27-4.62,16.54-9.2,24.81-13.81a1.22,1.22,0,0,1,1.39,0q6.5,3.65,13,7.25C268.74,160.06,269,160.19,269.23,160.36Z"/><path d="M298.25,108.08l-11,6c-.8.43-1.61,1.17-2.42,1.18s-1.62-.74-2.42-1.17l-11-6c.22-.14.38-.26.54-.35q6.23-3.47,12.46-6.91a1,1,0,0,1,.8,0c4.27,2.34,8.52,4.71,12.77,7.07Z"/><path d="M277.72,140.87l-6-3.34c-2.5-1.39-5-2.77-7.48-4.17-.23-.13-.51-.42-.51-.64,0-4.22,0-8.44,0-12.74.26.12.47.21.67.32l12.85,7c.32.17.57.31.57.77,0,4.17,0,8.35,0,12.52C277.76,140.62,277.74,140.69,277.72,140.87Z"/><path d="M305.91,120c0,4.31,0,8.5,0,12.7a.84.84,0,0,1-.34.6q-6.74,3.77-13.5,7.51s-.08,0-.22,0v-.53q0-6,0-12.1a.8.8,0,0,1,.44-.85c4.42-2.37,8.82-4.77,13.23-7.15C305.6,120.1,305.7,120.06,305.91,120Z"/><path d="M158.71,108.05l3.11-1.72c3.3-1.83,6.58-3.67,9.89-5.48a1.09,1.09,0,0,1,.86-.07c4.24,2.33,8.47,4.69,12.71,7l.34.23-.56.35q-6.15,3.33-12.29,6.66a1,1,0,0,1-1.15,0C167.37,112.74,163.11,110.44,158.71,108.05Z"/><path d="M165.16,140.89l-3.54-2c-3.33-1.85-6.67-3.7-10-5.57a1,1,0,0,1-.52-.69c0-4.2,0-8.4,0-12.68.23.1.41.17.59.27q6.49,3.51,13,7a1,1,0,0,1,.49.64C165.17,132.21,165.16,136.48,165.16,140.89Z"/><path d="M193.31,120c0,4.27,0,8.47,0,12.66a.77.77,0,0,1-.29.56q-6.81,3.79-13.63,7.56s0,0-.12,0,0-.29,0-.44c0-4.06,0-8.12,0-12.17a1,1,0,0,1,.38-.78c4.46-2.45,8.93-4.86,13.41-7.28A1.31,1.31,0,0,1,193.31,120Z"/><path d="M215.09,24.24c.21-.13.39-.25.57-.35l12.28-6.82a.92.92,0,0,1,1-.07c4.21,2.37,8.43,4.7,12.65,7.05.08,0,.15.1.29.19a3.84,3.84,0,0,1-.37.29q-6.31,3.42-12.62,6.81a.9.9,0,0,1-.75.06q-6.46-3.48-12.92-7S215.19,24.35,215.09,24.24Z"/><path d="M221.46,57.13l-.65-.34-12.89-7.16a.8.8,0,0,1-.55-.78c0-4.08,0-8.16,0-12.24,0-.1,0-.21,0-.39l.6.29q6.47,3.5,12.9,7a1,1,0,0,1,.52.69C221.47,48.47,221.46,52.74,221.46,57.13Z"/><path d="M235.54,57.11V46.54c0-.75,0-1.5,0-2.25a1,1,0,0,1,.38-.7q6.66-3.65,13.33-7.23a2.76,2.76,0,0,1,.34-.14V48.7c0,.35,0,.64-.39.87q-6.67,3.68-13.33,7.39Z"/></svg>