<svg xmlns="http://www.w3.org/2000/svg" xmlns:xlink="http://www.w3.org/1999/xlink" viewBox="0 0 380 380"><defs><style>.cls-1,.cls-10,.cls-100,.cls-101,.cls-102,.cls-103,.cls-104,.cls-105,.cls-106,.cls-107,.cls-108,.cls-109,.cls-11,.cls-110,.cls-111,.cls-112,.cls-12,.cls-13,.cls-14,.cls-15,.cls-16,.cls-17,.cls-18,.cls-19,.cls-20,.cls-21,.cls-22,.cls-23,.cls-24,.cls-25,.cls-26,.cls-27,.cls-28,.cls-29,.cls-30,.cls-31,.cls-32,.cls-33,.cls-34,.cls-35,.cls-36,.cls-37,.cls-6,.cls-7,.cls-8,.cls-9,.cls-94,.cls-95,.cls-96,.cls-97,.cls-98,.cls-99{fill:none;}.cls-2{isolation:isolate;}.cls-3{clip-path:url(#clip-path);}.cls-4{fill:#1fbda2;}.cls-5{opacity:0.2;}.cls-39,.cls-5,.cls-93{mix-blend-mode:overlay;}.cls-10,.cls-100,.cls-101,.cls-102,.cls-103,.cls-104,.cls-105,.cls-106,.cls-107,.cls-108,.cls-109,.cls-11,.cls-110,.cls-111,.cls-112,.cls-12,.cls-13,.cls-14,.cls-15,.cls-16,.cls-17,.cls-18,.cls-19,.cls-20,.cls-21,.cls-22,.cls-23,.cls-24,.cls-25,.cls-26,.cls-27,.cls-28,.cls-29,.cls-30,.cls-31,.cls-32,.cls-33,.cls-34,.cls-35,.cls-36,.cls-37,.cls-6,.cls-7,.cls-8,.cls-9,.cls-94,.cls-95,.cls-96,.cls-97,.cls-98,.cls-99{stroke:#fff;stroke-miterlimit:10;}.cls-6{stroke-width:0.98px;}.cls-40,.cls-6{opacity:0;}.cls-7{stroke-width:1.11px;opacity:0.03;}.cls-8{stroke-width:1.23px;opacity:0.06;}.cls-9{stroke-width:1.36px;opacity:0.1;}.cls-10{stroke-width:1.49px;opacity:0.13;}.cls-11{stroke-width:1.61px;opacity:0.16;}.cls-12{stroke-width:1.74px;opacity:0.19;}.cls-13{stroke-width:1.87px;opacity:0.23;}.cls-14{stroke-width:1.99px;opacity:0.26;}.cls-15{stroke-width:2.12px;opacity:0.29;}.cls-16{stroke-width:2.25px;opacity:0.32;}.cls-17{stroke-width:2.37px;opacity:0.35;}.cls-18{stroke-width:2.5px;opacity:0.39;}.cls-19{stroke-width:2.62px;opacity:0.42;}.cls-20{stroke-width:2.75px;opacity:0.45;}.cls-21{stroke-width:2.88px;opacity:0.48;}.cls-22{stroke-width:3px;opacity:0.52;}.cls-23{stroke-width:3.13px;opacity:0.55;}.cls-24{stroke-width:3.26px;opacity:0.58;}.cls-25{stroke-width:3.38px;opacity:0.61;}.cls-26{stroke-width:3.51px;opacity:0.65;}.cls-27{stroke-width:3.64px;opacity:0.68;}.cls-28{stroke-width:3.76px;opacity:0.71;}.cls-29{stroke-width:3.89px;opacity:0.74;}.cls-30{stroke-width:4.02px;opacity:0.77;}.cls-31{stroke-width:4.14px;opacity:0.81;}.cls-32{stroke-width:4.27px;opacity:0.84;}.cls-33{stroke-width:4.4px;opacity:0.87;}.cls-34{stroke-width:4.52px;opacity:0.9;}.cls-35{stroke-width:4.65px;opacity:0.94;}.cls-36{stroke-width:4.78px;opacity:0.97;}.cls-37{stroke-width:4.9px;}.cls-38{clip-path:url(#clip-path-2);}.cls-39{opacity:0.4;}.cls-41{fill:#fff;}.cls-42{opacity:0.02;}.cls-43{opacity:0.04;}.cls-44{opacity:0.06;}.cls-45{opacity:0.08;}.cls-46{opacity:0.1;}.cls-47{opacity:0.12;}.cls-48{opacity:0.14;}.cls-49{opacity:0.16;}.cls-50{opacity:0.18;}.cls-51{opacity:0.2;}.cls-52{opacity:0.22;}.cls-53{opacity:0.24;}.cls-54{opacity:0.25;}.cls-55{opacity:0.27;}.cls-56{opacity:0.29;}.cls-57{opacity:0.31;}.cls-58{opacity:0.33;}.cls-59{opacity:0.35;}.cls-60{opacity:0.37;}.cls-61{opacity:0.39;}.cls-62{opacity:0.41;}.cls-63{opacity:0.43;}.cls-64{opacity:0.45;}.cls-65{opacity:0.47;}.cls-66{opacity:0.49;}.cls-67{opacity:0.51;}.cls-68{opacity:0.53;}.cls-69{opacity:0.55;}.cls-70{opacity:0.57;}.cls-71{opacity:0.59;}.cls-72{opacity:0.61;}.cls-73{opacity:0.63;}.cls-74{opacity:0.65;}.cls-75{opacity:0.67;}.cls-76{opacity:0.69;}.cls-77{opacity:0.71;}.cls-78{opacity:0.73;}.cls-79{opacity:0.75;}.cls-80{opacity:0.76;}.cls-81{opacity:0.78;}.cls-82{opacity:0.8;}.cls-83{opacity:0.82;}.cls-84{opacity:0.84;}.cls-85{opacity:0.86;}.cls-86{opacity:0.88;}.cls-87{opacity:0.9;}.cls-88{opacity:0.92;}.cls-89{opacity:0.94;}.cls-90{opacity:0.96;}.cls-91{opacity:0.98;}.cls-92{clip-path:url(#clip-path-3);}.cls-93{opacity:0.25;}.cls-94{stroke-width:3.43px;opacity:0.56;}.cls-95{stroke-width:3.56px;opacity:0.59;}.cls-96{stroke-width:3.7px;opacity:0.61;}.cls-97{stroke-width:3.84px;opacity:0.63;}.cls-98{stroke-width:3.97px;opacity:0.66;}.cls-99{stroke-width:4.11px;opacity:0.68;}.cls-100{stroke-width:4.24px;opacity:0.71;}.cls-101{stroke-width:4.38px;opacity:0.73;}.cls-102{stroke-width:4.52px;opacity:0.76;}.cls-103{stroke-width:4.65px;opacity:0.78;}.cls-104{stroke-width:4.79px;opacity:0.8;}.cls-105{stroke-width:4.93px;opacity:0.83;}.cls-106{stroke-width:5.06px;opacity:0.85;}.cls-107{stroke-width:5.2px;opacity:0.88;}.cls-108{stroke-width:5.34px;opacity:0.9;}.cls-109{stroke-width:5.47px;opacity:0.93;}.cls-110{stroke-width:5.61px;opacity:0.95;}.cls-111{stroke-width:5.75px;opacity:0.98;}.cls-112{stroke-width:5.88px;}</style><clipPath id="clip-path"><rect class="cls-1" x="1.46" y="-0.27" width="378.66" height="378.66"/></clipPath><clipPath id="clip-path-2"><rect class="cls-1" x="401.34" y="1.16" width="378.66" height="378.66"/></clipPath><clipPath id="clip-path-3"><rect class="cls-1" x="1.22" y="400.85" width="378.32" height="378.32"/></clipPath></defs><title>Back-servicios</title><g class="cls-2"><g id="Layer_1" data-name="Layer 1"><g class="cls-3"><rect class="cls-4" x="-1.32" y="-1.77" width="384.45" height="383.09"/><g class="cls-5"><rect class="cls-6" x="-9.09" y="168.32" width="36.06" height="36.06" transform="translate(-129.15 60.9) rotate(-45)"/><rect class="cls-7" x="-17.07" y="160.34" width="52.02" height="52.02" transform="translate(-129.15 60.9) rotate(-45)"/><rect class="cls-8" x="-25.05" y="152.36" width="67.98" height="67.98" transform="translate(-129.15 60.9) rotate(-45)"/><rect class="cls-9" x="-33.03" y="144.38" width="83.94" height="83.94" transform="translate(-129.15 60.9) rotate(-45)"/><rect class="cls-10" x="-41.01" y="136.4" width="99.9" height="99.9" transform="translate(-129.15 60.9) rotate(-45)"/><rect class="cls-11" x="-48.99" y="128.42" width="115.86" height="115.86" transform="translate(-129.15 60.9) rotate(-45)"/><rect class="cls-12" x="-56.97" y="120.44" width="131.82" height="131.82" transform="translate(-129.15 60.9) rotate(-45)"/><rect class="cls-13" x="-64.95" y="112.46" width="147.78" height="147.78" transform="translate(-129.15 60.9) rotate(-45)"/><rect class="cls-14" x="-72.93" y="104.48" width="163.73" height="163.73" transform="translate(-129.15 60.9) rotate(-45)"/><rect class="cls-15" x="-80.91" y="96.5" width="179.69" height="179.69" transform="translate(-129.15 60.9) rotate(-45)"/><rect class="cls-16" x="-88.89" y="88.52" width="195.65" height="195.65" transform="translate(-129.15 60.9) rotate(-45)"/><rect class="cls-17" x="-96.87" y="80.54" width="211.61" height="211.61" transform="translate(-129.15 60.9) rotate(-45)"/><rect class="cls-18" x="-104.85" y="72.56" width="227.57" height="227.57" transform="translate(-129.15 60.9) rotate(-45)"/><rect class="cls-19" x="-112.83" y="64.58" width="243.53" height="243.53" transform="translate(-129.15 60.9) rotate(-45)"/><rect class="cls-20" x="-120.81" y="56.6" width="259.49" height="259.49" transform="translate(-129.15 60.9) rotate(-45)"/><rect class="cls-21" x="-128.79" y="48.62" width="275.45" height="275.45" transform="translate(-129.15 60.9) rotate(-45)"/><rect class="cls-22" x="-136.77" y="40.64" width="291.41" height="291.41" transform="translate(-129.15 60.9) rotate(-45)"/><rect class="cls-23" x="-144.75" y="32.66" width="307.37" height="307.37" transform="translate(-129.15 60.9) rotate(-45)"/><rect class="cls-24" x="-152.73" y="24.68" width="323.33" height="323.33" transform="translate(-129.15 60.9) rotate(-45)"/><rect class="cls-25" x="-160.71" y="16.7" width="339.29" height="339.29" transform="translate(-129.15 60.9) rotate(-45)"/><rect class="cls-26" x="-168.69" y="8.72" width="355.24" height="355.24" transform="translate(-129.15 60.9) rotate(-45)"/><rect class="cls-27" x="-176.66" y="0.74" width="371.2" height="371.2" transform="translate(-129.15 60.9) rotate(-45)"/><rect class="cls-28" x="-184.64" y="-7.24" width="387.16" height="387.16" transform="translate(-129.15 60.9) rotate(-45)"/><rect class="cls-29" x="-192.62" y="-15.22" width="403.12" height="403.12" transform="translate(-129.15 60.9) rotate(-45)"/><rect class="cls-30" x="-200.6" y="-23.19" width="419.08" height="419.08" transform="translate(-129.15 60.9) rotate(-45)"/><rect class="cls-31" x="-208.58" y="-31.17" width="435.04" height="435.04" transform="translate(-129.15 60.9) rotate(-45)"/><rect class="cls-32" x="-216.56" y="-39.15" width="451" height="451" transform="translate(-129.15 60.9) rotate(-45)"/><rect class="cls-33" x="-224.54" y="-47.13" width="466.96" height="466.96" transform="translate(-129.15 60.9) rotate(-45)"/><rect class="cls-34" x="-232.52" y="-55.11" width="482.92" height="482.92" transform="translate(-129.15 60.9) rotate(-45)"/><rect class="cls-35" x="-240.5" y="-63.09" width="498.88" height="498.88" transform="translate(-129.15 60.9) rotate(-45)"/><rect class="cls-36" x="-248.48" y="-71.07" width="514.84" height="514.84" transform="translate(-129.15 60.9) rotate(-45)"/><rect class="cls-37" x="-256.46" y="-79.05" width="530.8" height="530.8" transform="translate(-129.15 60.9) rotate(-45)"/></g></g><g class="cls-38"><g class="cls-39"><g class="cls-40"><path class="cls-41" d="M402.77,208.47h-22l-.07-.13-10.93-18.92,11-19.06h22l.07.13,10.93,18.93ZM385,201.11h13.51l6.75-11.69-6.75-11.7H385l-6.75,11.7Z"/></g><g class="cls-42"><path class="cls-41" d="M406.35,214.69H377.17l-14.59-25.27,14.59-25.28h29.18L421,189.42Zm-28.85-.57H406l14.26-24.7L406,164.71H377.5l-14.26,24.71Z"/></g><g class="cls-43"><path class="cls-41" d="M409.94,220.9H373.58l-.08-.15-18.09-31.33,18.17-31.49h36.36l.09.15,18.09,31.34Zm-36-.62h35.64l17.83-30.86-17.83-30.87H373.94l-17.82,30.87Z"/></g><g class="cls-44"><path class="cls-41" d="M413.53,227.12H370l-.1-.17-21.67-37.53L370,151.71h43.53l.1.17,21.67,37.54Zm-43.15-.67h42.76l21.38-37-21.38-37H370.38l-21.38,37Z"/></g><g class="cls-45"><path class="cls-41" d="M417.12,233.33H366.41l-.11-.18-25.25-43.73.11-.18,25.25-43.74h50.71l.1.18,25.25,43.74-.1.18Zm-50.3-.72H416.7l24.94-43.19-24.94-43.2H366.82l-24.93,43.2Z"/></g><g class="cls-46"><path class="cls-41" d="M420.71,239.55H362.82l-.11-.2-28.83-49.93,28.94-50.13h57.89l.11.19,28.83,49.94Zm-57.44-.78h57l28.5-49.35-28.5-49.36h-57l-28.5,49.36Z"/></g><g class="cls-47"><path class="cls-41" d="M424.29,245.76H359.23L326.7,189.42l32.53-56.35h65.06l32.53,56.35Zm-64.58-.82h64.11l32.05-55.52-32.05-55.53H359.71l-32.06,55.53Z"/></g><g class="cls-48"><path class="cls-41" d="M427.88,252H355.65l-.13-.21-36-62.34.12-.22,36-62.34h72.23l.13.22,36,62.34-.13.21Zm-71.73-.87h71.23L463,189.42l-35.61-61.69H356.15l-35.62,61.69Z"/></g><g class="cls-49"><path class="cls-41" d="M431.47,258.19H352.06l-39.71-68.77,39.71-68.78h79.41l39.7,68.78Zm-78.88-.93h78.35l39.17-67.84-39.17-67.85H352.59l-39.17,67.85Z"/></g><g class="cls-50"><path class="cls-41" d="M435.06,264.4H348.47l-.14-.24-43.15-74.74,43.29-75h86.59l.14.24,43.15,74.75Zm-86-1h85.46l42.74-74-42.74-74H349l-42.73,74Z"/></g><g class="cls-51"><path class="cls-41" d="M438.64,270.62H344.88L298,189.42l46.88-81.21h93.76l46.89,81.21Zm-93.17-1h92.58l46.29-80.17-46.29-80.18H345.47l-46.29,80.18Z"/></g><g class="cls-52"><path class="cls-41" d="M442.23,276.83H341.29l-.15-.27-50.32-87.14L341.29,102H442.23l.16.27,50.31,87.15Zm-100.32-1.07h99.7l49.85-86.34-49.85-86.34h-99.7l-49.84,86.34Z"/></g><g class="cls-53"><path class="cls-41" d="M445.82,283H337.71l-.17-.28-53.89-93.34.16-.29,53.9-93.34H445.82l.16.28,53.9,93.35-.17.28Zm-107.46-1.12H445.17l53.41-92.5L445.17,96.91H338.36L285,189.42Z"/></g><g class="cls-54"><path class="cls-41" d="M449.41,289.26H334.12L334,289l-57.48-99.54,57.65-99.85H449.41l.17.3,57.47,99.55ZM334.8,288.08H448.73l57-98.66-57-98.67H334.8l-57,98.67Z"/></g><g class="cls-55"><path class="cls-41" d="M453,295.47H330.53l-.18-.3L269.3,189.42l.18-.31,61-105.75H453l61.23,106.06-.18.3Zm-121.76-1.22H452.29l60.52-104.83L452.29,84.59h-121L270.72,189.42Z"/></g><g class="cls-56"><path class="cls-41" d="M456.58,301.69H326.94L262.12,189.42l.19-.32,64.63-112H456.58l.19.32,64.63,112-.18.32Zm-128.9-1.28H455.85l64.08-111-64.08-111H327.68l-64.08,111Z"/></g><g class="cls-57"><path class="cls-41" d="M460.17,307.9H323.36L255,189.42,323.36,70.93H460.17l.19.33,68.22,118.16Zm-136-1.33H459.4L527,189.42,459.4,72.26H324.12L256.48,189.42Z"/></g><g class="cls-58"><path class="cls-41" d="M463.76,314.12h-144l-.2-.35-71.8-124.35.2-.35,71.8-124.35h144l72,124.7-.19.34Zm-143.2-1.38H463l71.2-123.32L463,66.1H320.56L249.37,189.42Z"/></g><g class="cls-59"><path class="cls-41" d="M467.35,320.33H316.18L240.6,189.42l.2-.36L316.18,58.5H467.35l75.58,130.92-.21.35ZM317,318.9H466.52l74.76-129.48L466.52,59.93H317L242.25,189.42Z"/></g><g class="cls-60"><path class="cls-41" d="M470.93,326.54H312.59l-.21-.37-79-136.75L312.59,52.29H470.93l79.18,137.13Zm-157.48-1.48H470.08L548.4,189.42,470.08,53.77H313.45L235.13,189.42Z"/></g><g class="cls-61"><path class="cls-41" d="M474.52,332.76H309l-.22-.38-82.54-143,.23-.39L309,46.07H474.52l.22.39,82.54,143-.22.38Zm-164.63-1.53H473.64l81.87-141.81L473.64,47.6H309.89L228,189.42Z"/></g><g class="cls-62"><path class="cls-41" d="M478.11,339H305.42l-.23-.39L219.07,189.42,305.42,39.86H478.11l86.35,149.56Zm-171.78-1.58H477.2l85.43-148-85.43-148H306.33l-85.43,148Z"/></g><g class="cls-63"><path class="cls-41" d="M481.7,345.19H301.83l-.24-.41-89.7-155.36.24-.41,89.7-155.37H481.7l.23.41,89.7,155.37-.23.4Zm-178.93-1.64h178l89-154.13-89-154.14h-178l-89,154.14Z"/></g><g class="cls-64"><path class="cls-41" d="M485.29,351.4h-187L298,351,204.72,189.42l93.52-162H485.29l.24.42,93.28,161.57Zm-186.08-1.68h185.1l92.55-160.3L484.31,29.11H299.21L206.66,189.42Z"/></g><g class="cls-65"><path class="cls-41" d="M488.87,357.62H294.65l-.25-.44L197.54,189.42l.25-.44L294.65,21.22H488.87L586,189.42l-.25.43Zm-193.22-1.74H487.87L584,189.42,487.87,23H295.65l-96.1,166.47Z"/></g><g class="cls-66"><path class="cls-41" d="M492.46,363.83H291.06l-.25-.45-100.44-174L291.06,15h201.4l.26.45,100.44,174ZM292.1,362H491.43L591.1,189.42,491.43,16.79H292.1L192.43,189.42Z"/></g><g class="cls-67"><path class="cls-41" d="M496.05,370H287.48l-.27-.46-104-180.16.27-.46,104-180.17H496.05l.26.46,104,180.17-.27.46Zm-207.51-1.83H495L598.21,189.42,495,10.62H288.54L185.31,189.42Z"/></g><g class="cls-68"><path class="cls-41" d="M499.64,376.26H283.89L176,189.42,283.89,2.57H499.64l.27.47,107.6,186.38ZM285,374.37H498.55l106.78-185L498.55,4.46H285l-106.79,185Z"/></g><g class="cls-69"><path class="cls-41" d="M503.22,382.47H280.3L168.84,189.42l.28-.49L280.3-3.64H503.22l.28.48L614.69,189.42l-.28.48Zm-221.8-1.94H502.11L612.45,189.42,502.11-1.7H281.42L171.08,189.42Z"/></g><g class="cls-70"><path class="cls-41" d="M506.81,388.69H276.71l-115-199.27,115-199.28h230.1L621.86,189.42Zm-228.95-2h227.8L619.57,189.42,505.66-7.87H277.86L164,189.42Z"/></g><g class="cls-71"><path class="cls-41" d="M510.4,394.9H273.13l-.3-.51-118.34-205,.29-.51,118.35-205H510.4l.29.51L629,189.42l-.3.51Zm-236.1-2H509.22L626.68,189.42,509.22-14H274.3L156.84,189.42Z"/></g><g class="cls-72"><path class="cls-41" d="M514,401.12H269.54L147.31,189.42,269.54-22.28H514l122.22,211.7ZM270.75,399h242l121-209.61-121-209.61h-242l-121,209.61Z"/></g><g class="cls-73"><path class="cls-41" d="M517.58,407.33H266l-.31-.54L140.14,189.42l.31-.54L266-28.5H517.58l.31.54,125.5,217.38-.31.53Zm-250.39-2.14H516.34L640.92,189.42,516.34-26.36H267.19L142.61,189.42Z"/></g><g class="cls-74"><path class="cls-41" d="M521.16,413.54H262.36L133,189.42,262.36-34.71h258.8l.32.55L650.56,189.42Zm-257.53-2.19H519.9L648,189.42,519.9-32.52H263.63L135.49,189.42Z"/></g><g class="cls-75"><path class="cls-41" d="M524.75,419.76h-266l-.32-.56L125.79,189.42l.32-.56L258.77-40.93h266l.33.56L657.74,189.42l-.32.56Zm-264.68-2.24H523.46l131.69-228.1L523.46-38.68H260.07L128.38,189.42Z"/></g><g class="cls-76"><path class="cls-41" d="M528.34,426H255.19L118.61,189.42,255.19-47.14H528.34l.33.57,136.25,236Zm-271.83-2.29H527L662.27,189.42,527-44.85H256.51L121.26,189.42Z"/></g><g class="cls-77"><path class="cls-41" d="M531.93,432.19H251.6l-.34-.59L111.44,189.42l.33-.59L251.6-53.35H531.93l.33.58L672.09,189.42l-.34.58Zm-279-2.35H530.57L669.38,189.42,530.57-51H253L114.14,189.42Z"/></g><g class="cls-78"><path class="cls-41" d="M535.51,438.4H248l-.34-.6L104.26,189.42,248-59.57h287.5l.35.6L679.27,189.42ZM249.39,436H534.13L676.5,189.42,534.13-57.18H249.39L107,189.42Z"/></g><g class="cls-79"><path class="cls-41" d="M539.1,444.62H244.42l-.35-.62-147-254.58.36-.62,147-254.58H539.1l147.34,255.2-.35.61Zm-293.26-2.45H537.69L683.62,189.42,537.69-63.34H245.84L99.91,189.42Z"/></g><g class="cls-80"><path class="cls-41" d="M542.69,450.83H240.84l-.36-.62L89.91,189.42,240.84-72H542.69L693.62,189.42Zm-300.41-2.5h299L690.74,189.42,541.25-69.5h-299L92.79,189.42Z"/></g><g class="cls-81"><path class="cls-41" d="M546.28,457h-309l-.37-.63-154.15-267,.37-.64,154.15-267h309l.37.63,154.14,267-.36.63ZM238.72,454.5H544.81l153-265.08-153-265.09H238.72l-153,265.09Z"/></g><g class="cls-82"><path class="cls-41" d="M549.87,463.26H233.66l-.37-.65L75.56,189.42,233.66-84.43H549.87L708,189.42Zm-314.71-2.6H548.37L705,189.42,548.37-81.83H235.16L78.56,189.42Z"/></g><g class="cls-83"><path class="cls-41" d="M553.45,469.47H230.07l-.38-.66L68.38,189.42l.38-.67L230.07-90.64H553.45l.39.66,161.3,279.4-.38.66ZM231.6,466.82H551.92l160.17-277.4L551.92-88H231.6L71.44,189.42Z"/></g><g class="cls-84"><path class="cls-41" d="M557,475.69H226.48l-.38-.68L61.21,189.42l.39-.68L226.48-96.85H557L722.32,189.42l-.39.67ZM228,473H555.48L719.2,189.42,555.48-94.16H228L64.32,189.42Z"/></g><g class="cls-85"><path class="cls-41" d="M560.63,481.9H222.9L54,189.42,222.9-103.07H560.63l.4.69L729.5,189.42Zm-336.15-2.75H559L726.32,189.42,559-100.32H224.48L57.21,189.42Z"/></g><g class="cls-86"><path class="cls-41" d="M564.22,488.11H219.31l-.41-.69-172-298,.4-.7,172.05-298H564.22l172.45,298.7-.4.7Zm-343.29-2.79H562.6l170.84-295.9L562.6-106.48H220.93L50.09,189.42Z"/></g><g class="cls-87"><path class="cls-41" d="M567.81,494.33H215.72l-.41-.71L39.68,189.42l.41-.72L215.72-115.5H567.81l176,304.92-.41.71Zm-350.44-2.85H566.16L740.55,189.42,566.16-112.65H217.37L43,189.42Z"/></g><g class="cls-88"><path class="cls-41" d="M571.39,500.54H212.13L32.5,189.42l.42-.73,179.21-310.4H571.39l.42.72L751,189.42l-.42.72Zm-357.58-2.9H569.72L747.67,189.42,569.72-118.81H213.81l-178,308.23Z"/></g><g class="cls-89"><path class="cls-41" d="M575,506.76H208.55l-.43-.74L25.33,189.42l.42-.74,182.8-316.61H575L758.2,189.42l-.43.73Zm-364.73-2.95h363L754.79,189.42,573.28-125h-363L28.74,189.42Z"/></g><g class="cls-90"><path class="cls-41" d="M578.57,513H205L18.15,189.42l.44-.75L205-134.14H578.57l186.8,323.56-.43.75Zm-371.88-3H576.83L761.91,189.42,576.83-131.14H206.69L21.62,189.42Z"/></g><g class="cls-91"><path class="cls-41" d="M582.16,519.19H201.37L11,189.42l.44-.77,190-329H582.16l.44.76,189.95,329-.44.76Zm-379-3.06H580.39L769,189.42,580.39-137.3H203.13L14.5,189.42Z"/></g><path class="cls-41" d="M585.74,525.4h-388l-.45-.78L3.8,189.42l194-336h388l.45.78L779.72,189.42Zm-386.17-3.1H584L776.14,189.42,584-143.46H199.57L7.39,189.42Z"/></g></g><g class="cls-92"><g class="cls-93"><circle class="cls-94" cx="27.94" cy="576.82" r="203.54"/><circle class="cls-95" cx="27.94" cy="576.82" r="211.95"/><circle class="cls-96" cx="27.94" cy="576.82" r="220.36"/><circle class="cls-97" cx="27.94" cy="576.82" r="228.77"/><circle class="cls-98" cx="27.94" cy="576.82" r="237.17"/><circle class="cls-99" cx="27.94" cy="576.82" r="245.58"/><circle class="cls-100" cx="27.94" cy="576.82" r="253.99"/><circle class="cls-101" cx="27.94" cy="576.82" r="262.4"/><circle class="cls-102" cx="27.94" cy="576.82" r="270.81"/><circle class="cls-103" cx="27.94" cy="576.82" r="279.22"/><circle class="cls-104" cx="27.94" cy="576.82" r="287.63"/><circle class="cls-105" cx="27.94" cy="576.82" r="296.04"/><circle class="cls-106" cx="27.94" cy="576.82" r="304.45"/><circle class="cls-107" cx="27.94" cy="576.82" r="312.86"/><circle class="cls-108" cx="27.94" cy="576.82" r="321.26"/><circle class="cls-109" cx="27.94" cy="576.82" r="329.67"/><circle class="cls-110" cx="27.94" cy="576.82" r="338.08"/><circle class="cls-111" cx="27.94" cy="576.82" r="346.49"/><circle class="cls-112" cx="27.94" cy="576.82" r="354.9"/></g></g></g></g></svg>