<svg id="Capa_1" data-name="Capa 1" xmlns="http://www.w3.org/2000/svg" xmlns:xlink="http://www.w3.org/1999/xlink" viewBox="0 0 380 380"><defs><style>.cls-1,.cls-10,.cls-11,.cls-12,.cls-13,.cls-14,.cls-15,.cls-16,.cls-17,.cls-18,.cls-19,.cls-20,.cls-21,.cls-22,.cls-23,.cls-24,.cls-25,.cls-26,.cls-27,.cls-28,.cls-29,.cls-30,.cls-31,.cls-32,.cls-33,.cls-34,.cls-35,.cls-36,.cls-37,.cls-38,.cls-39,.cls-40,.cls-41,.cls-42,.cls-43,.cls-44,.cls-45,.cls-46,.cls-5,.cls-6,.cls-7,.cls-8,.cls-9{fill:none;}.cls-2{clip-path:url(#clip-path);}.cls-3{fill:#1a1a1a;}.cls-4{opacity:0.25;}.cls-10,.cls-11,.cls-12,.cls-13,.cls-14,.cls-15,.cls-16,.cls-17,.cls-18,.cls-19,.cls-20,.cls-21,.cls-22,.cls-23,.cls-24,.cls-25,.cls-26,.cls-27,.cls-28,.cls-29,.cls-30,.cls-31,.cls-32,.cls-33,.cls-34,.cls-35,.cls-36,.cls-37,.cls-38,.cls-39,.cls-40,.cls-41,.cls-42,.cls-43,.cls-44,.cls-45,.cls-46,.cls-5,.cls-6,.cls-7,.cls-8,.cls-9{stroke:#fff;stroke-miterlimit:10;}.cls-5{stroke-opacity:0;stroke-width:0.29px;}.cls-6{stroke-width:0.42px;opacity:0.02;}.cls-10,.cls-11,.cls-12,.cls-13,.cls-14,.cls-15,.cls-16,.cls-17,.cls-18,.cls-19,.cls-20,.cls-21,.cls-22,.cls-23,.cls-24,.cls-25,.cls-26,.cls-27,.cls-28,.cls-29,.cls-30,.cls-31,.cls-32,.cls-33,.cls-34,.cls-35,.cls-36,.cls-37,.cls-38,.cls-39,.cls-40,.cls-41,.cls-42,.cls-43,.cls-44,.cls-45,.cls-6,.cls-7,.cls-8,.cls-9{isolation:isolate;}.cls-7{stroke-width:0.56px;opacity:0.05;}.cls-8{stroke-width:0.7px;opacity:0.07;}.cls-9{stroke-width:0.83px;opacity:0.1;}.cls-10{stroke-width:0.97px;opacity:0.12;}.cls-11{stroke-width:1.11px;opacity:0.15;}.cls-12{stroke-width:1.24px;opacity:0.17;}.cls-13{stroke-width:1.38px;opacity:0.2;}.cls-14{stroke-width:1.52px;opacity:0.22;}.cls-15{stroke-width:1.65px;opacity:0.24;}.cls-16{stroke-width:1.79px;opacity:0.27;}.cls-17{stroke-width:1.92px;opacity:0.29;}.cls-18{stroke-width:2.06px;opacity:0.32;}.cls-19{stroke-width:2.2px;opacity:0.34;}.cls-20{stroke-width:2.33px;opacity:0.37;}.cls-21{stroke-width:2.47px;opacity:0.39;}.cls-22{stroke-width:2.61px;opacity:0.41;}.cls-23{stroke-width:2.74px;opacity:0.44;}.cls-24{stroke-width:2.88px;opacity:0.46;}.cls-25{stroke-width:3.02px;opacity:0.49;}.cls-26{stroke-width:3.15px;opacity:0.51;}.cls-27{stroke-width:3.29px;opacity:0.54;}.cls-28{stroke-width:3.43px;opacity:0.56;}.cls-29{stroke-width:3.56px;opacity:0.59;}.cls-30{stroke-width:3.7px;opacity:0.61;}.cls-31{stroke-width:3.84px;opacity:0.63;}.cls-32{stroke-width:3.97px;opacity:0.66;}.cls-33{stroke-width:4.11px;opacity:0.68;}.cls-34{stroke-width:4.24px;opacity:0.71;}.cls-35{stroke-width:4.38px;opacity:0.73;}.cls-36{stroke-width:4.52px;opacity:0.76;}.cls-37{stroke-width:4.65px;opacity:0.78;}.cls-38{stroke-width:4.79px;opacity:0.8;}.cls-39{stroke-width:4.93px;opacity:0.83;}.cls-40{stroke-width:5.06px;opacity:0.85;}.cls-41{stroke-width:5.2px;opacity:0.88;}.cls-42{stroke-width:5.34px;opacity:0.9;}.cls-43{stroke-width:5.47px;opacity:0.93;}.cls-44{stroke-width:5.61px;opacity:0.95;}.cls-45{stroke-width:5.75px;opacity:0.98;}.cls-46{stroke-width:5.88px;}</style><clipPath id="clip-path"><rect class="cls-1" x="-5.23" y="-3.25" width="391.01" height="385.34"/></clipPath></defs><title>ss1</title><g id="Layer_1" data-name="Layer 1"><g class="cls-2"><rect class="cls-3" x="-8.09" y="-4.78" width="396.99" height="389.84"/><g class="cls-4"><ellipse class="cls-5" cx="22.39" cy="175.99" rx="10.47" ry="10.32"/><ellipse class="cls-6" cx="22.39" cy="175.99" rx="19.16" ry="18.88"/><ellipse class="cls-7" cx="22.39" cy="175.99" rx="27.85" ry="27.45"/><ellipse class="cls-8" cx="22.39" cy="175.99" rx="36.55" ry="36.02"/><ellipse class="cls-9" cx="22.39" cy="175.99" rx="45.24" ry="44.58"/><ellipse class="cls-10" cx="22.39" cy="175.99" rx="53.93" ry="53.15"/><ellipse class="cls-11" cx="22.39" cy="175.99" rx="62.61" ry="61.7"/><ellipse class="cls-12" cx="22.39" cy="175.99" rx="71.3" ry="70.27"/><ellipse class="cls-13" cx="22.39" cy="175.99" rx="80" ry="78.84"/><ellipse class="cls-14" cx="22.39" cy="175.99" rx="88.69" ry="87.4"/><ellipse class="cls-15" cx="22.39" cy="175.99" rx="97.38" ry="95.97"/><ellipse class="cls-16" cx="22.39" cy="175.99" rx="106.07" ry="104.53"/><ellipse class="cls-17" cx="22.39" cy="175.99" rx="114.77" ry="113.1"/><ellipse class="cls-18" cx="22.39" cy="175.99" rx="123.46" ry="121.67"/><ellipse class="cls-19" cx="22.39" cy="175.99" rx="132.15" ry="130.23"/><ellipse class="cls-20" cx="22.39" cy="175.99" rx="140.84" ry="138.8"/><ellipse class="cls-21" cx="22.39" cy="175.99" rx="149.53" ry="147.36"/><ellipse class="cls-22" cx="22.39" cy="175.99" rx="158.22" ry="155.92"/><ellipse class="cls-23" cx="22.39" cy="175.99" rx="166.91" ry="164.49"/><ellipse class="cls-24" cx="22.39" cy="175.99" rx="175.6" ry="173.05"/><ellipse class="cls-25" cx="22.39" cy="175.99" rx="184.29" ry="181.62"/><ellipse class="cls-26" cx="22.39" cy="175.99" rx="192.98" ry="190.18"/><ellipse class="cls-27" cx="22.39" cy="175.99" rx="201.68" ry="198.75"/><ellipse class="cls-28" cx="22.39" cy="175.99" rx="210.37" ry="207.32"/><ellipse class="cls-29" cx="22.39" cy="175.99" rx="219.06" ry="215.88"/><ellipse class="cls-30" cx="22.39" cy="175.99" rx="227.75" ry="224.45"/><ellipse class="cls-31" cx="22.39" cy="175.99" rx="236.44" ry="233.02"/><ellipse class="cls-32" cx="22.39" cy="175.99" rx="245.13" ry="241.57"/><ellipse class="cls-33" cx="22.39" cy="175.99" rx="253.82" ry="250.14"/><ellipse class="cls-34" cx="22.39" cy="175.99" rx="262.51" ry="258.7"/><ellipse class="cls-35" cx="22.39" cy="175.99" rx="271.2" ry="267.27"/><ellipse class="cls-36" cx="22.39" cy="175.99" rx="279.9" ry="275.84"/><ellipse class="cls-37" cx="22.39" cy="175.99" rx="288.59" ry="284.4"/><ellipse class="cls-38" cx="22.39" cy="175.99" rx="297.28" ry="292.97"/><ellipse class="cls-39" cx="22.39" cy="175.99" rx="305.97" ry="301.53"/><ellipse class="cls-40" cx="22.39" cy="175.99" rx="314.66" ry="310.1"/><ellipse class="cls-41" cx="22.39" cy="175.99" rx="323.36" ry="318.67"/><ellipse class="cls-42" cx="22.39" cy="175.99" rx="332.04" ry="327.22"/><ellipse class="cls-43" cx="22.39" cy="175.99" rx="340.73" ry="335.79"/><ellipse class="cls-44" cx="22.39" cy="175.99" rx="349.42" ry="344.35"/><ellipse class="cls-45" cx="22.39" cy="175.99" rx="358.11" ry="352.92"/><ellipse class="cls-46" cx="22.39" cy="175.99" rx="366.81" ry="361.49"/></g></g></g></svg>