<svg xmlns="http://www.w3.org/2000/svg" xmlns:xlink="http://www.w3.org/1999/xlink" viewBox="0 0 380 380"><defs><style>.cls-1{fill:none;}.cls-2{isolation:isolate;}.cls-3{clip-path:url(#clip-path);}.cls-4{fill:#ccc;}.cls-5{opacity:0.4;mix-blend-mode:overlay;}.cls-6{opacity:0;}.cls-7{fill:#fff;}.cls-8{opacity:0.02;}.cls-9{opacity:0.04;}.cls-10{opacity:0.06;}.cls-11{opacity:0.08;}.cls-12{opacity:0.1;}.cls-13{opacity:0.12;}.cls-14{opacity:0.14;}.cls-15{opacity:0.16;}.cls-16{opacity:0.18;}.cls-17{opacity:0.2;}.cls-18{opacity:0.22;}.cls-19{opacity:0.24;}.cls-20{opacity:0.25;}.cls-21{opacity:0.27;}.cls-22{opacity:0.29;}.cls-23{opacity:0.31;}.cls-24{opacity:0.33;}.cls-25{opacity:0.35;}.cls-26{opacity:0.37;}.cls-27{opacity:0.39;}.cls-28{opacity:0.41;}.cls-29{opacity:0.43;}.cls-30{opacity:0.45;}.cls-31{opacity:0.47;}.cls-32{opacity:0.49;}.cls-33{opacity:0.51;}.cls-34{opacity:0.53;}.cls-35{opacity:0.55;}.cls-36{opacity:0.57;}.cls-37{opacity:0.59;}.cls-38{opacity:0.61;}.cls-39{opacity:0.63;}.cls-40{opacity:0.65;}.cls-41{opacity:0.67;}.cls-42{opacity:0.69;}.cls-43{opacity:0.71;}.cls-44{opacity:0.73;}.cls-45{opacity:0.75;}.cls-46{opacity:0.76;}.cls-47{opacity:0.78;}.cls-48{opacity:0.8;}.cls-49{opacity:0.82;}.cls-50{opacity:0.84;}.cls-51{opacity:0.86;}.cls-52{opacity:0.88;}.cls-53{opacity:0.9;}.cls-54{opacity:0.92;}.cls-55{opacity:0.94;}.cls-56{opacity:0.96;}.cls-57{opacity:0.98;}</style><clipPath id="clip-path"><rect class="cls-1" x="1.34" y="1.16" width="378.66" height="378.66"/></clipPath></defs><title>Back-servicios</title><g class="cls-2"><g id="Layer_1" data-name="Layer 1"><g class="cls-3"><rect class="cls-4" x="-1.45" y="-0.34" width="384.45" height="383.09"/><g class="cls-5"><g class="cls-6"><path class="cls-7" d="M2.77,208.47h-22l-.07-.13-10.93-18.92,11-19.06h22l.07.13,10.93,18.93ZM-15,201.11H-1.48l6.75-11.69-6.75-11.7H-15l-6.75,11.7Z"/></g><g class="cls-8"><path class="cls-7" d="M6.35,214.69H-22.83l-14.59-25.27,14.59-25.28H6.35L21,189.42Zm-28.85-.57H6l14.26-24.7L6,164.71H-22.5l-14.26,24.71Z"/></g><g class="cls-9"><path class="cls-7" d="M9.94,220.9H-26.42l-.08-.15-18.09-31.33,18.17-31.49H9.94l.09.15,18.09,31.34Zm-36-.62H9.58l17.83-30.86L9.58,158.55H-26.06l-17.82,30.87Z"/></g><g class="cls-10"><path class="cls-7" d="M13.53,227.12H-30l-.1-.17-21.67-37.53L-30,151.71H13.53l.1.17L35.3,189.42Zm-43.15-.67H13.14l21.38-37-21.38-37H-29.62l-21.38,37Z"/></g><g class="cls-11"><path class="cls-7" d="M17.12,233.33H-33.59l-.11-.18-25.25-43.73.11-.18,25.25-43.74H17.12l.1.18,25.25,43.74-.1.18Zm-50.3-.72H16.7l24.94-43.19L16.7,146.22H-33.18l-24.93,43.2Z"/></g><g class="cls-12"><path class="cls-7" d="M20.71,239.55H-37.18l-.11-.2-28.83-49.93,28.94-50.13H20.71l.11.19,28.83,49.94Zm-57.44-.78h57l28.5-49.35-28.5-49.36h-57l-28.5,49.36Z"/></g><g class="cls-13"><path class="cls-7" d="M24.29,245.76H-40.77L-73.3,189.42l32.53-56.35H24.29l32.53,56.35Zm-64.58-.82H23.82l32.05-55.52-32-55.53H-40.29l-32.06,55.53Z"/></g><g class="cls-14"><path class="cls-7" d="M27.88,252H-44.35l-.13-.21-36-62.34.12-.22,36-62.34H27.88l.13.22,36,62.34-.13.21Zm-71.73-.87H27.38L63,189.42,27.38,127.73H-43.85l-35.62,61.69Z"/></g><g class="cls-15"><path class="cls-7" d="M31.47,258.19H-47.94l-39.71-68.77,39.71-68.78H31.47l39.7,68.78Zm-78.88-.93H30.94l39.17-67.84L30.94,121.57H-47.41l-39.17,67.85Z"/></g><g class="cls-16"><path class="cls-7" d="M35.06,264.4H-51.53l-.14-.24-43.15-74.74,43.29-75H35.06l.14.24,43.15,74.75Zm-86-1H34.49l42.74-74-42.74-74H-51l-42.73,74Z"/></g><g class="cls-17"><path class="cls-7" d="M38.64,270.62H-55.12L-102,189.42l46.88-81.21H38.64l46.89,81.21Zm-93.17-1H38.05l46.29-80.17L38.05,109.24H-54.53l-46.29,80.18Z"/></g><g class="cls-18"><path class="cls-7" d="M42.23,276.83H-58.71l-.15-.27-50.32-87.14L-58.71,102H42.23l.16.27L92.7,189.42Zm-100.32-1.07h99.7l49.85-86.34L41.61,103.08h-99.7l-49.84,86.34Z"/></g><g class="cls-19"><path class="cls-7" d="M45.82,283H-62.29l-.17-.28-53.89-93.34.16-.29,53.9-93.34H45.82l.16.28,53.9,93.35-.17.28Zm-107.46-1.12H45.17l53.41-92.5L45.17,96.91H-61.64L-115,189.42Z"/></g><g class="cls-20"><path class="cls-7" d="M49.41,289.26H-65.88L-66,289l-57.48-99.54,57.65-99.85H49.41l.17.3,57.47,99.55ZM-65.2,288.08H48.73l57-98.66-57-98.67H-65.2l-57,98.67Z"/></g><g class="cls-21"><path class="cls-7" d="M53,295.47H-69.47l-.18-.3-61-105.75.18-.31L-69.47,83.36H53l61.23,106.06-.18.3Zm-121.76-1.22H52.29l60.52-104.83L52.29,84.59h-121l-60.52,104.83Z"/></g><g class="cls-22"><path class="cls-7" d="M56.58,301.69H-73.06l-64.82-112.27.19-.32,64.63-112H56.58l.19.32,64.63,112-.18.32Zm-128.9-1.28H55.85l64.08-111-64.08-111H-72.32l-64.08,111Z"/></g><g class="cls-23"><path class="cls-7" d="M60.17,307.9H-76.64L-145,189.42-76.64,70.93H60.17l.19.33,68.22,118.16Zm-136-1.33H59.4L127,189.42,59.4,72.26H-75.88l-67.64,117.16Z"/></g><g class="cls-24"><path class="cls-7" d="M63.76,314.12h-144l-.2-.35-71.8-124.35.2-.35,71.8-124.35h144l72,124.7-.19.34Zm-143.2-1.38H63l71.2-123.32L63,66.1H-79.44l-71.19,123.32Z"/></g><g class="cls-25"><path class="cls-7" d="M67.35,320.33H-83.82L-159.4,189.42l.2-.36L-83.82,58.5H67.35l75.58,130.92-.21.35ZM-83,318.9H66.52l74.76-129.48L66.52,59.93H-83l-74.76,129.49Z"/></g><g class="cls-26"><path class="cls-7" d="M70.93,326.54H-87.41l-.21-.37-79-136.75L-87.41,52.29H70.93l79.18,137.13Zm-157.48-1.48H70.08L148.4,189.42,70.08,53.77H-86.55l-78.32,135.65Z"/></g><g class="cls-27"><path class="cls-7" d="M74.52,332.76H-91l-.22-.38-82.54-143,.23-.39L-91,46.07H74.52l.22.39,82.54,143-.22.38Zm-164.63-1.53H73.64l81.87-141.81L73.64,47.6H-90.11L-172,189.42Z"/></g><g class="cls-28"><path class="cls-7" d="M78.11,339H-94.58l-.23-.39-86.12-149.16L-94.58,39.86H78.11l86.35,149.56Zm-171.78-1.58H77.2l85.43-148L77.2,41.44H-93.67l-85.43,148Z"/></g><g class="cls-29"><path class="cls-7" d="M81.7,345.19H-98.17l-.24-.41-89.7-155.36.24-.41,89.7-155.37H81.7l.23.41,89.7,155.37-.23.4Zm-178.93-1.64h178l89-154.13-89-154.14h-178l-89,154.14Z"/></g><g class="cls-30"><path class="cls-7" d="M85.29,351.4h-187L-102,351l-93.28-161.56,93.52-162H85.29l.24.42,93.28,161.57Zm-186.08-1.68H84.31l92.55-160.3L84.31,29.11h-185.1l-92.55,160.31Z"/></g><g class="cls-31"><path class="cls-7" d="M88.87,357.62H-105.35l-.25-.44-96.86-167.76.25-.44,96.86-167.76H88.87L186,189.42l-.25.43Zm-193.22-1.74H87.87L184,189.42,87.87,23H-104.35l-96.1,166.47Z"/></g><g class="cls-32"><path class="cls-7" d="M92.46,363.83h-201.4l-.25-.45-100.44-174L-108.94,15H92.46l.26.45,100.44,174ZM-107.9,362H91.43L191.1,189.42,91.43,16.79H-107.9l-99.67,172.63Z"/></g><g class="cls-33"><path class="cls-7" d="M96.05,370H-112.52l-.27-.46-104-180.16.27-.46,104-180.17H96.05l.26.46,104,180.17-.27.46Zm-207.51-1.83H95L198.21,189.42,95,10.62H-111.46l-103.23,178.8Z"/></g><g class="cls-34"><path class="cls-7" d="M99.64,376.26H-116.11L-224,189.42-116.11,2.57H99.64l.27.47,107.6,186.38ZM-115,374.37H98.55l106.78-185L98.55,4.46H-115l-106.79,185Z"/></g><g class="cls-35"><path class="cls-7" d="M103.22,382.47H-119.7L-231.16,189.42l.28-.49L-119.7-3.64H103.22l.28.48L214.69,189.42l-.28.48Zm-221.8-1.94H102.11L212.45,189.42,102.11-1.7H-118.58L-228.92,189.42Z"/></g><g class="cls-36"><path class="cls-7" d="M106.81,388.69h-230.1l-115-199.27L-123.29-9.86h230.1L221.86,189.42Zm-228.95-2h227.8L219.57,189.42,105.66-7.87h-227.8L-236,189.42Z"/></g><g class="cls-37"><path class="cls-7" d="M110.4,394.9H-126.87l-.3-.51-118.34-205,.29-.51,118.35-205H110.4l.29.51L229,189.42l-.3.51Zm-236.1-2H109.22L226.68,189.42,109.22-14H-125.7L-243.16,189.42Z"/></g><g class="cls-38"><path class="cls-7" d="M114,401.12H-130.46l-122.23-211.7,122.23-211.7H114l122.22,211.7ZM-129.25,399h242l121-209.61-121-209.61h-242l-121,209.61Z"/></g><g class="cls-39"><path class="cls-7" d="M117.58,407.33H-134l-.31-.54-125.5-217.37.31-.54L-134-28.5H117.58l.31.54,125.5,217.38-.31.53Zm-250.39-2.14H116.34L240.92,189.42,116.34-26.36H-132.81L-257.39,189.42Z"/></g><g class="cls-40"><path class="cls-7" d="M121.16,413.54h-258.8L-267,189.42l129.4-224.13h258.8l.32.55L250.56,189.42Zm-257.53-2.19H119.9L248,189.42,119.9-32.52H-136.37L-264.51,189.42Z"/></g><g class="cls-41"><path class="cls-7" d="M124.75,419.76h-266l-.32-.56L-274.21,189.42l.32-.56L-141.23-40.93h266l.33.56L257.74,189.42l-.32.56Zm-264.68-2.24H123.46l131.69-228.1L123.46-38.68H-139.93l-131.69,228.1Z"/></g><g class="cls-42"><path class="cls-7" d="M128.34,426H-144.81L-281.39,189.42-144.81-47.14H128.34l.33.57,136.25,236Zm-271.83-2.29H127L262.27,189.42,127-44.85H-143.49L-278.74,189.42Z"/></g><g class="cls-43"><path class="cls-7" d="M131.93,432.19H-148.4l-.34-.59L-288.56,189.42l.33-.59L-148.4-53.35H131.93l.33.58L272.09,189.42l-.34.58Zm-279-2.35H130.57L269.38,189.42,130.57-51H-147L-285.86,189.42Z"/></g><g class="cls-44"><path class="cls-7" d="M135.51,438.4H-152l-.34-.6L-295.74,189.42-152-59.57h287.5l.35.6L279.27,189.42ZM-150.61,436H134.13L276.5,189.42,134.13-57.18H-150.61L-293,189.42Z"/></g><g class="cls-45"><path class="cls-7" d="M139.1,444.62H-155.58l-.35-.62-147-254.58.36-.62,147-254.58H139.1l147.34,255.2-.35.61Zm-293.26-2.45H137.69L283.62,189.42,137.69-63.34H-154.16L-300.09,189.42Z"/></g><g class="cls-46"><path class="cls-7" d="M142.69,450.83H-159.16l-.36-.62L-310.09,189.42-159.16-72H142.69L293.62,189.42Zm-300.41-2.5h299L290.74,189.42,141.25-69.5h-299L-307.21,189.42Z"/></g><g class="cls-47"><path class="cls-7" d="M146.28,457h-309l-.37-.63-154.15-267,.37-.64,154.15-267h309l.37.63,154.14,267-.36.63Zm-307.56-2.54H144.81l153-265.08-153-265.09H-161.28l-153,265.09Z"/></g><g class="cls-48"><path class="cls-7" d="M149.87,463.26H-166.34l-.37-.65L-324.44,189.42l158.1-273.85H149.87L308,189.42Zm-314.71-2.6H148.37L305,189.42,148.37-81.83H-164.84l-156.6,271.25Z"/></g><g class="cls-49"><path class="cls-7" d="M153.45,469.47H-169.93l-.38-.66L-331.62,189.42l.38-.67L-169.93-90.64H153.45l.39.66,161.3,279.4-.38.66Zm-321.85-2.65H151.92l160.17-277.4L151.92-88H-168.4L-328.56,189.42Z"/></g><g class="cls-50"><path class="cls-7" d="M157,475.69H-173.52l-.38-.68L-338.79,189.42l.39-.68L-173.52-96.85H157L322.32,189.42l-.39.67ZM-172,473H155.48L319.2,189.42,155.48-94.16H-172L-335.68,189.42Z"/></g><g class="cls-51"><path class="cls-7" d="M160.63,481.9H-177.1L-346,189.42-177.1-103.07H160.63l.4.69L329.5,189.42Zm-336.15-2.75H159L326.32,189.42,159-100.32H-175.52L-342.79,189.42Z"/></g><g class="cls-52"><path class="cls-7" d="M164.22,488.11H-180.69l-.41-.69-172-298,.4-.7,172.05-298H164.22l172.45,298.7-.4.7Zm-343.29-2.79H162.6l170.84-295.9L162.6-106.48H-179.07l-170.84,295.9Z"/></g><g class="cls-53"><path class="cls-7" d="M167.81,494.33H-184.28l-.41-.71-175.63-304.2.41-.72,175.63-304.2H167.81l176,304.92-.41.71Zm-350.44-2.85H166.16L340.55,189.42,166.16-112.65H-182.63L-357,189.42Z"/></g><g class="cls-54"><path class="cls-7" d="M171.39,500.54H-187.87L-367.5,189.42l.42-.73,179.21-310.4H171.39l.42.72L351,189.42l-.42.72Zm-357.58-2.9H169.72l178-308.22-178-308.23H-186.19l-178,308.23Z"/></g><g class="cls-55"><path class="cls-7" d="M175,506.76H-191.45l-.43-.74-182.79-316.6.42-.74,182.8-316.61H175L358.2,189.42l-.43.73Zm-364.73-2.95h363L354.79,189.42,173.28-125h-363L-371.26,189.42Z"/></g><g class="cls-56"><path class="cls-7" d="M178.57,513H-195L-381.85,189.42l.44-.75L-195-134.14H178.57l186.8,323.56-.43.75Zm-371.88-3H176.83L361.91,189.42,176.83-131.14H-193.31L-378.38,189.42Z"/></g><g class="cls-57"><path class="cls-7" d="M182.16,519.19H-198.63L-389,189.42l.44-.77,190-329H182.16l.44.76,190,329-.44.76Zm-379-3.06H180.39L369,189.42,180.39-137.3H-196.87L-385.5,189.42Z"/></g><path class="cls-7" d="M185.74,525.4h-388l-.45-.78L-396.2,189.42l194-336h388l.45.78L379.72,189.42Zm-386.17-3.1H184L376.14,189.42,184-143.46H-200.43L-392.61,189.42Z"/></g></g></g></g></svg>