<svg xmlns="http://www.w3.org/2000/svg" xmlns:xlink="http://www.w3.org/1999/xlink" viewBox="0 0 380 380"><defs><style>.cls-1,.cls-10,.cls-11,.cls-12,.cls-13,.cls-14,.cls-15,.cls-16,.cls-17,.cls-18,.cls-19,.cls-46,.cls-47,.cls-48,.cls-49,.cls-5,.cls-50,.cls-51,.cls-52,.cls-53,.cls-54,.cls-55,.cls-56,.cls-57,.cls-58,.cls-59,.cls-6,.cls-60,.cls-61,.cls-62,.cls-63,.cls-64,.cls-65,.cls-66,.cls-67,.cls-68,.cls-69,.cls-7,.cls-70,.cls-71,.cls-72,.cls-73,.cls-74,.cls-75,.cls-76,.cls-77,.cls-78,.cls-79,.cls-8,.cls-80,.cls-81,.cls-82,.cls-83,.cls-84,.cls-85,.cls-86,.cls-87,.cls-9{fill:none;}.cls-2{isolation:isolate;}.cls-3{clip-path:url(#clip-path);}.cls-4{opacity:0.2;}.cls-21,.cls-4,.cls-45{mix-blend-mode:overlay;}.cls-10,.cls-11,.cls-12,.cls-13,.cls-14,.cls-15,.cls-16,.cls-17,.cls-18,.cls-19,.cls-46,.cls-47,.cls-48,.cls-49,.cls-5,.cls-50,.cls-51,.cls-52,.cls-53,.cls-54,.cls-55,.cls-56,.cls-57,.cls-58,.cls-59,.cls-6,.cls-60,.cls-61,.cls-62,.cls-63,.cls-64,.cls-65,.cls-66,.cls-67,.cls-68,.cls-69,.cls-7,.cls-70,.cls-71,.cls-72,.cls-73,.cls-74,.cls-75,.cls-76,.cls-77,.cls-78,.cls-79,.cls-8,.cls-80,.cls-81,.cls-82,.cls-83,.cls-84,.cls-85,.cls-86,.cls-87,.cls-9{stroke:#fff;stroke-miterlimit:10;}.cls-5{stroke-width:3.13px;opacity:0.55;}.cls-6{stroke-width:3.26px;opacity:0.58;}.cls-7{stroke-width:3.38px;opacity:0.61;}.cls-8{stroke-width:3.51px;opacity:0.65;}.cls-9{stroke-width:3.64px;opacity:0.68;}.cls-10{stroke-width:3.76px;opacity:0.71;}.cls-11{stroke-width:3.89px;opacity:0.74;}.cls-12{stroke-width:4.02px;opacity:0.77;}.cls-13{stroke-width:4.14px;opacity:0.81;}.cls-14{stroke-width:4.27px;opacity:0.84;}.cls-15{stroke-width:4.4px;opacity:0.87;}.cls-16{stroke-width:4.52px;opacity:0.9;}.cls-17{stroke-width:4.65px;opacity:0.94;}.cls-18{stroke-width:4.78px;opacity:0.97;}.cls-19{stroke-width:4.9px;}.cls-20{clip-path:url(#clip-path-2);}.cls-21{opacity:0.4;}.cls-22{opacity:0.61;}.cls-23{fill:#fff;}.cls-24{opacity:0.63;}.cls-25{opacity:0.65;}.cls-26{opacity:0.67;}.cls-27{opacity:0.69;}.cls-28{opacity:0.71;}.cls-29{opacity:0.73;}.cls-30{opacity:0.75;}.cls-31{opacity:0.76;}.cls-32{opacity:0.78;}.cls-33{opacity:0.8;}.cls-34{opacity:0.82;}.cls-35{opacity:0.84;}.cls-36{opacity:0.86;}.cls-37{opacity:0.88;}.cls-38{opacity:0.9;}.cls-39{opacity:0.92;}.cls-40{opacity:0.94;}.cls-41{opacity:0.96;}.cls-42{opacity:0.98;}.cls-43{clip-path:url(#clip-path-3);}.cls-44{fill:#1a1a1a;}.cls-45{opacity:0.25;}.cls-46{stroke-width:0.29px;opacity:0;}.cls-47{stroke-width:0.42px;opacity:0.02;}.cls-48{stroke-width:0.56px;opacity:0.05;}.cls-49{stroke-width:0.7px;opacity:0.07;}.cls-50{stroke-width:0.83px;opacity:0.1;}.cls-51{stroke-width:0.97px;opacity:0.12;}.cls-52{stroke-width:1.11px;opacity:0.15;}.cls-53{stroke-width:1.24px;opacity:0.17;}.cls-54{stroke-width:1.38px;opacity:0.2;}.cls-55{stroke-width:1.52px;opacity:0.22;}.cls-56{stroke-width:1.65px;opacity:0.24;}.cls-57{stroke-width:1.79px;opacity:0.27;}.cls-58{stroke-width:1.92px;opacity:0.29;}.cls-59{stroke-width:2.06px;opacity:0.32;}.cls-60{stroke-width:2.2px;opacity:0.34;}.cls-61{stroke-width:2.33px;opacity:0.37;}.cls-62{stroke-width:2.47px;opacity:0.39;}.cls-63{stroke-width:2.61px;opacity:0.41;}.cls-64{stroke-width:2.74px;opacity:0.44;}.cls-65{stroke-width:2.88px;opacity:0.46;}.cls-66{stroke-width:3.02px;opacity:0.49;}.cls-67{stroke-width:3.15px;opacity:0.51;}.cls-68{stroke-width:3.29px;opacity:0.54;}.cls-69{stroke-width:3.43px;opacity:0.56;}.cls-70{stroke-width:3.56px;opacity:0.59;}.cls-71{stroke-width:3.7px;opacity:0.61;}.cls-72{stroke-width:3.84px;opacity:0.63;}.cls-73{stroke-width:3.97px;opacity:0.66;}.cls-74{stroke-width:4.11px;opacity:0.68;}.cls-75{stroke-width:4.24px;opacity:0.71;}.cls-76{stroke-width:4.38px;opacity:0.73;}.cls-77{stroke-width:4.52px;opacity:0.76;}.cls-78{stroke-width:4.65px;opacity:0.78;}.cls-79{stroke-width:4.79px;opacity:0.8;}.cls-80{stroke-width:4.93px;opacity:0.83;}.cls-81{stroke-width:5.06px;opacity:0.85;}.cls-82{stroke-width:5.2px;opacity:0.88;}.cls-83{stroke-width:5.34px;opacity:0.9;}.cls-84{stroke-width:5.47px;opacity:0.93;}.cls-85{stroke-width:5.61px;opacity:0.95;}.cls-86{stroke-width:5.75px;opacity:0.98;}.cls-87{stroke-width:5.88px;}</style><clipPath id="clip-path"><rect class="cls-1" x="1.46" y="-400.27" width="378.66" height="378.66"/></clipPath><clipPath id="clip-path-2"><rect class="cls-1" x="401.34" y="-398.84" width="378.66" height="378.66"/></clipPath><clipPath id="clip-path-3"><rect class="cls-1" x="1.22" y="0.85" width="378.32" height="378.32"/></clipPath></defs><title>Back-servicios</title><g class="cls-2"><g id="Layer_1" data-name="Layer 1"><g class="cls-3"><g class="cls-4"><rect class="cls-5" x="-144.75" y="-367.34" width="307.37" height="307.37" transform="translate(153.69 -56.26) rotate(-45)"/><rect class="cls-6" x="-152.73" y="-375.32" width="323.33" height="323.33" transform="translate(153.69 -56.26) rotate(-45)"/><rect class="cls-7" x="-160.71" y="-383.3" width="339.29" height="339.29" transform="translate(153.69 -56.26) rotate(-45)"/><rect class="cls-8" x="-168.69" y="-391.28" width="355.24" height="355.24" transform="translate(153.69 -56.26) rotate(-45)"/><rect class="cls-9" x="-176.66" y="-399.26" width="371.2" height="371.2" transform="translate(153.69 -56.26) rotate(-45)"/><rect class="cls-10" x="-184.64" y="-407.24" width="387.16" height="387.16" transform="translate(153.69 -56.26) rotate(-45)"/><rect class="cls-11" x="-192.62" y="-415.22" width="403.12" height="403.12" transform="translate(153.69 -56.26) rotate(-45)"/><rect class="cls-12" x="-200.6" y="-423.19" width="419.08" height="419.08" transform="translate(153.69 -56.26) rotate(-45)"/><rect class="cls-13" x="-208.58" y="-431.17" width="435.04" height="435.04" transform="translate(153.69 -56.26) rotate(-45)"/><rect class="cls-14" x="-216.56" y="-439.15" width="451" height="451" transform="translate(153.69 -56.26) rotate(-45)"/><rect class="cls-15" x="-224.54" y="-447.13" width="466.96" height="466.96" transform="translate(153.69 -56.26) rotate(-45)"/><rect class="cls-16" x="-232.52" y="-455.11" width="482.92" height="482.92" transform="translate(153.69 -56.26) rotate(-45)"/><rect class="cls-17" x="-240.5" y="-463.09" width="498.88" height="498.88" transform="translate(153.69 -56.26) rotate(-45)"/><rect class="cls-18" x="-248.48" y="-471.07" width="514.84" height="514.84" transform="translate(153.69 -56.26) rotate(-45)"/><rect class="cls-19" x="-256.46" y="-479.05" width="530.8" height="530.8" transform="translate(153.69 -56.26) rotate(-45)"/></g></g><g class="cls-20"><g class="cls-21"><g class="cls-22"><path class="cls-23" d="M514,1.12H269.54L147.31-210.58l122.23-211.7H514l122.22,211.7ZM270.75-1h242l121-209.61-121-209.61h-242l-121,209.61Z"/></g><g class="cls-24"><path class="cls-23" d="M517.58,7.33H266l-.31-.54L140.14-210.58l.31-.54L266-428.5H517.58l.31.54,125.5,217.38-.31.53ZM267.19,5.19H516.34L640.92-210.58,516.34-426.36H267.19L142.61-210.58Z"/></g><g class="cls-25"><path class="cls-23" d="M521.16,13.54H262.36L133-210.58l129.4-224.13h258.8l.32.55L650.56-210.58ZM263.63,11.35H519.9L648-210.58,519.9-432.52H263.63L135.49-210.58Z"/></g><g class="cls-26"><path class="cls-23" d="M524.75,19.76h-266l-.32-.56L125.79-210.58l.32-.56L258.77-440.93h266l.33.56L657.74-210.58l-.32.56ZM260.07,17.52H523.46l131.69-228.1L523.46-438.68H260.07L128.38-210.58Z"/></g><g class="cls-27"><path class="cls-23" d="M528.34,26H255.19L118.61-210.58,255.19-447.14H528.34l.33.57,136.25,236ZM256.51,23.68H527L662.27-210.58,527-444.85H256.51L121.26-210.58Z"/></g><g class="cls-28"><path class="cls-23" d="M531.93,32.19H251.6l-.34-.59L111.44-210.58l.33-.59L251.6-453.35H531.93l.33.58L672.09-210.58l-.34.58ZM253,29.84H530.57L669.38-210.58,530.57-451H253L114.14-210.58Z"/></g><g class="cls-29"><path class="cls-23" d="M535.51,38.4H248l-.34-.6L104.26-210.58,248-459.57h287.5l.35.6L679.27-210.58ZM249.39,36H534.13L676.5-210.58,534.13-457.18H249.39L107-210.58Z"/></g><g class="cls-30"><path class="cls-23" d="M539.1,44.62H244.42l-.35-.62-147-254.58.36-.62,147-254.58H539.1l147.34,255.2-.35.61ZM245.84,42.17H537.69L683.62-210.58,537.69-463.34H245.84L99.91-210.58Z"/></g><g class="cls-31"><path class="cls-23" d="M542.69,50.83H240.84l-.36-.62L89.91-210.58,240.84-472H542.69L693.62-210.58Zm-300.41-2.5h299L690.74-210.58,541.25-469.5h-299L92.79-210.58Z"/></g><g class="cls-32"><path class="cls-23" d="M546.28,57h-309l-.37-.63-154.15-267,.37-.64,154.15-267h309l.37.63,154.14,267-.36.63ZM238.72,54.5H544.81l153-265.08-153-265.09H238.72l-153,265.09Z"/></g><g class="cls-33"><path class="cls-23" d="M549.87,63.26H233.66l-.37-.65L75.56-210.58l158.1-273.85H549.87L708-210.58Zm-314.71-2.6H548.37L705-210.58,548.37-481.83H235.16L78.56-210.58Z"/></g><g class="cls-34"><path class="cls-23" d="M553.45,69.47H230.07l-.38-.66L68.38-210.58l.38-.67L230.07-490.64H553.45l.39.66,161.3,279.4-.38.66ZM231.6,66.82H551.92l160.17-277.4L551.92-488H231.6L71.44-210.58Z"/></g><g class="cls-35"><path class="cls-23" d="M557,75.69H226.48L226.1,75,61.21-210.58l.39-.68L226.48-496.85H557L722.32-210.58l-.39.67ZM228,73H555.48L719.2-210.58,555.48-494.16H228L64.32-210.58Z"/></g><g class="cls-36"><path class="cls-23" d="M560.63,81.9H222.9L54-210.58,222.9-503.07H560.63l.4.69L729.5-210.58ZM224.48,79.15H559L726.32-210.58,559-500.32H224.48L57.21-210.58Z"/></g><g class="cls-37"><path class="cls-23" d="M564.22,88.11H219.31l-.41-.69-172-298,.4-.7,172.05-298H564.22l172.45,298.7-.4.7ZM220.93,85.32H562.6l170.84-295.9L562.6-506.48H220.93L50.09-210.58Z"/></g><g class="cls-38"><path class="cls-23" d="M567.81,94.33H215.72l-.41-.71L39.68-210.58l.41-.72L215.72-515.5H567.81l176,304.92-.41.71ZM217.37,91.48H566.16L740.55-210.58,566.16-512.65H217.37L43-210.58Z"/></g><g class="cls-39"><path class="cls-23" d="M571.39,100.54H212.13L32.5-210.58l.42-.73,179.21-310.4H571.39l.42.72L751-210.58l-.42.72Zm-357.58-2.9H569.72L747.67-210.58,569.72-518.81H213.81l-178,308.23Z"/></g><g class="cls-40"><path class="cls-23" d="M575,106.76H208.55l-.43-.74L25.33-210.58l.42-.74,182.8-316.61H575L758.2-210.58l-.43.73Zm-364.73-3h363L754.79-210.58,573.28-525h-363L28.74-210.58Z"/></g><g class="cls-41"><path class="cls-23" d="M578.57,113H205L18.15-210.58l.44-.75L205-534.14H578.57l186.8,323.56-.43.75Zm-371.88-3H576.83L761.91-210.58,576.83-531.14H206.69L21.62-210.58Z"/></g><g class="cls-42"><path class="cls-23" d="M582.16,119.19H201.37L11-210.58l.44-.77,190-329H582.16l.44.76,189.95,329-.44.76Zm-379-3.06H580.39L769-210.58,580.39-537.3H203.13L14.5-210.58Z"/></g><path class="cls-23" d="M585.74,125.4h-388l-.45-.78L3.8-210.58l194-336h388l.45.78L779.72-210.58Zm-386.17-3.1H584L776.14-210.58,584-543.46H199.57L7.39-210.58Z"/></g></g><g class="cls-43"><rect class="cls-44" x="-1.55" y="-0.65" width="384.1" height="382.74"/><g class="cls-45"><circle class="cls-46" cx="27.94" cy="176.82" r="10.13"/><circle class="cls-47" cx="27.94" cy="176.82" r="18.54"/><circle class="cls-48" cx="27.94" cy="176.82" r="26.95"/><circle class="cls-49" cx="27.94" cy="176.82" r="35.36"/><circle class="cls-50" cx="27.94" cy="176.82" r="43.77"/><circle class="cls-51" cx="27.94" cy="176.82" r="52.18"/><circle class="cls-52" cx="27.94" cy="176.82" r="60.58"/><circle class="cls-53" cx="27.94" cy="176.82" r="68.99"/><circle class="cls-54" cx="27.94" cy="176.82" r="77.4"/><circle class="cls-55" cx="27.94" cy="176.82" r="85.81"/><circle class="cls-56" cx="27.94" cy="176.82" r="94.22"/><circle class="cls-57" cx="27.94" cy="176.82" r="102.63"/><circle class="cls-58" cx="27.94" cy="176.82" r="111.04"/><circle class="cls-59" cx="27.94" cy="176.82" r="119.45"/><circle class="cls-60" cx="27.94" cy="176.82" r="127.86"/><circle class="cls-61" cx="27.94" cy="176.82" r="136.27"/><circle class="cls-62" cx="27.94" cy="176.82" r="144.68"/><circle class="cls-63" cx="27.94" cy="176.82" r="153.08"/><circle class="cls-64" cx="27.94" cy="176.82" r="161.49"/><circle class="cls-65" cx="27.94" cy="176.82" r="169.9"/><circle class="cls-66" cx="27.94" cy="176.82" r="178.31"/><circle class="cls-67" cx="27.94" cy="176.82" r="186.72"/><circle class="cls-68" cx="27.94" cy="176.82" r="195.13"/><circle class="cls-69" cx="27.94" cy="176.82" r="203.54"/><circle class="cls-70" cx="27.94" cy="176.82" r="211.95"/><circle class="cls-71" cx="27.94" cy="176.82" r="220.36"/><circle class="cls-72" cx="27.94" cy="176.82" r="228.77"/><circle class="cls-73" cx="27.94" cy="176.82" r="237.17"/><circle class="cls-74" cx="27.94" cy="176.82" r="245.58"/><circle class="cls-75" cx="27.94" cy="176.82" r="253.99"/><circle class="cls-76" cx="27.94" cy="176.82" r="262.4"/><circle class="cls-77" cx="27.94" cy="176.82" r="270.81"/><circle class="cls-78" cx="27.94" cy="176.82" r="279.22"/><circle class="cls-79" cx="27.94" cy="176.82" r="287.63"/><circle class="cls-80" cx="27.94" cy="176.82" r="296.04"/><circle class="cls-81" cx="27.94" cy="176.82" r="304.45"/><circle class="cls-82" cx="27.94" cy="176.82" r="312.86"/><circle class="cls-83" cx="27.94" cy="176.82" r="321.26"/><circle class="cls-84" cx="27.94" cy="176.82" r="329.67"/><circle class="cls-85" cx="27.94" cy="176.82" r="338.08"/><circle class="cls-86" cx="27.94" cy="176.82" r="346.49"/><circle class="cls-87" cx="27.94" cy="176.82" r="354.9"/></g></g></g></g></svg>