<?xml version="1.0" encoding="utf-8"?>
<!-- Generator: Adobe Illustrator 23.0.1, SVG Export Plug-In . SVG Version: 6.00 Build 0)  -->
<svg version="1.1" id="Capa_1" xmlns="http://www.w3.org/2000/svg" xmlns:xlink="http://www.w3.org/1999/xlink" x="0px" y="0px"
	 viewBox="0 0 380 380" style="enable-background:new 0 0 380 380;" xml:space="preserve">
<style type="text/css">
	.st0{clip-path:url(#SVGID_2_);}
	.st1{fill:#CCCCCC;}
	.st2{opacity:0.4;}
	.st3{opacity:0;}
	.st4{fill:#FFFFFF;}
	.st5{opacity:2.000000e-02;}
	.st6{opacity:4.000000e-02;}
	.st7{opacity:6.000000e-02;}
	.st8{opacity:8.000000e-02;}
	.st9{opacity:0.1;}
	.st10{opacity:0.12;}
	.st11{opacity:0.14;}
	.st12{opacity:0.16;}
	.st13{opacity:0.18;}
	.st14{opacity:0.2;}
	.st15{opacity:0.22;}
	.st16{opacity:0.24;}
	.st17{opacity:0.25;}
	.st18{opacity:0.27;}
	.st19{opacity:0.29;}
	.st20{opacity:0.31;}
	.st21{opacity:0.33;}
	.st22{opacity:0.35;}
	.st23{opacity:0.37;}
	.st24{opacity:0.39;}
	.st25{opacity:0.41;}
	.st26{opacity:0.43;}
	.st27{opacity:0.45;}
	.st28{opacity:0.47;}
	.st29{opacity:0.49;}
	.st30{opacity:0.51;}
	.st31{opacity:0.53;}
	.st32{opacity:0.55;}
	.st33{opacity:0.57;}
	.st34{opacity:0.59;}
	.st35{opacity:0.61;}
	.st36{opacity:0.63;}
	.st37{opacity:0.65;}
	.st38{opacity:0.67;}
	.st39{opacity:0.69;}
	.st40{opacity:0.71;}
	.st41{opacity:0.73;}
	.st42{opacity:0.75;}
	.st43{opacity:0.76;}
	.st44{opacity:0.78;}
	.st45{opacity:0.8;}
	.st46{opacity:0.82;}
	.st47{opacity:0.84;}
	.st48{opacity:0.86;}
	.st49{opacity:0.88;}
	.st50{opacity:0.9;}
	.st51{opacity:0.92;}
	.st52{opacity:0.94;}
	.st53{opacity:0.96;}
	.st54{opacity:0.98;}
</style>
<title>Back-servicios</title>
<g>
	<g id="Layer_1">
		<g>
			<defs>
				<rect id="SVGID_1_" x="-6" y="-8.6" width="386" height="391.4"/>
			</defs>
			<clipPath id="SVGID_2_">
				<use xlink:href="#SVGID_1_"  style="overflow:visible;"/>
			</clipPath>
			<g class="st0">
				<rect x="-8.8" y="-10.1" class="st1" width="391.9" height="396"/>
				<g class="st2">
					<g class="st3">
						<path class="st4" d="M-4.5,205.7H-27l-0.1-0.1L-38.2,186l11.2-19.7h22.4l0.1,0.1L6.7,186L-4.5,205.7z M-22.7,198.1h13.8
							L-2,186l-6.9-12.1h-13.8l-6.9,12.1L-22.7,198.1z"/>
					</g>
					<g class="st5">
						<path class="st4" d="M-0.9,212.1h-29.7L-45.5,186l14.9-26.1h29.7L14,186L-0.9,212.1z M-30.3,211.6h29.1L13.3,186l-14.5-25.5
							h-29.1L-44.8,186L-30.3,211.6z"/>
					</g>
					<g class="st6">
						<path class="st4" d="M2.8,218.6h-37.1l-0.1-0.2L-52.8,186l18.5-32.5H2.8l0.1,0.2L21.3,186L2.8,218.6z M-33.9,217.9H2.4
							L20.6,186L2.4,154.1h-36.3L-52.1,186L-33.9,217.9z"/>
					</g>
					<g class="st7">
						<path class="st4" d="M6.4,225h-44.4l-0.1-0.2L-60.1,186l22.2-39H6.4l0.1,0.2L28.6,186L6.4,225z M-37.6,224.3H6L27.8,186
							L6,147.8h-43.6L-59.4,186L-37.6,224.3z"/>
					</g>
					<g class="st8">
						<path class="st4" d="M10.1,231.4h-51.7l-0.1-0.2L-67.5,186l0.1-0.2l25.7-45.2h51.7l0.1,0.2L35.9,186l-0.1,0.2L10.1,231.4z
							 M-41.2,230.7H9.7L35.1,186L9.7,141.4h-50.9L-66.6,186L-41.2,230.7z"/>
					</g>
					<g class="st9">
						<path class="st4" d="M13.7,237.8h-59l-0.1-0.2L-74.8,186l29.5-51.8h59l0.1,0.2L43.2,186L13.7,237.8z M-44.8,237h58.1l29.1-51
							l-29.1-51h-58.1l-29.1,51L-44.8,237z"/>
					</g>
					<g class="st10">
						<path class="st4" d="M17.4,244.3h-66.3L-82.1,186l33.2-58.2h66.3L50.6,186L17.4,244.3z M-48.4,243.4h65.4L49.6,186L17,128.6
							h-65.4L-81.1,186L-48.4,243.4z"/>
					</g>
					<g class="st11">
						<path class="st4" d="M21.1,250.7h-73.6l-0.1-0.2L-89.4,186l0.1-0.2l36.7-64.4h73.6l0.1,0.2L57.9,186l-0.1,0.2L21.1,250.7z
							 M-52.1,249.8h72.6L56.9,186l-36.3-63.8h-72.6L-88.4,186L-52.1,249.8z"/>
					</g>
					<g class="st12">
						<path class="st4" d="M24.7,257.1h-81L-96.7,186l40.5-71.1h81L65.2,186L24.7,257.1z M-55.7,256.1h79.9L64.1,186l-39.9-70.1
							h-79.9L-95.6,186L-55.7,256.1z"/>
					</g>
					<g class="st13">
						<path class="st4" d="M28.4,263.5h-88.3l-0.1-0.2l-44-77.3l44.1-77.5h88.3l0.1,0.2l44,77.3L28.4,263.5z M-59.3,262.5h87.1
							L71.4,186l-43.6-76.5h-87.2l-43.6,76.5L-59.3,262.5z"/>
					</g>
					<g class="st14">
						<path class="st4" d="M32,270h-95.6l-47.8-83.9l47.8-83.9H32L79.8,186L32,270z M-63,268.9h94.4L78.6,186l-47.2-82.9H-63
							l-47.2,82.9L-63,268.9z"/>
					</g>
					<g class="st15">
						<path class="st4" d="M35.7,276.4H-67.2l-0.2-0.3l-51.3-90.1l51.5-90.4H35.7l0.2,0.3L87.1,186L35.7,276.4z M-66.6,275.3H35.1
							L85.9,186L35.1,96.8H-66.6l-50.8,89.2L-66.6,275.3z"/>
					</g>
					<g class="st16">
						<path class="st4" d="M39.3,282.7H-70.9l-0.2-0.3L-126,186l0.2-0.3l54.9-96.5H39.3l0.2,0.3L94.5,186l-0.2,0.3L39.3,282.7z
							 M-70.2,281.6H38.7L93.1,186L38.7,90.4H-70.2l-54.4,95.6L-70.2,281.6z"/>
					</g>
					<g class="st17">
						<path class="st4" d="M43,289.2H-74.5l-0.1-0.3l-58.6-102.9l58.8-103.2H43l0.2,0.3l58.6,102.9L43,289.2z M-73.8,288H42.3
							l58.1-102L42.3,84H-73.8l-58.1,102L-73.8,288z"/>
					</g>
					<g class="st18">
						<path class="st4" d="M46.7,295.6H-78.2l-0.2-0.3L-140.6,186l0.2-0.3l62.2-109.3H46.7L109.1,186l-0.2,0.3L46.7,295.6z
							 M-77.5,294.4H45.9L107.6,186L45.9,77.7H-77.4L-139.1,186L-77.5,294.4z"/>
					</g>
					<g class="st19">
						<path class="st4" d="M50.3,302.1H-81.8l-66.1-116l0.2-0.3l65.9-115.8H50.3l0.2,0.3L116.4,186l-0.2,0.3L50.3,302.1z
							 M-81.1,300.7H49.6L114.9,186L49.6,71.3H-81.1L-146.4,186L-81.1,300.7z"/>
					</g>
					<g class="st20">
						<path class="st4" d="M54,308.5H-85.5L-155.2,186l69.7-122.5H54l0.2,0.3L123.7,186L54,308.5z M-84.7,307.1H53.2L122.1,186
							L53.2,64.9H-84.7l-69,121.1L-84.7,307.1z"/>
					</g>
					<g class="st21">
						<path class="st4" d="M57.6,314.9H-89.2l-0.2-0.4L-162.6,186l0.2-0.4l73.2-128.5H57.6L131,186l-0.2,0.4L57.6,314.9z
							 M-88.4,313.5H56.9L129.4,186L56.9,58.5H-88.4L-160.9,186L-88.4,313.5z"/>
					</g>
					<g class="st22">
						<path class="st4" d="M61.3,321.3H-92.8l-77-135.3l0.2-0.4l76.8-135H61.3l77,135.3l-0.2,0.4L61.3,321.3z M-92,319.9H60.4
							L136.7,186L60.4,52.2H-92L-168.2,186L-92,319.9z"/>
					</g>
					<g class="st23">
						<path class="st4" d="M64.9,327.8H-96.5l-0.2-0.4L-177.2,186l80.8-141.7H64.9L145.7,186L64.9,327.8z M-95.6,326.2H64.1
							L143.9,186L64.1,45.8H-95.6L-175.4,186L-95.6,326.2z"/>
					</g>
					<g class="st24">
						<path class="st4" d="M68.6,334.2h-168.7l-0.2-0.4L-184.5,186l0.2-0.4l84.1-147.7H68.6l0.2,0.4L153,186.1l-0.2,0.4L68.6,334.2z
							 M-99.2,332.6H67.7L151.2,186L67.7,39.4H-99.2L-182.7,186L-99.2,332.6z"/>
					</g>
					<g class="st25">
						<path class="st4" d="M72.3,340.6h-176l-0.2-0.4L-191.8,186l88-154.6h176l88,154.6L72.3,340.6z M-102.9,339H71.3l87.1-153
							l-87.1-153h-174.2l-87.1,153L-102.9,339z"/>
					</g>
					<g class="st26">
						<path class="st4" d="M75.9,347h-183.4l-0.2-0.4L-199.1,186l0.2-0.4L-107.4,25H75.9l0.2,0.4L167.6,186l-0.2,0.4L75.9,347z
							 M-106.5,345.3H75L165.7,186L75,26.7h-181.5L-197.2,186L-106.5,345.3z"/>
					</g>
					<g class="st27">
						<path class="st4" d="M79.6,353.4h-190.6l-0.3-0.4l-95.1-167l95.3-167.5H79.6l0.2,0.4l95.1,167L79.6,353.4z M-110.1,351.7H78.6
							L172.9,186L78.6,20.3h-188.7L-204.5,186L-110.1,351.7z"/>
					</g>
					<g class="st28">
						<path class="st4" d="M83.2,359.9h-198l-0.3-0.5L-213.8,186l0.3-0.5l98.7-173.4h198l99,173.9l-0.3,0.4L83.2,359.9z
							 M-113.7,358.1h196l98-172.1l-98-172h-196l-98,172.1L-113.7,358.1z"/>
					</g>
					<g class="st29">
						<path class="st4" d="M86.9,366.3h-205.3l-0.3-0.5L-221.1,186L-118.4,5.7H86.9l0.3,0.5L189.6,186L86.9,366.3z M-117.4,364.4
							H85.8L187.5,186L85.8,7.6h-203.2L-219,186L-117.4,364.4z"/>
					</g>
					<g class="st30">
						<path class="st4" d="M90.6,372.7h-212.6l-0.3-0.5l-106-186.2l0.3-0.5l106-186.2H90.6l0.3,0.5l106,186.2l-0.3,0.5L90.6,372.7z
							 M-121,370.8H89.5L194.7,186L89.5,1.2H-121L-226.2,186L-121,370.8z"/>
					</g>
					<g class="st31">
						<path class="st4" d="M94.2,379.1h-219.9l-110-193.1l110-193.1H94.2l0.3,0.5L204.2,186L94.2,379.1z M-124.6,377.2H93.1L202,186
							L93.1-5.2h-217.7l-108.9,191.2L-124.6,377.2z"/>
					</g>
					<g class="st32">
						<path class="st4" d="M97.9,385.6h-227.3L-243,186l0.3-0.5l113.3-199H97.9l0.3,0.5L211.5,186l-0.3,0.5L97.9,385.6z
							 M-128.3,383.6h225L209.2,186L96.7-11.5h-225L-240.7,186L-128.3,383.6z"/>
					</g>
					<g class="st33">
						<path class="st4" d="M101.5,392h-234.6l-117.2-206l117.2-206h234.6l117.3,206L101.5,392z M-131.9,389.9h232.2L216.5,186
							L100.3-17.9h-232.2L-248,186L-131.9,389.9z"/>
					</g>
					<g class="st34">
						<path class="st4" d="M105.2,398.4h-241.9l-0.3-0.5L-257.7,186l0.3-0.5l120.7-211.9h241.9l0.3,0.5L226.1,186l-0.3,0.5
							L105.2,398.4z M-135.5,396.3H104L223.7,186L104-24.2h-239.5L-255.3,186L-135.5,396.3z"/>
					</g>
					<g class="st35">
						<path class="st4" d="M108.9,404.8h-249.2L-265,186l124.6-218.8h249.2L233.4,186L108.9,404.8z M-139.1,402.7h246.7L230.9,186
							L107.6-30.7h-246.7L-262.5,186L-139.1,402.7z"/>
					</g>
					<g class="st36">
						<path class="st4" d="M112.5,411.3H-144l-0.3-0.6L-272.2,186l0.3-0.6L-144-39.2h256.5l0.3,0.6L240.8,186l-0.3,0.5L112.5,411.3z
							 M-142.8,409h254l127-223l-127-223h-254l-127,223L-142.8,409z"/>
					</g>
					<g class="st37">
						<path class="st4" d="M116.2,417.7h-263.8L-279.6,186l131.9-231.7h263.8l0.3,0.6L248.1,186L116.2,417.7z M-146.4,415.4h261.3
							L245.5,186L114.9-43.4h-261.3L-277,186L-146.4,415.4z"/>
					</g>
					<g class="st38">
						<path class="st4" d="M119.8,424.1h-271.2l-0.3-0.6L-286.9,186l0.3-0.6l135.2-237.5h271.2l0.3,0.6L255.4,186l-0.3,0.6
							L119.8,424.1z M-150,421.8h268.5L252.7,186L118.5-49.8H-150L-284.3,186L-150,421.8z"/>
					</g>
					<g class="st39">
						<path class="st4" d="M123.5,430.6H-155L-294.2,186L-155-58.5h278.5l0.3,0.6L262.7,186L123.5,430.6z M-153.6,428.2h275.8
							L260,186L122.1-56.1h-275.8L-291.5,186L-153.6,428.2z"/>
					</g>
					<g class="st40">
						<path class="st4" d="M127.1,437h-285.8l-0.3-0.6L-301.5,186l0.3-0.6l142.5-250.3h285.8l0.3,0.6L270,186l-0.3,0.6L127.1,437z
							 M-157.3,434.5h283L267.3,186L125.7-62.5h-283L-298.8,186L-157.3,434.5z"/>
					</g>
					<g class="st41">
						<path class="st4" d="M130.8,443.4h-293.1l-0.3-0.6L-308.9,186l146.5-257.4h293.1l0.4,0.6L277.3,186L130.8,443.4z
							 M-160.9,440.9h290.3L274.5,186L129.4-68.9h-290.3L-306.1,186L-160.9,440.9z"/>
					</g>
					<g class="st42">
						<path class="st4" d="M134.4,449.8H-166l-0.4-0.6L-316.2,186l0.4-0.6L-166-77.8h300.4L284.6,186l-0.4,0.6L134.4,449.8z
							 M-164.5,447.3H133L281.8,186L133-75.2h-297.5L-313.3,186L-164.5,447.3z"/>
					</g>
					<g class="st43">
						<path class="st4" d="M138.1,456.2h-307.7l-0.4-0.6L-323.5,186l153.9-270.2h307.7L292,186L138.1,456.2z M-168.2,453.6h304.8
							L289,186L136.6-81.6h-304.8L-320.6,186L-168.2,453.6z"/>
					</g>
					<g class="st44">
						<path class="st4" d="M141.8,462.6h-315l-0.4-0.7l-157.1-276l0.4-0.7l157.1-276h315l0.4,0.7l157.1,276l-0.4,0.7L141.8,462.6z
							 M-171.8,460h312l156-274l-156-274h-312l-156,274L-171.8,460z"/>
					</g>
					<g class="st45">
						<path class="st4" d="M145.4,469.1h-322.4l-0.4-0.7L-338.1,186L-176.9-97h322.4L306.6,186L145.4,469.1z M-175.4,466.4h319.3
							L303.6,186L143.9-94.4h-319.3L-335.1,186L-175.4,466.4z"/>
					</g>
					<g class="st46">
						<path class="st4" d="M149.1,475.5h-329.7l-0.4-0.7L-345.4,186l0.4-0.7l164.4-288.8h329.7l0.4,0.7L313.9,186l-0.4,0.7
							L149.1,475.5z M-179,472.8h326.5L310.8,186L147.5-100.7H-179L-342.3,186L-179,472.8z"/>
					</g>
					<g class="st47">
						<path class="st4" d="M152.7,481.9h-336.9l-0.4-0.7L-352.7,186l0.4-0.7l168.1-295.2h336.9L321.2,186l-0.4,0.7L152.7,481.9z
							 M-182.7,479.1h333.8L318,186L151.1-107.1h-333.8L-349.6,186L-182.7,479.1z"/>
					</g>
					<g class="st48">
						<path class="st4" d="M156.4,488.3h-344.3L-360.1,186l172.2-302.3h344.3l0.4,0.7L328.5,186L156.4,488.3z M-186.3,485.5h341
							L325.3,186L154.7-113.5h-341L-356.8,186L-186.3,485.5z"/>
					</g>
					<g class="st49">
						<path class="st4" d="M160,494.8h-351.6l-0.4-0.7l-175.3-308l0.4-0.7l175.4-308H160L335.9,186l-0.4,0.7L160,494.8z
							 M-189.9,491.9h348.3L332.6,186L158.4-119.8h-348.3L-364.1,186L-189.9,491.9z"/>
					</g>
					<g class="st50">
						<path class="st4" d="M163.7,501.2h-358.9l-0.4-0.7l-179-314.4l0.4-0.7l179-314.4h358.9L343.1,186l-0.4,0.7L163.7,501.2z
							 M-193.5,498.2H162L339.8,186L162-126.2h-355.6L-371.3,186L-193.5,498.2z"/>
					</g>
					<g class="st51">
						<path class="st4" d="M167.4,507.6h-366.2L-382,186l0.4-0.8l182.7-320.8h366.2l0.4,0.7L350.5,186l-0.4,0.7L167.4,507.6z
							 M-197.2,504.6h362.8L347.1,186L165.7-132.6h-362.8L-378.6,186L-197.2,504.6z"/>
					</g>
					<g class="st52">
						<path class="st4" d="M171,514h-373.6l-0.4-0.8L-389.3,186l0.4-0.8L-202.5-142H171l186.8,328l-0.4,0.8L171,514z M-200.8,511
							h370.1l185.1-325l-185-325h-370.1l-185.1,325L-200.8,511z"/>
					</g>
					<g class="st53">
						<path class="st4" d="M174.7,520.5h-380.8L-396.6,186l0.4-0.8l190-333.7h380.8L365.1,186l-0.4,0.8L174.7,520.5z M-204.4,517.4
							h377.3L361.6,186L172.9-145.3h-377.3L-393.1,186L-204.4,517.4z"/>
					</g>
					<g class="st54">
						<path class="st4" d="M178.3,526.9h-388.2L-403.9,186l0.4-0.8l193.7-340.1h388.1l0.4,0.8L372.5,186l-0.4,0.8L178.3,526.9z
							 M-208,523.7h384.6L368.8,186L176.5-151.7h-384.6L-400.4,186L-208,523.7z"/>
					</g>
					<path class="st4" d="M182,533.3h-395.5l-0.5-0.8L-411.3,186l197.8-347.3H182l0.5,0.8L379.7,186L182,533.3z M-211.7,530.1h391.9
						L376.1,186L180.2-158.1h-391.9L-407.6,186L-211.7,530.1z"/>
				</g>
			</g>
		</g>
	</g>
</g>
</svg>
