<?xml version="1.0" encoding="utf-8"?>
<!-- Generator: Adobe Illustrator 17.0.0, SVG Export Plug-In . SVG Version: 6.00 Build 0)  -->
<!DOCTYPE svg PUBLIC "-//W3C//DTD SVG 1.1//EN" "http://www.w3.org/Graphics/SVG/1.1/DTD/svg11.dtd">
<svg version="1.1" id="Layer_1" xmlns="http://www.w3.org/2000/svg" xmlns:xlink="http://www.w3.org/1999/xlink" x="0px" y="0px"
	 viewBox="0 0 80 80" style="enable-background:new 0 0 80 80;" xml:space="preserve">
<style type="text/css">
	.st0{fill:url(#SVGID_1_);}
	.st1{fill:url(#SVGID_2_);}
</style>
<g>
	<g>
		
			<linearGradient id="SVGID_1_" gradientUnits="userSpaceOnUse" x1="-1833.5929" y1="5490.7637" x2="-1812.9816" y2="5490.7637" gradientTransform="matrix(-1 0 0 -1 -1771.0546 5528.3145)">
			<stop  offset="0" style="stop-color:#08AEEA"/>
			<stop  offset="1" style="stop-color:#2AF598"/>
		</linearGradient>
		<path class="st0" d="M52.4,53.8c-2.9,0-5.3-1.1-7.4-3.4c-1-1-1.7-2.3-2.3-3.8c-0.6-1.5-0.9-3-0.9-4.5c0-3.2,1-6.4,3.1-9.6
			c2.1-3.3,4.8-6,8.3-8.3c2.9-1.9,5.2-2.9,6.9-2.9c0.7,0,1.2,0.2,1.7,0.6c0.4,0.4,0.7,0.9,0.7,1.6c0,1-0.6,1.8-1.9,2.5
			c-3,1.6-5.3,3.1-6.7,4.7c-1.3,1.4-2,2.5-2,3.2c0,0.6,0.5,1,1.5,1.2l0.7,0.1l0.8,0c2.2,0.3,3.9,1.3,5.3,3s2,3.7,2,6.1
			c0,2.5-0.8,4.6-2.5,6.4C57.8,52.7,55.4,53.8,52.4,53.8z"/>
		
			<linearGradient id="SVGID_2_" gradientUnits="userSpaceOnUse" x1="-1809.63" y1="5490.7637" x2="-1789.0187" y2="5490.7637" gradientTransform="matrix(-1 0 0 -1 -1771.0546 5528.3145)">
			<stop  offset="0" style="stop-color:#08AEEA"/>
			<stop  offset="1" style="stop-color:#2AF598"/>
		</linearGradient>
		<path class="st1" d="M28.5,53.8c-2.9,0-5.3-1.1-7.4-3.4c-1-1-1.7-2.3-2.3-3.8c-0.6-1.5-0.9-3-0.9-4.5c0-3.2,1-6.4,3.1-9.6
			c2.1-3.3,4.8-6,8.3-8.3c2.9-1.9,5.2-2.9,6.9-2.9c0.7,0,1.2,0.2,1.7,0.6c0.4,0.4,0.7,0.9,0.7,1.6c0,1-0.6,1.8-1.9,2.5
			c-3,1.6-5.3,3.1-6.7,4.7c-1.3,1.4-2,2.5-2,3.2c0,0.6,0.5,1,1.5,1.2l0.7,0.1l0.8,0c2.2,0.3,3.9,1.3,5.3,3c1.4,1.7,2,3.7,2,6.1
			c0,2.5-0.8,4.6-2.5,6.4C33.8,52.7,31.4,53.8,28.5,53.8z"/>
	</g>
</g>
</svg>
