<?xml version="1.0" encoding="utf-8"?>
<!-- Generator: Adobe Illustrator 17.0.0, SVG Export Plug-In . SVG Version: 6.00 Build 0)  -->
<!DOCTYPE svg PUBLIC "-//W3C//DTD SVG 1.1//EN" "http://www.w3.org/Graphics/SVG/1.1/DTD/svg11.dtd">
<svg version="1.1" id="Layer_1" xmlns="http://www.w3.org/2000/svg" xmlns:xlink="http://www.w3.org/1999/xlink" x="0px" y="0px"
	 viewBox="0 0 46 32" style="enable-background:new 0 0 46 32;" xml:space="preserve">
<style type="text/css">
	.st0{fill:url(#SVGID_1_);}
	.st1{fill:url(#SVGID_2_);}
</style>
<g>
	<g>
		
			<linearGradient id="SVGID_1_" gradientUnits="userSpaceOnUse" x1="-1948.6705" y1="5364.3662" x2="-1928.5773" y2="5364.3662" gradientTransform="matrix(-1 0 0 -1 -1904.5546 5380.3145)">
			<stop  offset="0" style="stop-color:#08AEEA"/>
			<stop  offset="1" style="stop-color:#2AF598"/>
		</linearGradient>
		<path class="st0" d="M34.3,31.9c-2.8,0-5.2-1.1-7.2-3.3c-0.9-1-1.7-2.3-2.2-3.7C24.3,23.4,24,22,24,20.5c0-3.1,1-6.3,3-9.5
			c2-3.2,4.7-5.9,8.1-8.2c2.9-1.9,5.1-2.9,6.7-2.9c0.7,0,1.2,0.2,1.6,0.6c0.4,0.4,0.6,0.9,0.6,1.6c0,1-0.6,1.8-1.9,2.5
			c-3,1.5-5.1,3.1-6.5,4.6c-1.3,1.4-2,2.5-2,3.1c0,0.6,0.5,1,1.5,1.1l0.6,0.1l0.7,0c2.1,0.3,3.8,1.3,5.1,3c1.3,1.7,2,3.7,2,6
			c0,2.4-0.8,4.5-2.4,6.3C39.5,30.9,37.1,31.9,34.3,31.9z"/>
		
			<linearGradient id="SVGID_2_" gradientUnits="userSpaceOnUse" x1="-1925.3099" y1="5364.3662" x2="-1905.2167" y2="5364.3662" gradientTransform="matrix(-1 0 0 -1 -1904.5546 5380.3145)">
			<stop  offset="0" style="stop-color:#08AEEA"/>
			<stop  offset="1" style="stop-color:#2AF598"/>
		</linearGradient>
		<path class="st1" d="M10.9,31.9c-2.8,0-5.2-1.1-7.2-3.3c-0.9-1-1.7-2.3-2.2-3.7c-0.6-1.5-0.8-2.9-0.8-4.4c0-3.1,1-6.3,3-9.5
			c2-3.2,4.7-5.9,8.1-8.2c2.9-1.9,5.1-2.9,6.7-2.9c0.7,0,1.2,0.2,1.6,0.6c0.4,0.4,0.6,0.9,0.6,1.6c0,1-0.6,1.8-1.9,2.5
			c-3,1.5-5.1,3.1-6.5,4.6c-1.3,1.4-2,2.5-2,3.1c0,0.6,0.5,1,1.5,1.1l0.6,0.1l0.7,0c2.1,0.3,3.8,1.3,5.1,3c1.3,1.7,2,3.7,2,6
			c0,2.4-0.8,4.5-2.4,6.3C16.1,30.9,13.8,31.9,10.9,31.9z"/>
	</g>
</g>
</svg>
